<?xml version="1.0" encoding="UTF-8"?>
<svg width="21px" height="39px" viewBox="0 0 21 39" version="1.1" xmlns="http://www.w3.org/2000/svg" xmlns:xlink="http://www.w3.org/1999/xlink">
    <title>bar</title>
    <defs>
        <filter id="filter-1">
            <feColorMatrix in="SourceGraphic" type="matrix" values="0 0 0 0 1.000000 0 0 0 0 1.000000 0 0 0 0 1.000000 0 0 0 1.000000 0"></feColorMatrix>
        </filter>
    </defs>
    <g id="页面-1" stroke="none" stroke-width="1" fill="none" fill-rule="evenodd">
        <g id="Swap---Home-——1920" transform="translate(-702.000000, -480.000000)">
            <g id="bar" transform="translate(669.000000, 447.000000)" filter="url(#filter-1)">
                <g transform="translate(33.000000, 33.000000)">
                    <path d="M19.6339668,0 L1.36607875,0 C0.612822926,0 0,0.669070003 0,1.49146233 L0,14.5236116 C0,17.4250527 1.03489572,20.1528379 2.91402811,22.2044438 C4.6387936,24.0875144 6.88535564,25.1932846 9.29762302,25.3624164 L9.29762302,36.215937 L5.85114295,36.215937 C5.14697489,36.215937 4.57613612,36.8391694 4.57613612,37.6079685 C4.57613612,38.3767676 5.14697489,39 5.85114295,39 L15.3667011,39 C16.0708691,39 16.6417079,38.3767676 16.6417079,37.6079685 C16.6417079,36.8391694 16.0708691,36.215937 15.3667011,36.215937 L11.8476367,36.215937 L11.8476367,25.3512802 C14.20476,25.1486899 16.3959048,24.0496313 18.0859264,22.2044438 C19.9651498,20.1527882 21,17.4250527 21,14.5236116 L21,1.49146233 C21,0.669070003 20.3872226,0 19.6339668,0 L19.6339668,0 Z M18.4500774,14.5236116 C18.4500774,18.9779633 15.1307793,22.6018688 11.050894,22.6018688 L9.94919705,22.6018688 C5.86926626,22.6018688 2.5500592,18.9779633 2.5500592,14.5236116 L2.5500592,2.78406302 L18.4500774,2.78406302 L18.4500774,14.5236116 L18.4500774,14.5236116 Z" id="形状" fill="#000000" fill-rule="nonzero"></path>
                </g>
            </g>
        </g>
    </g>
</svg>