<svg xmlns="http://www.w3.org/2000/svg" viewBox="0 0 784.15 612.88"><defs><style>.cls-1{fill:#dea33f;}.cls-2{fill:#eddb92;}.cls-3{fill:#c4c4b4;}.cls-4{fill:#e8c158;}.cls-5{fill:#c7c7b6;}.cls-6{fill:#edd58f;}.cls-7{fill:#dbdadb;}.cls-8{fill:#cac8c9;}.cls-9{fill:#dedcdd;}.cls-10{fill:#797777;}.cls-11{fill:#adabac;}.cls-12{fill:#dedddd;}.cls-13{fill:#bebcbd;}.cls-14{fill:#797878;}.cls-15{fill:#999899;}.cls-16{fill:#959494;}.cls-17{fill:#e4e3e3;}.cls-18{fill:#a19fa0;}.cls-19{fill:#797778;}.cls-20{fill:#a09e9f;}.cls-21{fill:#787677;}.cls-22{fill:#e3e2e2;}.cls-23{fill:#a2a1a1;}.cls-24{fill:#7b797a;}.cls-25{fill:#bdbbbb;}.cls-26{fill:#e4a13a;}.cls-27{fill:#d0cecf;}.cls-28{fill:#bbbaba;}.cls-29{fill:#bebebe;}.cls-30{fill:#a7a6a6;}.cls-31{fill:#a3a2a2;}.cls-32{fill:#d6a14a;}.cls-33{fill:#c4c2c3;}.cls-34{fill:#e6ce7f;}.cls-35{fill:#f1c24d;}.cls-36{fill:#d9c58c;}.cls-37{fill:#afadae;}.cls-38{fill:#dda647;}.cls-39{fill:#daa748;}.cls-40{fill:#dda949;}.cls-41{fill:#dca848;}.cls-42{fill:#e8d495;}.cls-43{fill:#dda140;}.cls-44{fill:#dba647;}.cls-45{fill:#f1e1a4;}.cls-46{fill:#f2e5a7;}.cls-47{fill:#efda9d;}.cls-48{fill:#f3db9e;}.cls-49{fill:#f0d69b;}.cls-50{fill:#f4dda1;}.cls-51{fill:#f3dc9f;}.cls-52{fill:#f0da91;}.cls-53{fill:#d5af54;}.cls-54{fill:#e9cf84;}.cls-55{fill:#f7da56;}.cls-56{fill:#f0df86;}.cls-57{fill:#edd886;}.cls-58{fill:#c2b56b;}.cls-59{fill:#6f5e44;}.cls-60{fill:#8da1ac;}.cls-61{fill:#67606b;}.cls-62{fill:#636078;}.cls-63{fill:#5b4d40;}.cls-64{fill:#56493a;}.cls-65{fill:#a7a09e;}.cls-66{fill:#e5cc96;}.cls-67{fill:#b0abae;}.cls-68{fill:#aeabae;}.cls-69{fill:#aaa8a9;}.cls-70{fill:#b3b2b2;}.cls-71{fill:#adaaad;}.cls-72{fill:#a9a6aa;}.cls-73{fill:#bdbabb;}.cls-74{fill:#949394;}.cls-75{fill:#afaeae;}.cls-76{fill:#e2e1e2;}.cls-77{fill:#a7a7a7;}.cls-78{fill:#a09f9f;}.cls-79{fill:#dcdbdb;}.cls-80{fill:#b1b0b0;}.cls-81{fill:#e2e0e1;}.cls-82{fill:#7a7879;}.cls-83{fill:#b9b8b8;}.cls-84{fill:#7c797a;}.cls-85{fill:#d3d2d2;}.cls-86{fill:#7c7a7b;}.cls-87{fill:#c5c4c4;}.cls-88{fill:#9b9999;}.cls-89{fill:#797677;}.cls-90{fill:#a4a2a3;}.cls-91{fill:#e4d68e;}.cls-92{fill:#9ac1cc;}.cls-93{fill:#c1beb0;}.cls-94{fill:#9bbec5;}.cls-95{fill:#acaaab;}.cls-96{fill:#959394;}.cls-97{fill:#9f9d9d;}.cls-98{fill:#999798;}.cls-99{fill:#b4b2b3;}.cls-100{fill:#b4b3b3;}.cls-101{fill:#b8b6b7;}.cls-102{fill:#cecccd;}.cls-103{fill:#e4e3e4;}.cls-104{fill:#e4e2e3;}.cls-105{fill:#7993a0;}.cls-106{fill:#686267;}.cls-107{fill:#e2e1e1;}.cls-108{fill:#e5e4e4;}.cls-109{fill:#e3c178;}.cls-110{fill:#f3e6c3;}.cls-111{fill:#ddd9db;}.cls-112{fill:#b9b9b9;}.cls-113{fill:#cbc9ca;}.cls-114{fill:#c2c1c1;}.cls-115{fill:#9e9d9e;}.cls-116{fill:#e0dedf;}.cls-117{fill:#b8b7b7;}.cls-118{fill:#c4c3b4;}.cls-119{fill:#ccc9ca;}.cls-120{fill:#c0bebf;}.cls-121{fill:#a3a0a1;}.cls-122{fill:#9a9899;}.cls-123{fill:#b1b0b1;}.cls-124{fill:#97915c;}.cls-125{fill:#bebdbd;}.cls-126{fill:#f2e59f;}.cls-127{fill:#9a9999;}.cls-128{fill:#d7d5d6;}.cls-129{fill:#c7c7c7;}.cls-130{fill:#ead497;}.cls-131{fill:#616177;}.cls-132{fill:#d7d6d6;}.cls-133{fill:#e7c159;}.cls-134{fill:#b9b7b8;}.cls-135{fill:#bfbdbe;}.cls-136{fill:#b2b0b1;}.cls-137{fill:#c6c4c5;}.cls-138{fill:#aaa8a8;}.cls-139{fill:#c5c3c4;}.cls-140{fill:#b4b0b2;}.cls-141{fill:#bcb9ba;}.cls-142{fill:#584d3b;}.cls-143{fill:#daa749;}.cls-144{fill:#564639;}.cls-145{fill:#c8c8c8;}.cls-146{fill:#c9c9c9;}.cls-147{fill:#dea03e;}.cls-148{fill:#e5c78b;}.cls-149{fill:#c7c6c6;}.cls-150{fill:#c3c3c3;}.cls-151{fill:#f3e19a;}.cls-152{fill:#f7eac3;}.cls-153{fill:#bbb;}.cls-154{fill:#cbcbcb;}.cls-155{fill:#cdcdcd;}.cls-156{fill:#ccc;}.cls-157{fill:#ecc562;}.cls-158{fill:#f1d897;}.cls-159{fill:#fef7cd;}.cls-160{fill:#efc14e;}.cls-161{fill:#efd690;}.cls-162{fill:#f3dda5;}.cls-163{fill:#ead15f;}.cls-164{fill:#f6dfab;}.cls-165{fill:#7c7f5a;}.cls-166{fill:#958753;}.cls-167{fill:#97b1b3;}.cls-168{fill:#787778;}.cls-169{fill:#95b1b3;}.cls-170{fill:#f2dca5;}.cls-171{fill:#8a9199;}.cls-172{fill:#eece80;}.cls-173{fill:#e2d271;}.cls-174{fill:#8c9196;}.cls-175{fill:#acbfc5;}.cls-176{fill:#8b9098;}.cls-177{fill:#9ea3aa;}.cls-178{fill:#dae6ef;}.cls-179{fill:#687c86;}.cls-180{fill:#e0ebf6;}.cls-181{fill:#e2ecf4;}.cls-182{fill:#bfdadd;}.cls-183{fill:#e2eefb;}.cls-184{fill:#d2e0e8;}.cls-185{fill:#96979f;}.cls-186{fill:#e3edf4;}.cls-187{fill:#dfe4ce;}.cls-188{fill:#adb5b7;}.cls-189{fill:#aeb9bd;}.cls-190{fill:#abb5b8;}.cls-191{fill:#a7b6c2;}.cls-192{fill:#b0b7b9;}.cls-193{fill:#adb6ba;}.cls-194{fill:#e9d387;}.cls-195{fill:#acb5b9;}.cls-196{fill:#e1b45b;}.cls-197{fill:#f8ebb9;}.cls-198{fill:#f1dda4;}.cls-199{fill:#ab9799;}.cls-200{fill:#d9b7b8;}.cls-201{fill:#c8d9e3;}.cls-202{fill:#b3d2cd;}.cls-203{fill:#c3e9e7;}.cls-204{fill:#b3d3ce;}.cls-205{fill:#c3e9e8;}.cls-206{fill:#b1d4cd;}.cls-207{fill:#bedcde;}.cls-208{fill:#bddcdd;}.cls-209{fill:#abb7bb;}.cls-210{fill:#f2dca2;}.cls-211{fill:#b2d4cd;}.cls-212{fill:#fbf1cf;}.cls-213{fill:#e8f7fd;}.cls-214{fill:#fcf0cf;}.cls-215{fill:#fbf2cf;}.cls-216{fill:#abb7c1;}.cls-217{fill:#e9f0e8;}.cls-218{fill:#e7e8cf;}.cls-219{fill:#dcd2a5;}.cls-220{fill:#ded6ae;}.cls-221{fill:#dfcf99;}.cls-222{fill:#e1dcd8;}.cls-223{fill:#d4d6ce;}.cls-224{fill:#c0ad9e;}.cls-225{fill:#cfc5c2;}.cls-226{fill:#c5a791;}.cls-227{fill:#cbd7e1;}.cls-228{fill:#d9dde3;}.cls-229{fill:#fcf7dc;}.cls-230{fill:#c7bdb5;}.cls-231{fill:#bbcad1;}.cls-232{fill:#faf2da;}.cls-233{fill:#e0ddda;}.cls-234{fill:#cbdde3;}.cls-235{fill:#b3bfc9;}.cls-236{fill:#cadde2;}.cls-237{fill:#cadee3;}.cls-238{fill:#c7dde2;}.cls-239{fill:#b2beca;}.cls-240{fill:#b3bec8;}.cls-241{fill:#b3c0c9;}.cls-242{fill:#b3bfcb;}.cls-243{fill:#e3edfb;}.cls-244{fill:#a1a7ab;}.cls-245{fill:#e1ecf8;}.cls-246{fill:#b4bfca;}.cls-247{fill:#cadce2;}.cls-248{fill:#e2edfb;}.cls-249{fill:#cbd8e2;}.cls-250{fill:#adb8c5;}.cls-251{fill:#abb8c1;}.cls-252{fill:#e2edf9;}.cls-253{fill:#b4c0c9;}.cls-254{fill:#c5d7de;}.cls-255{fill:#b1bec6;}.cls-256{fill:#b2bdc7;}.cls-257{fill:#b0bbc5;}.cls-258{fill:#c8dfe3;}.cls-259{fill:#a7b3ba;}.cls-260{fill:#b3bfcc;}.cls-261{fill:#b4bfc8;}.cls-262{fill:#bac8cf;}.cls-263{fill:#bdcbd3;}.cls-264{fill:#d0d7df;}.cls-265{fill:#abbfc3;}.cls-266{fill:#8c9097;}.cls-267{fill:#96b1b3;}.cls-268{fill:#8c9197;}.cls-269{fill:#8b8e94;}.cls-270{fill:#8b8f95;}.cls-271{fill:#777677;}.cls-272{fill:#c0bcbe;}.cls-273{fill:#8a9c9d;}.cls-274{fill:#6b6f7c;}.cls-275{fill:#4b4555;}.cls-276{fill:#a2a7aa;}</style></defs><g id="图层_2" data-name="图层 2"><g id="Layer_1" data-name="Layer 1"><path class="cls-1" d="M164,2.79c5.5-4.35,13-3.29,18.3,1,.5,3.4.87,6.83,1,10.27a41.91,41.91,0,0,1-3.21,4.81A31.65,31.65,0,0,1,174.08,21c-7.54,2.88-14-5-12.37-12.37A58.38,58.38,0,0,1,164,2.79Z"/><path class="cls-2" d="M159,12.77c1.62-3.17,1.3-9,5-10a58.38,58.38,0,0,0-2.31,5.83c-2.31,34.49,1.06,69.83-1.24,104.55-1.26-31.81.76-63.76-.91-95.51C159.33,16,159.15,14.41,159,12.77Z"/><path class="cls-3" d="M182.19,2.85C202.78,7.82,222.35,16.47,243,21c2.31.79,4.5,1.88,6.76,2.81a26.79,26.79,0,0,0,4.12,1.34c16.46,3.61,32.17,9.88,48.24,14.77,42.78,13,85.32,26.87,128.18,39.79,16.41,6.08,33.52,10.12,49.94,16.06-3.35,0-6.6.11-9.91.28-1.66-.35-3.31-.74-5-1-2.32-.77-4.6-1.66-7-2.25-47-14.9-94.26-29-141.16-44.25a50.08,50.08,0,0,0-8.87-2.76c-10.26-2.62-20.3-6.06-30.39-9.28-2.22-.75-4.55-1.07-6.78-1.77A61.16,61.16,0,0,0,258,30.88c-1.6-.66-3.16-1.41-4.8-2a54.15,54.15,0,0,0-8.67-2.25,48,48,0,0,0-7.08-2.94c-17.79-4.84-35.08-11.45-53-15.82-.27,1.53-.8,4.59-1.07,6.12-.16-3.44-.53-6.87-1-10.27Z"/><path class="cls-4" d="M160.47,113.17c2.3-34.72-1.07-70.06,1.24-104.55C160,16,166.54,23.87,174.08,21c-2.32,4.78,1.77,9.8,4,13.92,7,20,16.54,39,24.36,58.63.56,1.39.84,3.2,2.66,3.38,2.81,11.17,7.9,21.76,13.22,32,18.56-7.61,33.53-23.17,51.9-31.87,66.69-.83,133.49,1,200.11-.94,3.31-.17,6.56-.26,9.91-.28l.79.13c36.85,2.34,74,.19,111,1,13.32,7.59,24.62,18.77,38.08,26.1,3.38,2.54,6.9,4.9,10.34,7.41.35,2.25,3.23,5.79.34,7.21-85.57.4-171.16.21-256.74.09-.18-2.68-.61-5.32-1-8,6.83,5.05,17.81.6,26,2.14,1.42-1.67,12.88,3,9.05-2.12,3.61,4.29,15.69,2,8.09-3l2.75-.12c.14-7.59.43-15.2,0-22.79-11.95-.18-23.9-.09-35.84-.08l.87,2.11c-3.23-3.1-17.35-3.44-10.07,1.85-4.18,3.86-1.24,13.44-1.72,19.81-3.56,0-8,2-11.06-.71,1.28,0,2.57-.06,3.85-.17.1-7.6.4-15.22,0-22.8-11.87-.13-23.74-.28-35.59.09l-.41,1.65c-3.08-2.67-14.74-3.55-9.23,2.1-6.13,5.47-.05,16.44-1.52,24,11.85.11,23.72.3,35.58-.11.11-.43.35-1.29.47-1.72,1.22,3.29.31,7.47.74,11.08-.25-.54-.76-1.62-1-2.15-38.24-1.72-78.71-1.73-117.64,0a40.35,40.35,0,0,1,2.13,7.55c-1.14.85-2.26,1.7-3.39,2.57-.54-2.52-.94-5.1-1.59-7.56-5.33.95-10.13-2.87-15.29-1.77-2.92-11.06-17.45-4.95-25.81-5.91-4.82-2.18-7.22,2.53-11.09,4.22-6.15-.08-12.39-.51-18.47.64-8.41.41-13.11-9.07-21.61-9.88-8-4.17-14.79-10.59-23.17-14-1.28-1.08-2.56-2.16-3.89-3.16a54,54,0,0,0-6-3.8c0,8-.43,16,.07,24,5,.14,10.12,0,15.18.22-1.72,2-3.65,3.86-5.51,5.75-38.56.2-77.13.13-115.7.06-2.89,0-1.83-3.52-1.83-5.36,3.07,1.37.48,7.81,6.77,4.39,22.54-.09,45.13.3,67.66-.15a19.39,19.39,0,0,1,2.32-4.18c1.66-.08,3.95,1.05,4.83-1,1-9.24-1.14-18.78.9-27.89.36,9,.05,18,.35,27,5,2.92,12.1.63,17.83,1.14.07-9.28.37-18.58,0-27.85-6-.19-12.1,0-18.14-.3.36-5.69-.59-11.33-.67-17,.37,2.49.75,5,1.15,7.48.27,2,2.87,1.72,4.36,2.05,6.39,1,12.87.67,19.31.61,1.28,4.48,6.38,5.83,9.73,8.5,11.46,6.26,21.48,15,33.22,20.65C161.7,121.88,160.83,117.4,160.47,113.17Zm6.63-75.3c1,21.5-1.83,45.13,1.43,65.31l.06.49c-2.41,3.91-4.61,20.13,1.79,18.39-5.35,4-1.92,10.74,2.86,12.86-.31-1.94-3-3.82-.41-5.25.07.53.23,1.58.3,2.11,12.66.31,25.34.05,38,.05.1-1.89.38-4.17-1.74-5-.95-1.86-1.34-5.25-3.49-5.71-.5-6.12-3.9-11.91-6.82-17.31.39-1.89-.21-3.54-2.11-4.25.09-2.14-.53-5.87-2.64-6.56a10.72,10.72,0,0,0-2-7.33c-3.85-6.39-5.13-15.41-9.49-20.62-4.32-10.92-8.9-21.88-14.06-32.46C170,27.28,163.2,37.21,167.1,37.87Zm109,70c-1.27-.25-3.16.54-2.87,2.06,1.19,7.24.86,14.59,1,21.9q18,.16,36,0c0-.47-.05-1.42-.07-1.89,2.74,3.15,15,3.75,9.83-1.89,3.51-7.2,0-16.32,1.15-24.09-11.94.43-26.82-1.3-36.92.93C280.87,101.44,268.64,102.77,276.07,107.87Zm162.12-.09-1.95.08c-.4,8-.06,16-.07,24q18,.16,36,0c0-.48,0-1.45,0-1.93,3.47,2.65,8,2.21,12.09,2,0-2.44-2.53-3.51-4-5l2.84.06c.31-7.65.05-15.31,0-23-12-.14-24.07-.06-36.1,0,.29.52.86,1.58,1.14,2.11C445.42,102.1,431.29,102.56,438.19,107.78Zm53.92,0-1.87.09c.3,7.81-1.66,16.85,1.1,23.91,11.78-.49,25.64,1.68,36.19-1.18,3.85,3.42,15.5.7,7.42-3.42,5.32.39,1.47-8.83,3.21-11.29-.43-3.93,2-14-5.08-11.84l-.72.07c-10.46-.39-20.92-.27-31.37-.2l1.15,2.07C498.64,102.84,485.73,101.37,492.11,107.77Zm52.09-3.72c-.48,2,1.7,2.72,2.88,3.84h-2.87c0,7.71-.83,16,.6,23.32,11.3,1.58,23.63.33,35.33.62,0-.67-.07-2-.09-2.66,2.33,4,16.45,4,10-1.17,4.37.51.82-6.88,2.06-9.1-.36-4.88,1.54-10.87-1.2-14.9-12-.29-24-.09-35.93-.08.29.52.86,1.56,1.15,2.07C552.59,104,548.08,102.14,544.2,104.05Zm-291.07,12c-3.17.87-4.54,4.43-7.75,5.08-4.75,2.29-13.61,4.78-14.31,10.68,11.71-.29,24.05,1,35.38-.62,2.21-7.14-.09-15.77.63-23.33C261.36,107.43,257.09,113.1,253.13,116.06Zm345.68-4.53c-1.86,6-.74,13.71,0,19.67,8.83,2.19,19.13-.08,28.39.61-1.36-5.16-8.6-9.09-13.3-10.66-1.73-4.16-6.9-6.78-11-8.4C603.12,110.73,599.83,110.19,598.81,111.53Z"/><path class="cls-5" d="M99.25,88C118.93,62.76,138.87,37.55,159,12.77c.14,1.64.32,3.27.55,4.89-.41.95-.82,1.89-1.25,2.83-20.06,24-38.92,48.93-58.54,73.27l-2,2.42c-1.49-.33-4.09,0-4.36-2.05C95.93,92.75,97.46,90.19,99.25,88Z"/><path class="cls-6" d="M167.1,37.87c-3.9-.66,2.86-10.59,1.71-5.29-1.16,23.08-1,46.35-.21,69.43,0,.29,0,.87-.07,1.17C165.27,83,168.07,59.37,167.1,37.87Z"/><path class="cls-7" d="M692.17,69.87c3.61-1.76,16.7-1.72,19.64.18-6.24-.16-12.45-.2-18.67-.16Z"/><path class="cls-8" d="M724.17,69.88c6.48-2.4,17.71-.4,25.94-.95v9.9c-5.67.17-11.32-.12-17,.11,0,2.48,0,7.43,0,9.91.3,4.13,10.64-2.08,11,2-3.47,0-6.8.15-10.22.24-4.4-1.19-1.12-9.12-1.69-13.14,5.61-.19,11.25.11,16.89-.16a66.31,66.31,0,0,0-.05-7.85c-8-.2-15.95-.08-23.92,0Z"/><path class="cls-9" d="M755.14,69.87c3.74-1.32,17.75-2.31,20.72.1-6.6-.09-13.16-.11-19.73-.08Z"/><path class="cls-10" d="M627.15,69.9a78.5,78.5,0,0,1,8,0c.14,13.92-.25,27.84.12,41.75,1.65,2.32,6.54,2.11,8,.35l.25-.84c1.46-13.7.3-27.53.67-41.28a78.7,78.7,0,0,1,8,0c0,15,0,29.93,0,44.9-.64,1.51-1.23,3.58-2.9,4.19a121.87,121.87,0,0,1-18.11,1,10.48,10.48,0,0,1-4.23-5.84C627.39,99.4,627,84.64,627.15,69.9Z"/><path class="cls-11" d="M635.12,69.92c2.47,11.2.18,27,1,39.91.36,3.15,4.6,1.82,7.06,2.19-1.44,1.76-6.33,2-8-.35C634.87,97.76,635.26,83.84,635.12,69.92Z"/><path class="cls-11" d="M633.82,146.54c2.55-1.17,5.36-.62,8.16-.77-.33,15,1.41,32.63-.84,46.13-.22-15,.33-30-.14-44.89Z"/><path class="cls-11" d="M533.06,165.94a13.6,13.6,0,0,1-.23-10.34A89.14,89.14,0,0,1,533.06,165.94Z"/><path class="cls-12" d="M643.47,111.18c0-13.39-1.59-29.56.67-41.28C643.77,83.65,644.93,97.48,643.47,111.18Z"/><path class="cls-13" d="M659.13,119.87a246.26,246.26,0,0,1,0-50Q659.1,94.88,659.13,119.87Z"/><path class="cls-14" d="M659.14,69.89A50.11,50.11,0,0,1,667,70c2.9,7.5,6.08,15,8.07,22.81-.1,1.57,1.71,7.57,2.68,3.71,1.26-8.86-.8-18.05,1.26-26.78a38.65,38.65,0,0,1,4,.17q3.27,1.84,2.08,6c0,14.66.33,29.35-.08,44a13.45,13.45,0,0,1-7.9-1c-2.66-7.46-5.42-14.88-8-22.35a7.26,7.26,0,0,0-1.74-3.09c-.42,9.11-.17,18.23-.21,27.35-2.42-.51-7.32,1.46-8-1Q659.13,94.88,659.14,69.89Z"/><path class="cls-14" d="M677.12,146.9c8.29,0,16.57,0,24.88,0,.21,2.11.32,4.22.47,6.34-2.31,2-5.52,1.28-8.3,1.74-2.65,11.87,0,27.44-1.17,40.7-3.06,2.42-9.81.63-6.87-4.81-1-11.55,1.77-25.87-1-36C680.13,154.81,673.73,155,677.12,146.9Z"/><path class="cls-15" d="M677.13,84.88C678.9,81,673.94,70.94,679,69.73c-2.06,8.73,0,17.92-1.26,26.78-1,3.86-2.78-2.14-2.68-3.71C679.28,99,676.17,86.87,677.13,84.88Z"/><path class="cls-16" d="M683,69.9l3.12,0q0,25.46,0,50.93c-2.27-1.15-9.34,2.23-9-1.91a13.45,13.45,0,0,0,7.9,1c.41-14.65.06-29.34.08-44Q686.27,71.74,683,69.9Z"/><path class="cls-17" d="M686.12,69.93c2.35,14.9.39,34.32,1,50.94h-1Q686.15,95.39,686.12,69.93Z"/><path class="cls-17" d="M736.13,155.14l2.89,0,0,1.7A8.36,8.36,0,0,1,736.13,155.14Z"/><path class="cls-18" d="M692.17,69.87l1,0c.16,16.64-.33,33.3.11,49.93,6.59.15,13.21.12,19.81.05-4.69,2.5-14.44.36-20.89,1Q692.05,95.35,692.17,69.87Z"/><path class="cls-18" d="M754.19,196.9c.19-16.74-.92-33.56.75-50.23.5,16.75-.1,33.51.36,50.26Z"/><path class="cls-18" d="M747.13,150.94l1,.93q0,19.51,0,39l-1,1C747.11,178.25,747.14,164.59,747.13,150.94Z"/><path class="cls-19" d="M693.14,69.89c6.22,0,12.43,0,18.67.16a6.33,6.33,0,0,1,5.31,4.9c0,13.62,0,27.25,0,40.87a7.63,7.63,0,0,1-4.06,4.05c-6.6.07-13.22.1-19.81-.05C692.81,103.19,693.3,86.53,693.14,69.89Zm8,13c0,10-.08,20,.06,30l6-.9,2-1.08c2-7.79,1.45-23.17,0-31l-1-1C707.3,76.34,696.3,76.25,701.11,82.88Z"/><path class="cls-19" d="M708.19,147c2.62-.13,5.26-.17,7.92-.1,0,16.66,0,33.33,0,50q-4,.18-8,0C708.18,180.21,708,163.59,708.19,147Z"/><path class="cls-20" d="M724.17,69.88l1,0c.16,16.63-.33,33.29.11,49.91,7.94.06,15.92.43,23.87-.06,4.14-12.11-10.73-4.25-16.3-7.57a171.55,171.55,0,0,1,17.28-.26c-.11,2.94.25,6-.05,8.91-8.64.11-17.27.14-25.88,0Q724.05,95.36,724.17,69.88Z"/><path class="cls-21" d="M725.14,69.9c8,0,15.93-.16,23.92,0a66.31,66.31,0,0,1,.05,7.85c-5.64.27-11.28,0-16.89.16.57,4-2.71,12,1.69,13.14,3.81,2,14.58-2.8,11.25,5.79-.16,5.14-9,0-12.39,2.66-.58,4-1.86,8.8.05,12.64,5.57,3.32,20.44-4.54,16.3,7.57-8,.49-15.93.12-23.87.06C724.81,103.19,725.3,86.53,725.14,69.9Z"/><path class="cls-21" d="M327,224.18c13.77-.89,27.61.1,41.41-.44-.93,5.73,2.85,9.88,3.75,15-3.25-.67-7.65-2-6.08,3,.25,1.62.7,3.21,1.07,4.82-1.85.77-3.65,1.66-5.42,2.6-8.49,4.27-16.71,9.09-25.42,12.89-3.27,1.17-12.75-3.46-9.25,4.84.79,49.36-1.75,100.86,1.06,148.89l2,.2c.57,34.33-1.06,69.08.74,103.17,17.47,1.73,35.48.3,53.17.71-1.92,6.32-5.21,12.07-8,18q-24.46,0-48.93,0a14.88,14.88,0,0,1-8.55-4.29,36.62,36.62,0,0,0-4.23-5,7.24,7.24,0,0,1-2.21-4.7q0-142.53,0-285.06c.48-5.54,5-11.11,10.29-13A18.57,18.57,0,0,0,327,224.18Zm4.09,18.71c-2.51,2.35-1.72,19.18.62,17.3,1.6-1.21,4.58-1.43,5.27-3.35,5-1.36,9.83-4.44,14.24-6.95,4.35-1.25,8.47-3.9,12.28-6.28l.51-1.63C353.36,242.25,340.17,240.65,331.13,242.89Z"/><path class="cls-22" d="M755.14,120.8c-1.58-14.38-1.86-36.34,0-50.93Q755.11,95.33,755.14,120.8Z"/><path class="cls-23" d="M755.14,69.87l1,0c.18,16.66-.33,33.33.12,50,12.6,4.72,3.47-12.35,7.89-16,.06,5.66.08,11.32-.06,17-3.11,0-5.92.21-8.94,0Q755.11,95.33,755.14,69.87Z"/><path class="cls-24" d="M756.13,69.89c6.57,0,13.13,0,19.73.08,1.94,1.32,4.47,2.66,5.26,5-1.36,9,3.61,20.2-3.57,27.43.06,1.17.16,3.52.21,4.69,1.46,4.79,8,16.5-1.64,13.86-9,0-1.66-19-12-17.07-4.42,3.66,4.71,20.73-7.89,16C755.8,103.22,756.31,86.55,756.13,69.89Zm8,9c1.43,6-5,20.34,7.09,16.12,4.88-.91,1.24-14,.87-16.12C771.55,77.17,764.64,77.17,764.17,78.9Z"/><path class="cls-24" d="M462.05,147.8c5.54-1.6,11.36-.82,17.05-.93,1.71.82,4.6,1.51,4,4q0,20.52,0,41a2.65,2.65,0,0,1-2.06,3.1,6.17,6.17,0,0,0-2.91,1.69c-4.69.11-9.33.22-14,.19a6.74,6.74,0,0,1-5.05-5.07c0-13.32,0-26.64,0-40C458.81,149.93,460.57,148.62,462.05,147.8Zm5.18,7.16c.3,10.75-1.37,23.69.93,33,.72,2.12,8.83,2.22,8-2.1-.66-9.63,1.37-22-1-30L469,154.74Z"/><path class="cls-24" d="M491.2,146.83a69.41,69.41,0,0,1,8,.87c2.53,7.22,5.3,14.35,8,21.49a4.41,4.41,0,0,0,1.81,4c.33-8.87.11-17.76,0-26.63l8,.44c.45,16.61-.06,33.26.12,49.89-3.81.65-7.43.55-8.92-3.21-2.94-6.17-4.12-13-7.12-19.14a4.44,4.44,0,0,0-1.81-4c-.52,8.57.49,17.31-.67,25.8a54.8,54.8,0,0,1-7.45.55C491.17,180.21,491,163.51,491.2,146.83Z"/><path class="cls-24" d="M554.13,147c8-.5,15.92-.12,23.89-.06.13,1.79.4,5.36.53,7.15a10,10,0,0,1-7.39.87c-2.49,12.15-.31,28.23-1,41.89-2.69.12-5.35.11-8,0-.62-14,1.18-28.62-.74-42.2C556.85,153.09,551.05,154.94,554.13,147Z"/><path class="cls-24" d="M584.21,147c6.94-.21,13.89-.13,20.86-.09a5.13,5.13,0,0,1,4,4.07c0,8,0,15.9,0,23.86l-.06.84c-1.69,1.72-5.17,3.48-3.4,6.35a111.92,111.92,0,0,1,3.57,10.9c1.77,6.2-7.75,5.47-9,.79-1.07-4-2.09-7.95-3-12l-5-1.85c-.17,5.69-.1,11.39-.1,17.09-2.7-.45-7.36,1.28-7.93-2.15C584,178.87,584.07,162.91,584.21,147Zm8,24.84c2.15-.57,8.36,2.49,8-.89,1.32-3.92,4.78-20.95-7-16C589.86,157.83,593.3,167.08,592.17,171.81Z"/><path class="cls-25" d="M781.12,75c2.47,4.69.3,14.46,1,21,.57,4.53-5,6.57-4.41,11.17,0-1.17-.15-3.52-.21-4.69C784.73,95.15,779.76,83.9,781.12,75Z"/><path class="cls-26" d="M52.34,76c10.37-.84,20.71.52,31.07.65,4.64,1.28,7.67,5.5,8.8,10,.08,5.68,1,11.32.67,17-2,9.11.06,18.65-.9,27.89-.88,2-3.17.9-4.83,1-4.64-.52-9.31-.43-14-.83-.37-12.25.25-24.51-.16-36.76-7.3-.18-14.6-.13-21.9,0C51.74,88.74,49.5,81.41,52.34,76Z"/><path class="cls-27" d="M701.11,82.88c-4.81-6.63,6.19-6.54,7-4l-5.88.2c-.12,10.9-.37,21.82,0,32.72,1.62.15,3.26.18,4.91.21l-6,.9C701,102.87,701.14,92.87,701.11,82.88Z"/><path class="cls-28" d="M764.17,78.9c.47-1.73,7.38-1.73,8,0Q768.11,78.88,764.17,78.9Z"/><path class="cls-29" d="M772.13,78.9c.37,2.07,4,15.21-.87,16.12C773.06,89.84,771.83,84.24,772.13,78.9Z"/><path class="cls-30" d="M709.13,79.87c1.45,7.84,2,23.22,0,31Q709.12,95.37,709.13,79.87Z"/><path class="cls-31" d="M733.91,91.09c3.42-.09,6.75-.2,10.22-.24,4.63-1,1.3,6.27,1.92,9-4.45,0-8.89.36-13.28-.32,3.43-2.7,12.23,2.48,12.39-2.66C748.49,88.29,737.72,93.11,733.91,91.09Z"/><path class="cls-32" d="M194.33,93c2.11.69,2.73,4.42,2.64,6.56-4,4.53-8,9.16-10.73,14.61-2.4,2.83-4.77,5.68-7.09,8.58a42,42,0,0,0-6.32,6.93c-2.58,1.43.1,3.31.41,5.25-4.78-2.12-8.21-8.82-2.86-12.86A33.63,33.63,0,0,0,173.3,118c1.93-2.81,4.13-5.41,6.15-8.15,1.82-2.26,3.79-4.39,5.72-6.55A64,64,0,0,0,189.22,98C191,96.4,192.72,94.76,194.33,93Z"/><path class="cls-33" d="M667.33,93.51a7.26,7.26,0,0,1,1.74,3.09c-2.89,7.17,1.38,18.78-2,24.26C667.16,111.74,666.91,102.62,667.33,93.51Z"/><path class="cls-34" d="M.29,96.21c1.38-3,5.89.07,7.83-1.39,13.76.1,27.53-.09,41.29.3C34,97.31,17.92,94.43,2.82,96.55c-4.14,9.71-.69,22.43-1.57,33.16,3,1.08,6.67.49,9.15,2.76,0,1.84-1.06,5.35,1.83,5.36,38.57.07,77.14.14,115.7-.06l6.43.89c-3,.07-6,.2-9.06.3Q67.66,138.78,10,139l-1.13-1.06c.58-5.36-2.06-7.81-8.23-6.62C-.43,119.67.13,107.88.29,96.21Z"/><path class="cls-35" d="M49.41,95.12l1.73-.2c7.3-.11,14.6-.16,21.9,0,.41,12.25-.21,24.51.16,36.76,4.64.4,9.31.31,14,.83a19.39,19.39,0,0,0-2.32,4.18c-22.53.45-45.12.06-67.66.15-6.29,3.42-3.7-3-6.77-4.39-2.48-2.27-6.14-1.68-9.15-2.76C2.13,119-1.32,106.26,2.82,96.55,17.92,94.43,34,97.31,49.41,95.12Z"/><path class="cls-36" d="M186.24,114.16C189,108.71,193,104.08,197,99.55c1.9.71,2.5,2.36,2.11,4.25C192.7,100.8,191.19,111.63,186.24,114.16Z"/><path class="cls-37" d="M732.82,112.18c-1.91-3.84-.63-8.68-.05-12.64A68.42,68.42,0,0,1,732.82,112.18Z"/><path class="cls-38" d="M276.07,107.87c-7.43-5.1,4.8-6.43,8.09-3,6.9,4.51,13.74,9.17,20.92,13.24.95.62,1.92,1.22,2.9,1.82,3.86,2.87,7.91,5.49,11.95,8.1,5.14,5.64-7.09,5-9.83,1.89a77.61,77.61,0,0,0-8.93-5.25c-.95-.62-1.9-1.22-2.85-1.82a54.69,54.69,0,0,0-14.34-9l-2.67-2.07C279.63,110.38,277.84,109.13,276.07,107.87Z"/><path class="cls-39" d="M438.19,107.78c-6.9-5.22,7.23-5.68,9.94-1.76,10.76,6.84,21.49,13.75,32.08,20.81,1.51,1.5,4,2.57,4,5-4.1.25-8.62.69-12.09-2-1.2-.76-2.39-1.52-3.62-2.21-2.13-1.2-4.26-2.38-6.28-3.75a16.82,16.82,0,0,0-8.17-5.07,55.34,55.34,0,0,0-7-5c-1.55-1.08-3.16-2.07-4.79-3C440.9,109.84,439.57,108.77,438.19,107.78Z"/><path class="cls-40" d="M492.11,107.77c-6.38-6.4,6.53-4.93,10-1.79,5,3.07,9.89,6.17,15,9.06A104.63,104.63,0,0,0,528,121.9a49.89,49.89,0,0,0,7,5.27c8.08,4.12-3.57,6.84-7.42,3.42-1-.62-2-1.2-3.08-1.76-10.57-6.55-21.11-13.22-31.33-20.29Z"/><path class="cls-41" d="M544.2,104.05c3.88-1.91,8.39,0,11.94,1.93,4,2.37,7.84,5,12,7.14,5.59,3.62,11.34,7,16.77,10.92,1.67,1.37,3.38,2.72,5.18,3.95,6.44,5.19-7.68,5.13-10,1.17l-1.63-.32c-5.16-3.18-10.19-6.57-15.22-10A74,74,0,0,0,555,114c-1.33-1-2.63-2-3.95-3s-2.65-2-4-3C545.9,106.77,543.72,106,544.2,104.05Z"/><path class="cls-42" d="M168.59,103.67a49.74,49.74,0,0,1,.59,5.32c-1.81,5-2.5,14.77,4.12,9a33.63,33.63,0,0,1-2.92,4.11C164,123.8,166.18,107.58,168.59,103.67Z"/><path class="cls-43" d="M329.79,107.79c-5.51-5.65,6.15-4.77,9.23-2.1,4.6,2.89,9.13,6,14.08,8.28,5.48,5,12.5,8,18.1,13,3.1,2.72,7.5.67,11.06.71l.84,2.16c.35,2.66.78,5.3,1,8-.59,2.6-2.48,9.29,1.95,7.44l.74-.27c8.37,1.08,5.61,12.65-2.53,9.8-6.48-.72-13.87-2-19.94.14l-.85,1c-2.41-1.1-5-1.83-7.28-3.21-2.3-4.64,2.27-6.27,5.2-7.72,3,1.82,3.9-1.34,3.71-3.86-.43-3.61.48-7.79-.74-11.08-4.91-3.33-9.63-7.3-15.36-9.08-.89-.69-1.76-1.38-2.63-2.07a19.65,19.65,0,0,0-6.2-4.1C336.77,112.27,333.3,110,329.79,107.79Z"/><path class="cls-44" d="M384,107.82c-7.28-5.29,6.84-4.95,10.07-1.85,2.25,1.41,4.52,2.8,6.86,4.07,8,6.2,17.16,10.83,25.36,16.81,7.6,5-4.48,7.25-8.09,3-3.85-2.56-7.67-5.33-12-6.94a33.79,33.79,0,0,0-12.1-8c-2-1.36-3.9-2.77-5.85-4.13C386.8,109.76,385.37,108.81,384,107.82Z"/><path class="cls-45" d="M253.13,116.06c4-3,8.23-8.63,13.95-8.19-.72,7.56,1.58,16.19-.63,23.33-11.33,1.57-23.67.33-35.38.62.7-5.9,9.56-8.39,14.31-10.68-2.91,4.4-8.25,5.63-11.52,9.62,10.35-1.44,20.7.72,31.05,0,1.74-5.9,2.89-14.87,0-20.89C260.43,110.69,257.78,115.36,253.13,116.06Z"/><path class="cls-46" d="M602.91,112.75c4.09,1.62,9.26,4.24,11,8.4A28.77,28.77,0,0,1,602.91,112.75Z"/><path class="cls-47" d="M447,113.88a55.34,55.34,0,0,1,7,5A10.86,10.86,0,0,1,447,113.88Z"/><path class="cls-48" d="M555,114a74,74,0,0,1,8.18,4.9A20.71,20.71,0,0,1,555,114Z"/><path class="cls-49" d="M340.13,114.73a19.65,19.65,0,0,1,6.2,4.1A7.85,7.85,0,0,1,340.13,114.73Z"/><path class="cls-50" d="M394.05,114.89a33.79,33.79,0,0,1,12.1,8C401.31,121.69,397.81,117.85,394.05,114.89Z"/><path class="cls-51" d="M454.09,118.85a16.82,16.82,0,0,1,8.17,5.07A15.76,15.76,0,0,1,454.09,118.85Z"/><path class="cls-52" d="M591.19,118.87l.93,0c-1.24,2.22,2.31,9.61-2.06,9.1-1.8-1.23-3.51-2.58-5.18-3.95C589.53,125.85,594,127.22,591.19,118.87Z"/><path class="cls-53" d="M151.28,128.77c8.5.81,13.2,10.29,21.61,9.88.63.79,1.28,1.56,2,2.32,4.61,4.53,8.92,9.35,13.15,14.22,1,1.05,2.12,2,3.21,3,.12,3.23.63,6.52.18,9.77q-2-1.17-4.1-2.3a120.35,120.35,0,0,0-9.22-9.67c-3.59-4.07-4.49-9.73-9.87-10.05-.83,4.23-2.7,8.95-.23,12.94-.22,4.35-.91,8.77,0,13.07l-.95,1.82c-1.92,1.43-3.91,2.77-5.82,4.22-.19-10.1-.15-20.23-.76-30.35-.17-2.9-.15-5.77-.48-8.64-8.54,0-17.07-.94-25.61-.34l-6.43-.89c1.86-1.89,3.79-3.72,5.51-5.75C137.65,130.21,152.38,135.34,151.28,128.77Z"/><path class="cls-54" d="M640.46,130.47a5.26,5.26,0,0,1,1.69,8.46q-128-.12-255.92,0c-3.25.27-2.56,5-.22,6.29-4.43,1.85-2.54-4.84-1.95-7.44,85.58.12,171.17.31,256.74-.09C643.69,136.26,640.81,132.72,640.46,130.47Z"/><path class="cls-55" d="M191.36,138c3.87-1.69,6.27-6.4,11.09-4.22,8.36,1,22.89-5.15,25.81,5.91-6.15,3.45-14.63-4.28-18.09,3.07,7.38,11.2-.17,26.17,3.75,38.33,11.48,1.84,25,.43,37.22.69-.16-1.55-.5-4.63-.67-6.18-1.13-4.85-2.36-9.66-3.56-14.48,0-4.14-.91-8.11-1.77-12.1,1.13-.87,2.25-1.72,3.39-2.57,3.47,16,8.88,31.85,7.66,48.45a51,51,0,0,1-1.05,8.79c-.61,1.47-1.13,3-1.86,4.4-19.06-.75-38.17.59-57.19-.91-1.67-.05-3,1.38-3.53,2.85-1.37-4.47,1.74-10.89-2.24-14.25l1-6.73a67.73,67.73,0,0,0,.63-16.09,44.42,44.42,0,0,0,6.26,1.94c.18-2.54-1-4.83-1.92-7.1,2.32.69,4.6,1.56,7,2.08-.37-3.88-2.54-7.4-5.1-10.22-.23,2.83,1.58,5.09,2.91,7.4-2.69-1-5.24-2.48-8-3.28.12,3,1.62,5.71,2.93,8.36-1.48-.76-2.89-1.62-4.3-2.47-.07-.43-.22-1.29-.29-1.72.45-3.25-.06-6.54-.18-9.77C192,151.56,193.29,144.55,191.36,138Z"/><path class="cls-56" d="M172.89,138.65c6.08-1.15,12.32-.72,18.47-.64,1.93,6.54.62,13.55-.16,20.18-1.09-1-2.19-1.95-3.21-3,6.59-.34,1.93-10.06,2.87-15-3.41-1.88-14-3.24-16,.82C174.17,140.21,173.52,139.44,172.89,138.65Z"/><path class="cls-57" d="M246.4,138.91c38.93-1.73,79.4-1.72,117.64,0-37.61,0-75.23-.12-112.84,0-4.06.27-.19,6.12-.88,7.8,2.53,16,9.6,31.68,6.79,48.12l-.92,0c1.22-16.6-4.19-32.46-7.66-48.45A40.35,40.35,0,0,0,246.4,138.91Z"/><path class="cls-58" d="M210.17,142.77c3.46-7.35,11.94.38,18.09-3.07,5.16-1.1,10,2.72,15.29,1.77.65,2.46,1,5,1.59,7.56.86,4,1.8,8,1.77,12.1-.88-2.93-1.74-5.86-2.72-8.74-.33-1.51-.69-3-1-4.49,1.74-6.32-4.09-6.74-9-6-3,0-5.88,0-8.82.11l-11.18,0c-.21,7-.13,13.93-.05,20.91q0,9.1-.24,18.24C210,168.94,217.55,154,210.17,142.77Z"/><path class="cls-59" d="M214.21,142l11.18,0-.43.86c-3.14,1.12-7.67-1.11-9.12,2.8-1.47,5.2-.26,11.05-.59,16.47l-.12.9-1-.14C214.08,155.88,214,148.91,214.21,142Z"/><path class="cls-60" d="M225.39,142c2.94-.09,5.85-.12,8.82-.11-3.7,7.35,3.6,6.13,9,6,.31,1.49.67,3,1,4.49-2.2,7.59,1.84,15,2.8,22.46-4.61.09-9.21,0-13.81.11,4.16-7.55,12.57-17.55,6.87-26.19-2.83,9-9,16.9-12,26,1.71.12,3.43.16,5.15.18-1.21,1.66-2.31,3.41-3.42,5.14-1.22-.09-2.44-.16-3.66-.2,3.3-3.84.43-5.61-3.82-5.23-.95-7.33-1-14.77-2.22-22.07.63-1.33,1.23-2.67,1.9-4,.11,6.48,0,13,.29,19.46a134.56,134.56,0,0,0,9.31-17.81c2.71-5.16-6.77-2-9.6-1.65,1-1.94,2.08-3.82,3-5.79Z"/><path class="cls-61" d="M234.21,141.86c4.89-.7,10.72-.28,9,6C237.81,148,230.51,149.21,234.21,141.86Z"/><path class="cls-62" d="M215.84,145.63c1.45-3.91,6-1.68,9.12-2.8-.92,2-2,3.85-3,5.79-.67,1.31-1.27,2.65-1.9,4-1.75,3.09-3.33,6.27-4.81,9.5C215.58,156.68,214.37,150.83,215.84,145.63Z"/><path class="cls-63" d="M352.21,144.93c2.93-1.27,6.11-.76,9.14,0-2.93,1.45-7.5,3.08-5.2,7.72,2.28,1.38,4.87,2.11,7.28,3.21l-.37.8a34.51,34.51,0,0,1-2.83,2.43c-4.05.81-7.57-.26-10-3.4A8.78,8.78,0,0,1,352.21,144.93Z"/><path class="cls-64" d="M386.75,144.94a15.13,15.13,0,0,1,7.25-1l1.1,1.18a7.69,7.69,0,0,0,2.93,2.73c2.17,6.65-2.78,13.48-10,11.25-1-.72-1.89-1.55-2.8-2.34-.25-.51-.75-1.53-1-2C392.36,157.59,395.12,146,386.75,144.94Z"/><path class="cls-65" d="M395.1,145.14l1.53-.24q2.24.84,1.4,3A7.69,7.69,0,0,1,395.1,145.14Z"/><path class="cls-66" d="M168.19,145.94c5.38.32,6.28,6,9.87,10.05-2.66-2.24-4.75-5.26-7.79-7-3.15,2.3-1.94,6.48-2.31,9.88C165.49,154.89,167.36,150.17,168.19,145.94Z"/><path class="cls-67" d="M430,147.79a2.73,2.73,0,0,1,2.14-1.89c4.86-.06,9.7-.05,14.58-.16l.35,1C441.41,147,435.59,146.23,430,147.79Z"/><path class="cls-68" d="M462.05,147.8a2.7,2.7,0,0,1,2.13-1.9c4.57-.06,9.12-.05,13.71-.11l1.21,1.08C473.41,147,467.59,146.2,462.05,147.8Z"/><path class="cls-69" d="M490.18,145.92c1.43,1.84,9.58-2.57,9,1.78a69.41,69.41,0,0,0-8-.87c-.22,16.68,0,33.38-.05,50.07l-1,0Q490,171.44,490.18,145.92Z"/><path class="cls-70" d="M509,146.58a21.74,21.74,0,0,1,9-.7c.25,17,0,34.05.06,51.07l-1,0c-.18-16.63.33-33.28-.12-49.89Z"/><path class="cls-71" d="M529.31,146c4.83-.13,9.64-.15,14.49-.33l.32,1.12c-5,.06-10,.08-15,.15Z"/><path class="cls-72" d="M553.17,146c8.64-.23,17.29-.2,26,0a42.93,42.93,0,0,1-.57,8.15c-.13-1.79-.4-5.36-.53-7.15-8-.06-15.94-.44-23.89.06-3.08,7.93,2.72,6.08,7.26,7.63C554.46,156.32,550.78,153.71,553.17,146Z"/><path class="cls-73" d="M583.41,145.55c7.23.4,14.48.36,21.74.36l-.08,1c-7,0-13.92-.12-20.86.09-.14,15.94-.19,31.9,0,47.85.57,3.43,5.23,1.7,7.93,2.15.1,2.3-7.34,1.55-8.85-.34C583.11,179.61,582.85,162.56,583.41,145.55Z"/><path class="cls-74" d="M616.81,146.54c2.57-1.34,5.42-.48,8.23-.66.24,13.73.15,27.47-.15,41.2-1.65-13.28-.27-26.68-.84-40Z"/><path class="cls-75" d="M653.19,146.89c2-1.25,14-2.51,15.88,0C663.75,146.86,658.49,146.84,653.19,146.89Z"/><path class="cls-76" d="M684.07,156c-8.2,4.25-10-7.08-7-10.09l0,1c-3.39,8.12,3,7.91,8,8,.09,13.93,0,27.86.06,41.79C682.68,185.72,684.94,169.11,684.07,156Z"/><path class="cls-77" d="M677.09,145.92c7.3,1.09,19.66-2.19,24.91,1-8.31,0-16.59,0-24.88,0Z"/><path class="cls-78" d="M707.18,145.92c2.86-.07,6-.18,9,0l0,1c-2.66-.07-5.3,0-7.92.1-.2,16.62,0,33.24-.05,49.87C705.79,182,707.72,162.53,707.18,145.92Z"/><path class="cls-79" d="M716.13,145.92c1.55,14.45,1.84,36.43,0,50.94,0-16.66,0-33.33,0-50Z"/><path class="cls-80" d="M727.19,146.89c2-1.26,14-2.5,15.88,0C737.74,146.86,732.48,146.83,727.19,146.89Z"/><path class="cls-81" d="M753.19,145.94l1.84-.19-.09.92c-1.67,16.67-.56,33.49-.75,50.23C751.73,181.87,753.74,162.59,753.19,145.94Z"/><path class="cls-82" d="M755,145.75c12.14-2.89,10.86,13.49,14.88,21.15.94,2,.14,6.14,3.18,6.11.18-8.71-.15-17.41.11-26.11a60.82,60.82,0,0,1,7.87,0c.18,16.67,0,33.34,0,50-3.82.58-7.41.47-8.91-3.27a121.9,121.9,0,0,1-4.75-13.1c-.78-2.57-1.51-5.16-2.27-7.73-.37-1.87-1.32-4.34-2.89-1.72-.34,8.59-.12,17.18-.32,25.78H755.3c-.46-16.75.14-33.51-.36-50.26Z"/><path class="cls-82" d="M649.13,150.94a7.56,7.56,0,0,1,4.06-4.05c5.3,0,10.56,0,15.88,0a7.78,7.78,0,0,1,4.07,4.07q0,6,0,12c-6.52,2.13-7.51-1.22-7.7-6.37-1.67-2.9-5.83-2.3-8.33-.8-1.82,9.57-1.29,21.29-.29,31.48.28,3.22,8.26,2.68,8.57-.05-1.52-6.73,2.85-7.1,7.72-6.31l.08,10.91a7,7,0,0,1-5.08,5.08c-6,0-12.41,1-17.8-2.21a2.68,2.68,0,0,1-1.16-2.79C649.15,178.24,649.09,164.59,649.13,150.94Z"/><path class="cls-82" d="M724.05,149.8c.69-1.19,1.67-2.71,3.14-2.91,5.29-.06,10.55,0,15.88,0a7.75,7.75,0,0,1,4.06,4.06c0,13.65,0,27.31,0,41,.25,2.77-2.94,4.09-5.08,5-4.65,0-9.25,0-13.87,0a6.64,6.64,0,0,1-5.05-5.05C724,177.87,721.46,163.58,724.05,149.8Zm7.08,6.1c-2.39,7.73-1.19,24.48,0,31.76,1.44,1.64,8.24,3.16,8,.29,2.44-8.4,1.11-25.33-.15-32.77l-2.89,0-1.81-.34C732.49,154.41,731.43,154.77,731.13,155.9Z"/><path class="cls-83" d="M772.21,145.9h9.87c-.67,16.63,1.55,35.92-1,51.07,0-16.68.14-33.35,0-50a60.82,60.82,0,0,0-7.87,0c-.26,8.7.07,17.4-.11,26.11-3,0-2.24-4.09-3.18-6.11a16.71,16.71,0,0,1,2.26,2.12C772.26,161.31,771.87,153.6,772.21,145.9Z"/><path class="cls-84" d="M430,147.79c5.55-1.56,11.37-.83,17.07-1,7,1.93,4.91,10.61,5,16.08h-7.76c.78-5.46-3-11.27-8.49-7.27-1.5,10-.52,20.2-.73,30.27-.56,4.3,6,4,8.33,2.35-.08-5,.62-10.79,7.65-8.41,2.57,3.64,2.37,15.89-4.95,17.12-5.38-.09-10.8.21-16.06-1.06-1.75-.42-2.32-2.59-2.94-4.06,0-13.29-.05-26.58,0-39.87C427.76,150.44,428.35,148.37,430,147.79Z"/><path class="cls-85" d="M508.3,146.78l.72-.2c.08,8.87.3,17.76,0,26.63a4.41,4.41,0,0,1-1.81-4C508.92,161.83,507.63,154.23,508.3,146.78Z"/><path class="cls-86" d="M524.15,151.94a6.62,6.62,0,0,1,5-5c5-.07,9.94-.09,15-.15l.9.06c5.86,4.74,7.63,20.17-3.94,15.94a8.2,8.2,0,0,0-.5-6.83c-1.84-1.51-6.1-1.87-7.75-.32a13.6,13.6,0,0,0,.23,10.34c4.86,2.28,10.38,2.64,15.26,4.89,1.11,6.94.86,14,.8,21-.5,1.66-2.11,2.68-3.21,3.93-6.12,1.19-12.58,2-18.58,0l-1.1-.9c-1.85-4.43-2.07-9.25-2.19-14,6.36-1.79,9.19.32,8.81,6.41,6,7.68,12.39-4.59,7.34-9.39-5.19-2.46-11.23-3-16.05-6.16C524.13,165.1,524.07,158.53,524.15,151.94Z"/><path class="cls-87" d="M545,146.81c6.38.8,5.19,9.61,5.16,14.08.65,4.71-8.07,4-9.1,1.86C552.65,167,550.88,151.55,545,146.81Z"/><path class="cls-88" d="M616.14,192c.33-15.15-.88-30.44.67-45.48.56,15.09.29,30.19.28,45.29Z"/><path class="cls-89" d="M616.81,146.54l7.24.53c.57,13.33-.81,26.73.84,40-.18,1.67,1.63,2.31,3,2.2,2.11.2,4.67.08,6.11-1.7.29-13.68.27-27.37-.18-41L641,147c.47,14.94-.08,29.92.14,44.89.28,2.79-2.95,4.06-5.07,5-6.57.21-14.28,1.58-19-4.15l0-.92C617.1,176.73,617.37,161.63,616.81,146.54Z"/><path class="cls-89" d="M706.27,223.94c21-.14,41.92,0,62.89-.06,7.1,1.81,13.77,7.46,15,15-.11,94.56.17,189.13-.14,283.69a31.09,31.09,0,0,0-2,6.34c-2.48,4.75-7.71,7.75-12.8,9q-69.49,0-139,0c-11.06.66-22.56-1.36-33.39.66-1,8.58-.77,17.41-1.11,26.12a29.3,29.3,0,0,0,.21,6.55l.4,2.29c-1.89,7.63-.83,15.52-1.24,23.3-27.95,0-55.91.23-83.85-.06-.21-12.3,0-24.6,0-36.89,4.26,0,8.54,0,12.83.06.42,15.29,17.22,27.57,31.79,22.91,2.59-.86,8.6-2.05,7.44-5.27,2.14-1,5.39-2,5.35-4.94,4.16-3.94,5.42-8.21.39-11.5-5.36,1.49-7,7.34-11.12,10.44-4.79,2.12-10.16.15-15.15,1.18-1.47-2.16-5.93-10.59-5.63-3.89-2.25-2.51-2.75-6-3.16-9.17,8-.44,16.06.7,24.1.14.81-3.74,2.06-7.28,5.6-9.18-1.11,3.27,3.37,1.33,3.86,3.86-3.57-2.39-10.19,1.78-6,5.25,4.72,5.18,9.87-9.13,8.17-.56,6.68,1.84,17.3.24,25.44.6.13-7.16.29-14.33,0-21.47-9,.9-18.8-1.92-27.13,2.21,4.38,1.66,9.31,6.71,6.14,11.54a19.71,19.71,0,0,0-11-12.9c2.22-3.45-7.1-.31-8-4.14,1.43-2,7.22-2.13,2.84-4,1.7-3.71,3.48-7.39,5.28-11,1.4-.24,2.81-.5,4.21-.78q14.71-.6,29.48-.22c1.75.84,5.78,5.25,4.64.85,13.93-.5,28,1.13,41.87-.65,1.13-.07,2.28-.1,3.43-.1,1,.4,1.92,1.22,3.06,1.28,38.45-1.53,77.13.75,115.49-1.16,1.22-92,1.17-184.71,0-276.66-22.33-1.54-44.84-.22-67.23-.65C700,235.55,704,230.09,706.27,223.94Z"/><path class="cls-90" d="M633,186.59c.73-13.33-.91-26.83.79-40.05.45,13.67.47,27.36.18,41-1.44,1.78-4,1.9-6.11,1.7A34.42,34.42,0,0,0,633,186.59Z"/><path class="cls-91" d="M160.45,147.64c.61,10.12.57,20.25.76,30.35-.17,5.91-.27,11.82-.05,17.74-.19,3.11,2.13,6.18.13,9.07-.36,30.11-.12,60.25-.1,90.37l-1-.38c-.76-30.32,1.11-61-.91-91.07-2.26-2.06,2-2.09.83-4.85.21-11.67-.61-23.32-.89-35a25.52,25.52,0,0,0,.68-2.81C160.38,156.62,160.24,152.11,160.45,147.64Z"/><path class="cls-92" d="M222,148.62c2.83-.32,12.31-3.51,9.6,1.65a134.56,134.56,0,0,1-9.31,17.81C222,161.59,222.07,155.1,222,148.62Z"/><path class="cls-93" d="M398,147.87c3.4-.18.44,6.14.72,8.44-2.29,12.8-1.05,25.86-2.75,38.72-2-5.41-8.28-4.77-12.84-3.13,1.58-3.38,5.81-2.45,8.79-2.2,2.11-9.55,1.24-19.73,2.09-29.5l-6-1.08C395.25,161.35,400.2,154.52,398,147.87Z"/><path class="cls-94" d="M228,174.78c3.06-9.11,9.19-17,12-26,5.7,8.64-2.71,18.64-6.87,26.19C231.46,174.94,229.74,174.9,228,174.78Z"/><path class="cls-95" d="M722.24,151.07c.46-.31,1.36-.95,1.81-1.27-2.59,13.78-.06,28.07-.91,42C720.83,180.39,722.62,164.27,722.24,151.07Z"/><path class="cls-96" d="M483.14,150.86l1,2c0,12.66,0,25.33,0,38l-1,1Q483.11,171.38,483.14,150.86Z"/><path class="cls-97" d="M609.12,151c1,5.05,2.74,18.78,0,23.86C609.15,166.85,609.13,158.9,609.12,151Z"/><path class="cls-98" d="M648.13,151.86l1-.92c0,13.65,0,27.3,0,41l-1,0Q648.12,171.87,648.13,151.86Z"/><path class="cls-99" d="M673.14,151c1.24.88,2.61,10.65,0,12Q673.12,156.95,673.14,151Z"/><path class="cls-100" d="M427.14,191.81c-1.7-10.77-1.72-29.09,0-39.87C427.09,165.23,427.13,178.52,427.14,191.81Z"/><path class="cls-101" d="M459.14,191.81c-1.7-10.84-1.71-28.86,0-40C459.14,165.17,459.1,178.49,459.14,191.81Z"/><path class="cls-102" d="M524.14,171.69c-1.68-3.36-1.82-16.05,0-19.75C524.07,158.53,524.13,165.1,524.14,171.69Z"/><path class="cls-102" d="M475.13,155.89c2.38,8,.35,20.37,1,30,.85,4.32-7.26,4.22-8,2.1l6.48-.63C475.72,176.93,474.91,166.36,475.13,155.89Z"/><path class="cls-103" d="M648.13,191.86c-1.69-11-1.7-28.91,0-40Q648.13,171.87,648.13,191.86Z"/><path class="cls-104" d="M748.13,151.87c2.2,11.12.58,26.22.94,39l-.94.06Q748.12,171.38,748.13,151.87Z"/><path class="cls-105" d="M215.25,162.1c1.48-3.23,3.06-6.41,4.81-9.5,1.25,7.3,1.27,14.74,2.22,22.07-2.17-5.64-3.84,1.63-6.26,4.6-1.76-5-.51-11-.89-16.27Z"/><path class="cls-106" d="M247,174.85c-1-7.46-5-14.87-2.8-22.46,1,2.88,1.84,5.81,2.72,8.74,1.2,4.82,2.43,9.63,3.56,14.48,1.38,10.77-14.56,3.36-20.71,4.49,1.11-1.73,2.21-3.48,3.42-5.14C237.78,174.81,242.38,174.94,247,174.85Z"/><path class="cls-107" d="M484.15,152.88c1.09,10.07,2.44,28,0,38C484.13,178.21,484.1,165.54,484.15,152.88Z"/><path class="cls-108" d="M702.47,153.24c2.69,1.93-4.38,3.42-7.28,2.77-.26,13.64.13,27.29-.13,40.93l-.95-.28c0-13.89,0-27.79.06-41.68C697,154.52,700.16,155.23,702.47,153.24Z"/><path class="cls-109" d="M364.28,154.88c6.07-2.17,13.46-.86,19.94-.14C377.56,154.83,370.92,154.81,364.28,154.88Z"/><path class="cls-110" d="M364.28,154.88c6.64-.07,13.28,0,19.94-.14.24.51.74,1.53,1,2-7.31-1-14.88-1.67-22.15-.13l.37-.8Z"/><path class="cls-111" d="M467.23,155l1.72-.22c-1.58,11-.61,22.17-.79,33.25C465.86,178.65,467.53,165.71,467.23,155Z"/><path class="cls-112" d="M561.39,154.64c1.92,13.58.12,28.24.74,42.2l-1,.06C561.17,182.81,560.92,168.72,561.39,154.64Z"/><path class="cls-113" d="M570.13,196.86c.72-13.66-1.46-29.74,1-41.89-.07,14,0,27.95,0,41.93Z"/><path class="cls-114" d="M592.17,171.81c1.13-4.73-2.31-14,1-16.94,1.08,6.37-4.23,19.44,7,16C600.53,174.3,594.32,171.24,592.17,171.81Z"/><path class="cls-115" d="M685.09,154.87c2.81,10.13,0,24.45,1,36-2.94,5.44,3.81,7.23,6.87,4.81,1.13-13.26-1.48-28.83,1.17-40.7-.1,13.89,0,27.79-.06,41.68-2.11,2.43-6.77,2-9,0C685.08,182.73,685.18,168.8,685.09,154.87Z"/><path class="cls-116" d="M731.13,155.9c.3-1.13,1.36-1.49,3.19-1.1-5.29,6.71-.72,17.88-2.24,26.09-2.55,6.46,2.39,8,7.08,6.15V188c.22,2.87-6.58,1.35-8-.29Q731.09,171.77,731.13,155.9Z"/><path class="cls-117" d="M739,155.18c1.26,7.44,2.59,24.37.15,32.77V187c0-10,0-20.11-.1-30.16Z"/><path class="cls-118" d="M350.27,155.68c2.39,3.14,5.91,4.21,10,3.4l-6,1.09c.71,9.85.84,19.71,1,29.57,1.73,0,3.47-.58,5.19-.16-3.06,1.28-6.57,2.26-8.22,5.43C351.43,181.9,350.88,168.76,350.27,155.68Z"/><path class="cls-119" d="M435.11,185.87c.21-10.07-.77-20.32.73-30.27.64,10.33,0,20.68.42,31,2.49,4,10,.26,6.88-4.76-.82-4.34,7.28-4.23,7.95-2.05-7-2.38-7.73,3.4-7.65,8.41C441.07,189.84,434.55,190.17,435.11,185.87Z"/><path class="cls-120" d="M540.58,155.92a8.2,8.2,0,0,1,.5,6.83C539.16,161.57,539.74,157.81,540.58,155.92Z"/><path class="cls-121" d="M656.78,187.27c-1-10.19-1.53-21.91.29-31.48C656.86,166.27,657.77,176.82,656.78,187.27Z"/><path class="cls-122" d="M731.15,187.66c-1.21-7.28-2.41-24,0-31.76Q731.12,171.79,731.15,187.66Z"/><path class="cls-123" d="M665.4,156.59c.19,5.15,1.18,8.5,7.7,6.37C668.38,166.87,662.22,163.06,665.4,156.59Z"/><path class="cls-55" d="M198.15,159.67c2.56,2.82,4.73,6.34,5.1,10.22-2.37-.52-4.65-1.39-7-2.08,1,2.27,2.1,4.56,1.92,7.1a44.42,44.42,0,0,1-6.26-1.94c-.12-1.1-.22-2.19-.27-3.29,1.41.85,2.82,1.71,4.3,2.47-1.31-2.65-2.81-5.33-2.93-8.36,2.78.8,5.33,2.23,8,3.28C199.73,164.76,197.92,162.5,198.15,159.67Z"/><path class="cls-124" d="M214.16,162.86l1,.14c.38,5.32-.87,11.24.89,16.27,2.12,3.3,7,1.76,10.08.63,1.22,0,2.44.11,3.66.2,6.15-1.13,22.09,6.28,20.71-4.49.17,1.55.51,4.63.67,6.18-12.24-.26-25.74,1.15-37.22-.69Q214.1,172,214.16,162.86Z"/><path class="cls-125" d="M444.33,162.87h7.76C451.78,164.62,444.29,164.53,444.33,162.87Z"/><path class="cls-126" d="M187.28,165.66q2.06,1.13,4.1,2.3c.07.43.22,1.29.29,1.72.05,1.1.15,2.19.27,3.29a67.73,67.73,0,0,1-.63,16.09,77.37,77.37,0,0,1-9.27-.71C195.58,190.82,190.84,173.13,187.28,165.66Z"/><path class="cls-127" d="M762.29,171.15c1.57-2.62,2.52-.15,2.89,1.72l-2.11-1c-.08,8.34.16,16.69,0,25l-1.1,0C762.17,188.33,762,179.74,762.29,171.15Z"/><path class="cls-128" d="M499.27,170.55a4.44,4.44,0,0,1,1.81,4c-1.74,7.26-.47,14.75-1.09,22.1-1.81,2.19-8.66,1.94-9.82.29l1,0a54.8,54.8,0,0,0,7.45-.55C499.76,187.86,498.75,179.12,499.27,170.55Z"/><path class="cls-129" d="M548.32,170.83c3.56,2.6,2.31,17.4.8,21C549.18,184.82,549.43,177.77,548.32,170.83Z"/><path class="cls-130" d="M167,173.77,168,172c.48,5.18-.84,10.81,1.38,15.63,2.67.81,5.18-1.25,7.72-.45a4.45,4.45,0,0,0,4.27-.3l.69,1.52c-4.56.15-9.15,1-13.7.43C165.64,184.6,167.55,178.69,167,173.77Z"/><path class="cls-131" d="M216,179.27c2.42-3,4.09-10.24,6.26-4.6,4.25-.38,7.12,1.39,3.82,5.23C223,181,218.14,182.57,216,179.27Z"/><path class="cls-132" d="M763.07,171.88l2.11,1c.76,2.57,1.49,5.16,2.27,7.73-2.81.4-3.64-12.4-3.34.25-1.39,4.34,2.35,13.53-1,16.06C763.23,188.57,763,180.22,763.07,171.88Z"/><path class="cls-133" d="M161.21,178c1.91-1.45,3.9-2.79,5.82-4.22.52,4.92-1.39,10.83,1.31,15,4.55.53,9.14-.28,13.7-.43a77.37,77.37,0,0,0,9.27.71l-1,6.73c-5.08.77-16.19-4.9-16.2,1.93-3.58-1.47-6-4-8.1-7,.4,2.78,1.65,5.33,2.31,8.05-2.41-1-4.75-2.1-7.17-3.05C160.94,189.81,161,183.9,161.21,178Z"/><path class="cls-134" d="M605.67,182c-1.77-2.87,1.71-4.63,3.4-6.35C609.11,178.26,606.52,179.69,605.67,182Z"/><path class="cls-135" d="M540.19,177.85c5,4.8-1.36,17.07-7.34,9.39C541.3,191.12,540.29,183.28,540.19,177.85Z"/><path class="cls-136" d="M524,180.83c4.81-3.26,12.42-1.05,8.81,6.41C533.23,181.15,530.4,179,524,180.83Z"/><path class="cls-137" d="M592.2,179.88l5,1.85c-9.22-4.51-.55,13-5.15,15.24C592.1,191.27,592,185.57,592.2,179.88Z"/><path class="cls-138" d="M665.35,187.22c-4.06-9,3.34-7.63,8.75-7.26-1.11,3,2.08,10.65-1,11.86l-.08-10.91C668.2,180.12,663.83,180.49,665.35,187.22Z"/><path class="cls-139" d="M526.23,194.81c-4.41-2.21-3.6-11.64-2.19-14C524.16,185.56,524.38,190.38,526.23,194.81Z"/><path class="cls-140" d="M624.89,187.08a2.76,2.76,0,0,1,3,2.2C626.52,189.39,624.71,188.75,624.89,187.08Z"/><path class="cls-141" d="M656.78,187.27c2.84.1,5.74.62,8.57-.05C665,190,657.06,190.49,656.78,187.27Z"/><path class="cls-142" d="M352.2,195c1.65-3.17,5.16-4.15,8.22-5.43,2.53.67,4.47,2.52,6.15,4.44-2.93,4-10.54,4.6-9.68,10.89l-1.67-.22A9.81,9.81,0,0,1,352.2,195Z"/><path class="cls-143" d="M166,190.73c2.12,3,4.52,5.52,8.1,7,.91.74,1.81,1.49,2.7,2.26,4,4.33,8.08,8.66,12.09,13,2.27,3.37,4.83,6.73,8.45,8.75a60.9,60.9,0,0,1,5.57,6.22,39,39,0,0,0,9.56,10.24c2.37,5.3-1.58,9.67-5.22,4.94l-.59-.46-2.26-2c-.7-.66-1.41-1.31-2.12-2-3.64-4.65-7.1-9.78-12-13.16l-1-.84C186.71,220.4,183,217,179,213.92a55.78,55.78,0,0,0-4.66-5.29l-1.3-1.73a28.83,28.83,0,0,0-4.87-5.36,28.23,28.23,0,0,0-5.26-3.68c1.3,3,3.76,5.65,3.23,9.12a50.73,50.73,0,0,1-4.88-2.18c2-2.89-.32-6-.13-9.07,2.42,1,4.76,2.08,7.17,3.05C167.67,196.06,166.42,193.51,166,190.73Z"/><path class="cls-144" d="M383.16,191.9c4.56-1.64,10.8-2.28,12.84,3.13,1.09,3.84-.5,8.32-4.1,10.11,0-6.52-6.51-7.27-10.15-11Z"/><path class="cls-145" d="M609.24,192.9c7.73,5.85-11.55,8.28-9,.79C601.49,198.37,611,199.1,609.24,192.9Z"/><path class="cls-145" d="M430.08,195.87c5.26,1.27,10.68,1,16.06,1.06C443,198,433.81,199.77,430.08,195.87Z"/><path class="cls-146" d="M617.11,192.75c4.68,5.73,12.39,4.36,19,4.15C632.44,198,618.43,200.88,617.11,192.75Z"/><path class="cls-146" d="M527.33,195.71c6,2,12.46,1.23,18.58,0C543.06,199.5,530.2,199.58,527.33,195.71Z"/><path class="cls-146" d="M755.3,196.93H762C761.05,198.78,756.2,198.78,755.3,196.93Z"/><path class="cls-147" d="M366.57,194l.62,0c4.59.56,9.42,1.58,14,.18l.59-.13c3.64,3.75,10.17,4.5,10.15,11l.13.57c-5.22,2.81-8.38,7.9-11.9,12.43A10.41,10.41,0,0,0,368.2,218q-2.91-3.2-5.85-6.33c-1.72-2.35-3.57-4.58-5.46-6.78C356,198.62,363.64,198,366.57,194Z"/><path class="cls-148" d="M367.19,194.07c4.66-.07,9.3,0,14,.18C376.61,195.65,371.78,194.63,367.19,194.07Z"/><path class="cls-149" d="M508.2,193.7c1.49,3.76,5.11,3.86,8.92,3.21l1,0C517.12,198.42,506.09,199.72,508.2,193.7Z"/><path class="cls-150" d="M772.2,193.7c1.5,3.74,5.09,3.85,8.91,3.27C780.22,199.09,770,199.13,772.2,193.7Z"/><path class="cls-151" d="M174.12,197.72c0-6.83,11.12-1.16,16.2-1.93,4,3.36.87,9.78,2.24,14.25,3.54,9.23,13.8,5.36,21,7.67-.06.76-.14,1.52-.24,2.27-6.34-2.38-14.77.15-19.47-5.81-5.14-4-.77-11.82-3.48-16.56-3.49-.85-13.24-3.79-13.56,2.37C175.93,199.21,175,198.46,174.12,197.72Z"/><path class="cls-152" d="M256.19,194.91l.92,0c0,1.76,0,5.29,0,7,.28,6.45-1.66,14.12-8.32,16.7-8.22.6-16.45.11-24.67.28-4-.8-1.66,5-2.46,7.45-1.41,52.74.12,105.56-.75,158.32-3.3,17.37,3,39.18-5.32,54.34-1.9-5.13-1.25-10.78-2.68-16-11.55-.63-23.24.85-34.7-1-3.15.93-5.22,4.47-1.36,6.15,7.22,6.88,13.93,14.25,20.57,21.68l-.48,3.15c-6.17-1.11-10.56-6.19-15.75-9.32a93.55,93.55,0,0,1-9.12-10.08c-10.62-5.82,1,17.63-9.78,18.48-2.65-38.05-2.43-76.22-2-114.35,1.79,16,.3,32.25.82,48.36,1.48-1,.75-3.22,1.86-4.51q.15,10.33.23,20.7c4.74-3-.45-11.55,2.74-14.3,1.61,13.93,1.08-7.3,1.12-10.05-1-2.93,2.4-5.6,4-2.29-2.29,1.09-5.61,2.26-3,6.31-.36,10.29.92,20.73-.92,30.92.39,3.63,4.82,4.84,7.93,4.08,10.28.73,20.55-1.24,30.81-.1,3.52-3.47-3.6-6.52-5.92-8.78-1.44-1.94-2.87-3.89-4.14-5.95,5.09,2.12,8,10.52,14.12,9.23-.53,1.5-1.24,5.51,1.48,4.05,2.09-6.85-5.25-10.28-8.57-15.19-6.7-8.89-16-15.92-21.88-25.29,11.72,8.79,19.2,23,31,31.06,1.57-12.52-.5-25.34,0-38-12-.19-23.9-.05-35.85-.11,1,1.67,2.13,3.32,3,5.09-1.51-1.88-7.44-4.38-3.85-6.9,12.18-.23,24.39-.34,36.57,0,2.8,10.86,1,23.39,4.73,34.23-4.95-8.77,7.69-.87,2.52-9.31.75-28.06,1.5-56.15.73-84.25q.53-33.5,0-67c.52-7-.41-14.34.86-21.16,9.55-2.37,20.84,2.17,29.86-3.12,3.92-2.41,4.81-7.4,4.54-11.66A51,51,0,0,0,256.19,194.91Z"/><path class="cls-153" d="M478.17,196.69a6.17,6.17,0,0,1,2.91-1.69C482.15,196.7,479.24,198,478.17,196.69Z"/><path class="cls-154" d="M650.27,194.69c5.39,3.26,11.78,2.2,17.8,2.21C664.89,197.66,652.93,200.72,650.27,194.69Z"/><path class="cls-155" d="M464.19,196.88c4.65,0,9.29-.08,14-.19C476.25,198.3,466.32,199.19,464.19,196.88Z"/><path class="cls-156" d="M728.19,196.86c4.62.06,9.22,0,13.87,0C740.34,198.21,730.25,199.23,728.19,196.86Z"/><path class="cls-157" d="M162.94,197.86a28.23,28.23,0,0,1,5.26,3.68c-2.21,13.64-.67,27.57-1.08,41.33-.54,2.48,2.41,3.71,4.45,3.5,11.77-.85,23.59-.24,35.38-.6l.32-2.62c3.64,4.73,7.59.36,5.22-4.94a120.57,120.57,0,0,0,.53-15.55c.08-.67.24-2,.31-2.68s.18-1.51.24-2.27c4.9,2.95,9.34-3.37,14.57-1.71,8.59-1.33,21.88,3.39,25.14-7.9.73-1.42,1.25-2.93,1.86-4.4.27,4.26-.62,9.25-4.54,11.66-9,5.29-20.31.75-29.86,3.12-1.27,6.82-.34,14.15-.86,21.16-2.27,16.64,1.06,33.6-1.89,50.16l-2.74.09c-.2-10.77-.6-21.59-1.73-32.29-.12-1.29-.24-2.58-.35-3.86l-5-1.87c-11.16,2.06-24.14-3.59-34.41,1.73-6.83-3.17-6.93,1.79-4.8,6-4.08,6.21-.66,15-1.95,22.11.56,2.24-3,15.88-4.75,8-.25,1.38-.77,4.15-1,5.54,0-30.12-.26-60.26.1-90.37a50.73,50.73,0,0,0,4.88,2.18C166.7,203.51,164.24,200.82,162.94,197.86Z"/><path class="cls-158" d="M168.2,201.54a28.83,28.83,0,0,1,4.87,5.36,33.87,33.87,0,0,0-4.86-1.12c0,12.61-.42,25.27.06,37.88,7.67,3,17.46.31,25.86,1.28,3.56-1.42,11.13,2.71,12.55-2.25l.59.46-.32,2.62c-11.79.36-23.61-.25-35.38.6-2,.21-5-1-4.45-3.5C167.53,229.11,166,215.18,168.2,201.54Z"/><path class="cls-159" d="M168.21,205.78a33.87,33.87,0,0,1,4.86,1.12l1.3,1.73c-2.05-.32-4.92-1.53-4.85,1.65.41,10.88-2.62,22.85.87,33.3,11.19-.71,22.38,1.15,33.57.18.12-.76.35-2.27.46-3l2.26,2c-1.42,5-9,.83-12.55,2.25-8.4-1-18.19,1.76-25.86-1.28C167.79,231.05,168.19,218.39,168.21,205.78Z"/><path class="cls-160" d="M192.56,210c.55-1.47,1.86-2.9,3.53-2.85,19,1.5,38.13.16,57.19.91-3.26,11.29-16.55,6.57-25.14,7.9-5.23-1.66-9.67,4.66-14.57,1.71C206.36,215.4,196.1,219.27,192.56,210Z"/><path class="cls-161" d="M188.91,213c3.6,2,6.15,5.37,8.45,8.75C193.74,219.73,191.18,216.37,188.91,213Z"/><path class="cls-162" d="M179,213.92c3.94,3.06,7.68,6.48,10.22,10.85C185.23,221.8,181.47,218.33,179,213.92Z"/><path class="cls-163" d="M368.2,218a10.41,10.41,0,0,1,11.93.12,33.4,33.4,0,0,0-.88,4.79l-.13.94c-9.23,6.29,10,9.28,5,18.16l-.17,1.11-.73-.27c-8.57-2.57-11.8-11.67-13.81-19.17V223C369.64,221.26,368.84,219.61,368.2,218Z"/><path class="cls-21" d="M480.78,222.16c72-1,144.25.13,216.35-.28,23,.67,48.57-1.34,70,1q-142.89,0-285.8,0Z"/><path class="cls-164" d="M211.93,235c.39-4.12.49-8.27,1.09-12.36a120.57,120.57,0,0,1-.53,15.55A39,39,0,0,1,202.93,228C206.23,230,208.35,233.59,211.93,235Z"/><path class="cls-21" d="M379.25,222.93l2.63-.05h67.19q3.94,0,7.94,0l12.37-.09c2,.11,4,.23,6,.3l-6.33.71-1,.05c-4.6,0-9.15,0-13.72.1-1.7,0-3.38,0-5.06,0-22.66-.09-45.32-.05-68,0l-2.16,0Z"/><path class="cls-21" d="M475.35,223.07l.88,0-.22.82c.32,6.42,9.7,10.29,13.3,15.8,2,3,5.74,2.13,8.93,2.22-5.84-6.2-11.51-12.69-18.24-17.94q23.65-.06,47.34-.08c.31,4.91-4.2,8.84-6.05,13.25.57-4.45,2.93-8.29,4.81-12.26-13.42.08-26.84-.12-40.25.21,4.11,6.14,10.14,10.74,14.69,16.58,5.95.4,11.95.2,17.93.51l-.38.89q-18.54-.37-37.09.09h-.76c-32.08-.28-64.18-.5-96.25,0l.17-1.11,3.08-.19c14.5-.26,29.07.62,43.53-.24,1.83-7.71,10.28-10,13.21-16.83-21.07,0-42.15.44-63.21-.15l.51-.73c22.66,0,45.32,0,68,0-6.23,5.47-12.7,11-17.29,18,9.78-1,15.19-11.73,22.35-18,4.57-.09,9.12-.05,13.72-.1-1.81,3.35,1,6.7,1.17,10.13-3.56-.09-9.25-4.41-10.89.64,5.13,2.26,12.16,1.72,14.93,7.4,4.77-2.76,10,.35,15.13-.17-4.11-3.24-9.47-3.91-14.08-6.1-2.27-3.73-1.64-9-5.28-11.95Z"/><path class="cls-21" d="M476.23,223c1.69-.11,3.39-.17,5.1-.2q142.91.19,285.8,0l2,1c-21,0-41.93-.08-62.89.06q-49-.12-97.93,0c-14.69-.09-29.39-.14-44.07,0-12.32-.07-24.62-.06-36.93-.09q-23.69,0-47.34.08c-1.34,0-2.67-.07-4-.08Z"/><path class="cls-165" d="M368.45,223.74l1,0c2,7.5,5.24,16.6,13.81,19.17-.16,1.61-.32,3.34-2.34,3.41-4.82-1.31-9.56-6.51-14.8-4.55-1.57-5,2.83-3.69,6.08-3C371.3,233.62,367.52,229.47,368.45,223.74Z"/><path class="cls-166" d="M379.12,223.87l2.16,0-.51.73c-5.42,6.21,7,10,6.47,17.22l-3.08.19C389.13,233.15,369.89,230.16,379.12,223.87Z"/><path class="cls-21" d="M449.26,223.93c1.68,0,3.36,0,5.06,0-7.16,6.27-12.57,17-22.35,18C436.56,234.94,443,229.4,449.26,223.93Z"/><path class="cls-21" d="M468,223.83l1-.05c3.64,2.95,3,8.22,5.28,11.95,4.61,2.19,10,2.86,14.08,6.1-5.16.52-10.36-2.59-15.13.17-2.77-5.68-9.8-5.14-14.93-7.4,1.64-5,7.33-.73,10.89-.64C469.08,230.53,466.23,227.18,468,223.83Z"/><path class="cls-21" d="M476,223.84c1.32,0,2.65,0,4,.08,6.73,5.25,12.4,11.74,18.24,17.94-3.19-.09-6.9.77-8.93-2.22C485.71,234.13,476.33,230.26,476,223.84Z"/><path class="cls-167" d="M527.34,223.84c12.31,0,24.61,0,36.93.09a114.14,114.14,0,0,1-7.4,14.85c-.87,1.24-1.57,2.62-.93,4.14-11.34,0-22.67-.29-34,.22h-1.67l-2.19-.13.38-.89a18.37,18.37,0,0,0,2.82-5C523.14,232.68,527.65,228.75,527.34,223.84Z"/><path class="cls-168" d="M564.27,223.93c14.68-.12,29.38-.07,44.07,0-2.66,6.13-4.27,13.16-8.9,18.18-14.05-.56-28.11,0-42.16-.34-.1-.76-.31-2.26-.41-3A114.14,114.14,0,0,0,564.27,223.93Z"/><path class="cls-169" d="M608.34,224q49-.21,97.93,0c-2.29,6.15-6.24,11.61-8.07,17.94l-.25.9-.83.07c-32-1.76-64.3-1.32-96.32-.24l-1.91.12.55-.6C604.07,237.11,605.68,230.08,608.34,224Z"/><path class="cls-169" d="M466.23,519.75c32.33.34,64.66-.06,97,.22-1.8,3.66-3.58,7.34-5.28,11-8.81-.53-18.26.52-25.11,6.69-6.51,1.29-16.85-1.82-21.69,1.19-.14,4.31,0,8.65,0,13h-1c-.08-4.35.15-8.66,0-13-15.9-2.45-35.65-.31-53-1,3.16-5.5,5.27-11.54,8.48-17C465.72,520.59,466.06,520,466.23,519.75Z"/><path class="cls-21" d="M387.24,241.84c.56-7.23-11.89-11-6.47-17.22,21.06.59,42.14.17,63.21.15-2.93,6.8-11.38,9.12-13.21,16.83C416.31,242.46,401.74,241.58,387.24,241.84Z"/><path class="cls-21" d="M485.85,225c13.41-.33,26.83-.13,40.25-.21-1.88,4-4.24,7.81-4.81,12.26a18.37,18.37,0,0,1-2.82,5c-6-.31-12-.11-17.93-.51C496,235.78,490,231.18,485.85,225Z"/><path class="cls-170" d="M190.27,225.61c4.93,3.38,8.39,8.51,12,13.16C197.47,235.23,193.08,230.94,190.27,225.61Z"/><path class="cls-171" d="M555.94,242.92c-.64-1.52.06-2.9.93-4.14.1.75.31,2.25.41,3,14.05.36,28.11-.22,42.16.34l-.55.6C584.58,243.1,570.25,242.78,555.94,242.92Z"/><path class="cls-172" d="M218,289.8c2.95-16.56-.38-33.52,1.89-50.16q.62,33.5,0,67c-2.2,15.22.9,30.81-2.15,45.94-.29,2-1.67,1.21-2.49,0-.6-13.67.79-27.52-1.85-41-2.54-4.73-11.91,0-16.53-1.49-7.29-.25-14.58-.39-21.87-.21,6,9.42,14.61,16.68,21.78,25.13,4.19,5.88,10,10.38,14.52,16C212.7,353,215,355,214,357.62c-1.47,2.71-4.63.18-6.7-.45-6.43-5.74-11.15-13.35-18.23-18.32a159.64,159.64,0,0,0-15.8-17.28q-1.58-2.06-3.29-4c-1.69-1.67-7.26-1.19-2.82,4.25-1.2,10.36,2.83,23.45-3.9,32.36,1.39-19.91-3.09-39.2-2.05-59,.26-1.39.78-4.16,1-5.54,1.76,7.91,5.31-5.73,4.75-8,1.41,6.62-2.28,15.36,1.48,21.08,13.09-.25,26.23,1.12,39.29-.15.17-.43.51-1.29.69-1.71,3.93,5.08,7.07-4.59,2.94-7,4.41-9.35.16-24.78,2.15-36.28,1.13,10.7,1.53,21.52,1.73,32.29Z"/><path class="cls-173" d="M366.12,241.73c5.24-2,10,3.24,14.8,4.55l.65.35c-4.08,3.41-10.29,3.09-14.38-.08C366.82,244.94,366.37,243.35,366.12,241.73Z"/><path class="cls-174" d="M331.13,242.89c9-2.24,22.23-.64,32.92-.91l-.51,1.63C352.79,242.23,341.92,243.05,331.13,242.89Z"/><path class="cls-175" d="M600.8,242.61c32-1.08,64.34-1.52,96.32.24l-1,.23-.81.15C663.84,242.27,632.31,243.44,600.8,242.61Z"/><path class="cls-176" d="M698.2,241.88c22.39.43,44.9-.89,67.23.65-22.49.71-45,.27-67.48.25Z"/><path class="cls-177" d="M331.75,260.19c-2.34,1.88-3.13-14.95-.62-17.3C331.21,248.64,330.74,254.48,331.75,260.19Z"/><path class="cls-178" d="M331.13,242.89c10.79.16,21.66-.66,32.41.72-3.81,2.38-7.93,5-12.28,6.28-5.53.69-17.21-3.66-14.24,6.95-.69,1.92-3.67,2.14-5.27,3.35C330.74,254.48,331.21,248.64,331.13,242.89Z"/><path class="cls-179" d="M383.26,242.87l.73.27,2.92,1.48c3.32,1.84,6.57,3.8,10,5.46a169.31,169.31,0,0,1,15.2,8,61.76,61.76,0,0,0,6.27,2.15c-.71.84-1.42,1.67-2.15,2.48h-.72c-1.4-.15-2.79-.29-4.17-.47-8-4.93-16.87-8.34-25-13.14-1.6-.84-3.19-1.68-4.8-2.47l-.65-.35C382.94,246.21,383.1,244.48,383.26,242.87Z"/><path class="cls-180" d="M384,243.14c32.07-.54,64.17-.32,96.25,0-4.57.14-2.14,4.25-1.31,7-1.9-.22-3.78-.49-5.69-.53.95-7.93-7.79-5.75-13.22-5.62.22,3.1,2.52,5,5.28,6l-3.31.33-.75,0a83.56,83.56,0,0,0-14.15.54,12.41,12.41,0,0,0-4.8-.91c-2.36,0-4.68.53-7,.56.08-2.51-2.17-4.42-3.51-6.35-14.94-.18-29.95-.84-44.84.55Z"/><path class="cls-181" d="M480.24,243.1H481c5.78,3.06,14.14-1.74,16.26,6.74-6.13.08-12.23.09-18.33.22C478.1,247.35,475.67,243.24,480.24,243.1Z"/><path class="cls-182" d="M481,243.11q18.54-.5,37.09-.09l2.19.13c-7.2,2.73-21.13-4.17-22.07,6.79,18.7,0,37.4-.14,56.11,0-6.76,3.64-8.48,13.15-11.36,19.83,14.58-.16,29.28.74,43.81-.22a91.41,91.41,0,0,0,8.52-18.46L589.92,250c56.44.19,113.23-1,169.48.56-22,.8-43.93-.18-65.88.51-2.62,6.33-6.47,12.18-8.58,18.68,24.31.13,48.66.29,73,0,2.8-5.53.52-12.91,1.49-19.17.15,6.17,3,14.73-.59,20.16-56.77,1.19-113.51-2.36-170.26-.39-26.39,1.91-52.75-.94-79.12-.2-4.21-2.86-1-8.62,3.25-4.9,4.48,1.54-7.11-5.23-2.07-6.38,2.55-2,4.64.73,6.8,2-1.91-3.44-5.88-5.49-3.43-10-11.68-.4-23.45.83-35.05-.82,6.1-.13,12.2-.14,18.33-.22C495.14,241.37,486.78,246.17,481,243.11Z"/><path class="cls-183" d="M520.28,243.15H522c57.72,1.26,115.71,1.15,173.39.09l.81-.15c22.56,1.93,45.29.1,67.92.91q.09,136.9-.06,273.83c-34.2.08-68.41.16-102.59,0-3-2.74-5.07-7.77-9.37-9-.37,4.51,4.76,6.15,7.27,9.09q-30.11.07-60.19,0a2.51,2.51,0,0,1-3-1.94c4.51-5.45,10.63-9.34,14.92-15-8.38-7.11-14.08,6.11-19.9,10.14-3.28-3.45-7-6.5-10-10.14,3.29-5.34,7.71-9.85,11.11-15.1-2.95-5.39-8.27,1.17-10.74-3.78,5-9.77,10.64-19.38,14-29.93,8.61-12.84,13-27.85,20.46-41.29a54.23,54.23,0,0,1-14.76-.93c4.77-2.32,19.68,4.93,18-4-6.1,1.22-14.66-3.08-19.44,2-.71-7,13.58-1.21,18.3-3.13,2.39-5.26,9.15-10.69,9.17-17.79l.75,0c42,1.42,84.75,1.33,126.55.08,1-17.25,1.41-35.36,0-52.57-33.74-1.1-67.86-1.19-101.62.05l-.9.18c1.67-3.36,8.43-1.48,2.24-3.32,1.57-4.7,6.21-8.4,6.21-13.6,32.85-.09,65.72.25,98.55-.12,2.48-12.76,1.44-27.86.38-41.09-24.6-1.85-50.86-.22-76.09-.78-34.43.09-68.86-.14-103.28.13-13.26-.21-26.51-.12-39.76-.14-13.27-.22-26.57.49-39.81-.24-2.25-2.65-6.83-5.86-9.48-1.88-5.08,4.55-13.28,1.41-19.59,2.05-1.49-1.59-3-3.18-4.32-4.89,14.12-.64,28.43,1.08,42.47-.75,26.37-.74,52.73,2.11,79.12.2,56.75-2,113.49,1.58,170.26.39,3.58-5.43.74-14,.59-20.16-56.25-1.6-113-.37-169.48-.56-11.88-.19-23.74-.27-35.6-.06-18.71-.16-37.41-.06-56.11,0C499.15,239,513.08,245.88,520.28,243.15ZM663.63,405.36c-9.38,9-18.23,18.43-27.53,27.49a6.69,6.69,0,0,0,0,10c10.09,10,19.72,20.3,30.31,29.77,11,1.85,3.93-6.73-.41-9.53,7.63-.15-1.3-10-1.06-14.13,4.67,1.46,9.26,3.37,14.17,3.94.18-1-1.87-3.92-.31-3.74,7.92,2.14-1-9.44-.86-13.19,4.73.54,11.59,6.5,15.18,2.05,2.47,4.47,11.2,9.49,8.72-.81-8-9.66-18.25-17.36-25.78-27.32,5-1.18,16.67,3.87,15-4-6,.26-14-1.55-18.52,1.33C670.23,405.16,666.56,403.07,663.63,405.36Zm-26.47.57c-1.5,8.77,13,1.79,17.94,3.9C656.6,401.06,642,408,637.16,405.93Zm72,0c-1.85,5.58,4.38,3.93,8,4,3.32-.83,12.28,2.4,11-4C721.82,405.63,715.47,405.88,709.16,405.93Zm37.24.11c-4.66,6.45,12.56,1.07,6.9,10.86,6.12.93,3.19-6.76,3.06-10.35Zm6.77,29.86c2.21,5.16-4.57,19.83,2.92,20C753.85,450.68,760.64,436,753.17,435.9ZM621,447.78c-8.21,8.12-16.61,16.26-24.3,24.74-3.74,4.35.16,8.91,3.1,12.3a3.26,3.26,0,0,0,2.25,2.14c9.28,7.64,16.48,17.66,26.33,24.66,4.65,1.25,8.2-3.38,11.17-6.3,5.87-6.54,16.72-14,16-21.05-3.33-2.13-9.24-4.92-13.17-1.31-6.65-1.77,7-6.54.61-8.07-6.76,1.26-10.36,9.26-15.74,13.28-1.41,13.6,7.91-6.71,10.37-.57-2.41,1.87-9.4,10.49-3.84,11.08,2.32-4.48,7.7-6.33,9.5-11.18a14.72,14.72,0,0,1,5.84-.26c-6.55,5.87-11.6,13.47-18.83,18.56-4.88-6.34-11.84-11-16.26-17.8,6-5.09,3.2,5.13,7.79,4.78,1.81-5.21,3.84-10.34,5.61-15.56a131.14,131.14,0,0,1,16.5-6.67c-.37-7.3-9.55-1.26-13.71-.47,1-3,3.17-5.84,2.88-9.19-7.85-1.17-11.24,8-16.83,11.19.26-1.54,1.72-4.22-1.08-3.1-5.28,2.44-.9,10.69-5.16,14l-.88-.09c-2.38-2.73-8-4.28-6.87-8.73,8.24-8,16.16-16.87,24.75-24.28,11.54,10.16,22.13,22,33.27,32.79,4.55.56,3.35-6.68,1-9-9.37-9.63-19-19-28.44-28.54C628.85,441,624.12,444.47,621,447.78ZM711.42,450c-2,4.14-7.76,5.7-8.42,10.51,4-1.38,4,6.19,8.18,5.37.64-3.67-7.94-5.61-3.82-8.91,4-1.7,5.5,6.15,8.75,3.78-1.76-3-6.24-4.75-5-8.9,3.83-1.27,4.83,2.94,7.26,4.79C723.08,456.81,714.88,448,711.42,450Zm-17,17.08c-7.25,3.13-.63,14.52,5.65,10.73C706.09,475.17,700.48,464.67,694.41,467.11Zm58.93,8.77c1.34,7-3.2,7.22-8.15,8.08.55,5.35,7.28,2,10.71,2.82C757.7,483.77,758.82,475.05,753.34,475.88ZM681.6,480.3c-1,1.17-1.58,3-3.45,2.56-6.51-4.73-6.42,5-2,4.05,4.53-.3,12.51,4.64,15-1.08,1.77-5.6-6.81-1.49-9-3C682.18,481.64,683.89,478.52,681.6,480.3Zm27.56,2.63c-1.85,5.58,4.38,3.92,8,4,3.32-.84,12.28,2.4,11-4C721.82,482.63,715.47,482.88,709.16,482.93Zm-44.79,14.14c-2.48,2-4.53,5.71-1.93,8.51,2.23,4.38,9.66,3.27,9.73-1.8-2.7,1-6.16,3.94-8.37.4C660.36,501.66,669.71,496.79,664.37,497.07Z"/><path class="cls-183" d="M420.9,317.67c7.7-1.63,15.46.82,23.22,0,5.53-1.88,9.57,2.23,14.07,4.41-1-1.42-2.06-2.75-3.16-4.06,36.42-1.54,72.74-.12,109.19-.1a56.83,56.83,0,0,0-6.92,14.91c-12.59-5.8-26.9-.09-40.17-1.9-14,2.92-28.21-.29-42.21,2.19-5.2-1-15-3.75-13.81,4.76-1.2,8.89-.4,17.76-.1,26.68-5.53,4.75-6.11,13.52-10.94,19.22-4.2,5.17-.65,12.8-2.11,18.88-2.32,1.7-5.08.86-7.65.48-10.36,26.49-24.66,51.43-36.61,77.37-.42,3.33-9.95,4.19,1.4,3.32,3-.65,6.79,1.34,6,4.86a14.17,14.17,0,0,1-11.17,0c3,.85,16.12-2.57,4.64-3.25-4.59.29-14.33-3.91-12.42,3.41q3.88,0,7.78-.16c-4.56,9-10.7,17.68-12.52,27.8-.81.46-1.63.89-2.46,1.3-17.59.05-35.19.23-52.77,0q-.15-50.41,0-100.85c29.62-.31,59.26.23,88.87-.18q.23-28.53-.1-57.06c.47-1.42,1.15-2.75,1.66-4.15C418.63,343.79,421.66,330.1,420.9,317.67Zm20.94,4.87c-2,2.61-7.51,5.22-3.71,8.33-4.25,1.21-14.2-3.49-13,3.26l-.33.94c-3.9-1.53-2.08,10,2.06,7,0,3.48,4.06,8,7.11,4.61,4.38-3.78,1.55-9-3.68-9.48.72-6,11.77.85,15.12-3.8C452.74,332.45,447.6,321.26,441.84,322.54Zm1.26,40.34c-5.39,4.72,3.83,6.55,4,4.2,3.2-4.12-.1-12.77,1-18.2C438.9,346,445,358.59,443.1,362.88ZM444.33,384c-2.29,4.71-3.62,17.47,2.74,17.91C445.49,397.08,451,385.06,444.33,384Zm-94.15,35.94c1.66,4.9-4.46,18.32,3.87,18C352.57,432.5,358.67,418.56,350.18,419.91ZM351.34,455c-2.17,3.54-4.18,22,2.63,17.69C352.65,468,357.89,456,351.34,455Zm4.82,30c-1.5,8.77,13,1.78,17.94,3.9C375.6,480.06,361,487,356.16,484.93Z"/><path class="cls-183" d="M484.45,389.78c14.9.27,29.82,0,44.73.07-8.65,14.57-14.42,30.76-22.86,45.18-10.94,26.15-24.4,51-36.12,76.8a7.64,7.64,0,0,1-5.23,5.95c-14.28.2-28.56,0-42.83.16-1.7-2.17,1.7-2.27,2.12-4.18,4.62-6.69,6.84-14.67,11.4-21.35,2-5.18-5.82-2-7.82-3.24-6-8,9.71-5,13.27-5.15-3.88-2.94,2.53-7.84,1.88-11.42.83,1.91,3.87,3.59,5,1-.05-5.92-.71-11.82-.92-17.71,2.91-.34-.63,12,2.24,7.15,3-9.16,9.21-17.16,12.46-26.44,1.55,5.58-1.79,15.34,1.44,19.32h2.93c-.17-4.1,6.25-22.1-4.07-20.19,3.09-8.83,11.33-16.43,11.42-25.85,2.75-6.19-7.15-3.49-10.23-4,0,2.76-.06,8.28-.09,11-3.11-1.5.08-8.87-1-12a98.66,98.66,0,0,1,11.66.11c1.81.37,1.06,7,2.12,3.65C477.15,401.65,482.43,396.44,484.45,389.78Zm7.71,16.15c-1.5,8.77,13,1.79,17.94,3.9C511.6,401.06,497,408,492.16,405.93Zm-29,69.93v11c2.69-1.22,11.45,2.68,10.89-2.8-1.92-2.42-5.77-.14-7.8-2.36C467.28,479.18,467,474.74,463.16,475.86Zm-35,9c-1.59,4.92,5.29,2.27,7.58,3.64,3.77.2,11.55,2.46,10.45-3.6C440.13,485,434.16,485.38,428.13,484.88Z"/><path class="cls-184" d="M522,243.14c11.32-.51,22.65-.19,34-.22,14.31-.14,28.64.18,42.95-.19l1.91-.12c31.51.83,63-.34,94.54.62C637.66,244.29,579.67,244.4,522,243.14Z"/><path class="cls-183" d="M696.15,243.08l1-.23.83-.07c22.49,0,45,.46,67.48-.25q-.76,138.32,0,276.66c-39.51-.59-79-.37-118.55-.12-1.15,0-2.3,0-3.43.1-15.51-.49-31-.34-46.51-.2q-14.74-.36-29.48.22L565.86,518c6.37-1.34,14.58,2.29,20.21-1.31-1.39-3.82-6.27-6.73-9.08-9.74-4.48,2-6.51,8.38-11.13,11.05l-2.57.25c-.39-1.29-1.65-2.67-.9-4,5.43-9.5,15.41-16.65,18.92-27.19-5.73-.22-11.45.07-17.15-.19-1.53-8.78,12.38-1.12,17.28-4.71,2.47,5,7.79-1.61,10.74,3.78-3.4,5.25-7.82,9.76-11.11,15.1,3.06,3.64,6.77,6.69,10,10.14,5.82-4,11.52-17.25,19.9-10.14-4.29,5.64-10.41,9.53-14.92,15a2.51,2.51,0,0,0,3,1.94q30.09,0,60.19,0c-2.51-2.94-7.64-4.58-7.27-9.09,4.3,1.26,6.4,6.29,9.37,9,34.18.19,68.39.11,102.59,0q.38-136.91.06-273.83C741.44,243.18,718.71,245,696.15,243.08Z"/><path class="cls-185" d="M765.43,242.53c1.15,92,1.2,184.65,0,276.66Q764.72,380.89,765.43,242.53Z"/><path class="cls-180" d="M386.91,244.62c14.89-1.39,29.9-.73,44.84-.55,1.34,1.93,3.59,3.84,3.51,6.35-12.69-2.15-25.55,0-38.35-.34C393.48,248.42,390.23,246.46,386.91,244.62Z"/><path class="cls-186" d="M460,243.92c5.43-.13,14.17-2.31,13.22,5.62l-7.94.33C462.54,248.9,460.24,247,460,243.92Z"/><path class="cls-187" d="M361.77,249.15c1.77-.94,3.57-1.83,5.42-2.6,4.09,3.17,10.3,3.49,14.38.08,1.61.79,3.2,1.63,4.8,2.47C378.24,249.67,369.79,251.09,361.77,249.15Z"/><path class="cls-188" d="M336.35,262c8.71-3.8,16.93-8.62,25.42-12.89,8,1.94,16.47.52,24.6-.05,8.1,4.8,16.92,8.21,25,13.14l-3,.7c-24.06-.68-48.24-.86-72.3-.05Z"/><path class="cls-189" d="M396.91,250.08c12.8.31,25.66-1.81,38.35.34,2.35,0,4.67-.53,7-.56-1.06.73-2.12,1.48-3.11,2.29,5.28,6.27,11.81,11.36,17,17.69-4.73-.85-10.83,3.85-14.34,0,2.63-.84,10.5,1.7,6-2.68-8.63-5.62-14.2-20.11-26.53-15.88-3.82,1.17-4.7,7-9.18,6.84A169.31,169.31,0,0,0,396.91,250.08Z"/><path class="cls-190" d="M473.24,249.54c1.91,0,3.79.31,5.69.53,11.6,1.65,23.37.42,35.05.82-2.45,4.47,1.52,6.52,3.43,10-2.16-1.25-4.25-4-6.8-2-5,1.15,6.55,7.92,2.07,6.38-4.23-3.72-7.46,2-3.25,4.9-17.42-1.25-35.29.68-52.46,0,3.6-.05,11,1,6-2.9,9.63,2.32-3.15-11.42,1.07-13.26,4.39-.32,9.22,4.63,12.85,2.78-1.77-6.07-10.1-5.18-14.92-6.53l3.31-.33Z"/><path class="cls-191" d="M337,256.84c-3-10.61,8.71-6.26,14.24-6.95C346.85,252.4,342,255.48,337,256.84Z"/><path class="cls-188" d="M421.29,251.24c12.33-4.23,17.9,10.26,26.53,15.88,4.54,4.38-3.33,1.84-6,2.68l-.71-.11c-5.31-5.38-10.22-11.22-16.07-16a79.63,79.63,0,0,0-6.7,6.55,61.76,61.76,0,0,1-6.27-2.15C416.59,258.27,417.47,252.41,421.29,251.24Z"/><path class="cls-188" d="M442.29,249.86a12.41,12.41,0,0,1,4.8.91c5,5.77,10,11.58,15.9,16.44,5,3.9-2.42,2.85-6,2.9l-.77-.27c-5.21-6.33-11.74-11.42-17-17.69C440.17,251.34,441.23,250.59,442.29,249.86Z"/><path class="cls-192" d="M447.09,250.77a83.56,83.56,0,0,1,14.15-.54c-8.76.38,1.07,11.65,1.75,17C457.13,262.35,452.05,256.54,447.09,250.77Z"/><path class="cls-188" d="M461.24,250.23l.75,0c4.82,1.35,13.15.46,14.92,6.53-3.63,1.85-8.46-3.1-12.85-2.78-4.22,1.84,8.56,15.58-1.07,13.26C462.31,261.88,452.48,250.61,461.24,250.23Z"/><path class="cls-193" d="M554.32,250c11.86-.21,23.72-.13,35.6.06l5.37,1.09a91.41,91.41,0,0,1-8.52,18.46c-14.53,1-29.23.06-43.81.22C545.84,263.11,547.56,253.6,554.32,250Z"/><path class="cls-194" d="M173.72,253.6c10.27-5.32,23.25.33,34.41-1.73l5,1.87c-12.25,0-27.32-3.83-38.37,1.07Z"/><path class="cls-195" d="M693.52,251.09c22-.69,43.92.29,65.88-.51-1,6.26,1.31,13.64-1.49,19.17-24.31.31-48.66.15-73,0C687.05,263.27,690.9,257.42,693.52,251.09Z"/><path class="cls-196" d="M168.92,259.55c-2.13-4.16-2-9.12,4.8-6l1.08,1.21c6.4,6.14,11.94,13.11,18.3,19.27,1.22,1.37,2.5,2.69,3.82,4,4.05,5.93,9.69,10.49,14.45,15.82,4.13,2.41,1,12.08-2.94,7-3.59-3.88-7.2-7.81-11.5-10.91-2.49-2.77-4.88-5.64-7.58-8.2-4.11-6.15-9.83-10.94-15.13-16l-.81-1.17A29.14,29.14,0,0,0,168.92,259.55Z"/><path class="cls-197" d="M174.8,254.81c11-4.9,26.12-1.1,38.37-1.07.11,1.28.23,2.57.35,3.86-2,11.5,2.26,26.93-2.15,36.28-4.76-5.33-10.4-9.89-14.45-15.82,5.47,4.09,10,9.25,14.94,13.9-1.18-12.3,2.86-25.63-1.47-37.37-9.84-1.61-20.81-.53-31.07-.59-3.46,2.51,2.34,5,3.48,7.21,3.08,4.54,8.71,7.39,10.3,12.87C186.74,267.92,181.2,261,174.8,254.81Z"/><path class="cls-188" d="M418.38,260.23a79.63,79.63,0,0,1,6.7-6.55c5.85,4.79,10.76,10.63,16.07,16-6.72-1.19-12.68,2.92-19.24.9.44-1.65.28-2.79-1.62-2.13,1.35-3.18-.18-6.65-4.06-5.75C417,261.9,417.67,261.07,418.38,260.23Z"/><path class="cls-198" d="M167,281.66c1.29-7.09-2.13-15.9,1.95-22.11a29.14,29.14,0,0,1,4.49,5.05c-1.57-.45-4.59-3.25-4.66-.1-.78,12-1.48,25.06.07,36.71,12,1,25.18,1.57,37.38-.43-3.14-3.57-6.69-6.8-9.27-10.81,4.3,3.1,7.91,7,11.5,10.91-.18.42-.52,1.28-.69,1.71-13.06,1.27-26.2-.1-39.29.15C164.69,297,168.38,288.28,167,281.66Z"/><path class="cls-199" d="M327.1,266.88c-3.5-8.3,6-3.67,9.25-4.84l-.36.85q-3.92-.08-7.8.1c-.08,27-.2,54,.08,81,.38,12.28.25,24.6.1,36.9-.42,11.61-.26,23.24-.21,34.86C325.35,367.74,327.89,316.24,327.1,266.88Z"/><path class="cls-200" d="M336,262.89c24.06-.81,48.24-.63,72.3.05-3.74,7.66-14.58,10.84-15.2,19.87,7.92,10.27,18.19,18.57,27,28.15l.13.85c.26,1.95.57,3.89.7,5.86.76,12.43-2.27,26.12,1.73,37.88-.51,1.4-1.19,2.73-1.66,4.15-2.05,18.6-.14,37.43-.91,56.12-29.66.38-59.29-.65-88.94.14h-1l-2-.2c-.05-11.62-.21-23.25.21-34.86,8.31,9.44,27.46,12.67,34.83.94-9.09,4.1-20.73,2-26.7-6.31-7.84-9.54-4.23-26.11,6.5-31.8,6.23-4.56,14-.2,20.27-2-9.79-9-25.95-6.94-35,2.28-.28-27-.16-54-.08-81Q332.07,262.81,336,262.89ZM383.34,289c-6,6.78-9.82,15.38-16.48,21.64-2.89,3.54-9,8.17-5.51,13.17,5.54-1.75,7.86-9.65,12.81-12.91,3.85,2.6,7,6.44,10,10-4,5.88-11.12,9.44-14,16.05.66,1.58.1,5.75,2.7,4.69,5.61-5,10.35-11.29,16.25-15.71,6,4.25,10.77,10.78,16,15.9a11.29,11.29,0,0,0,3.67-4.73c-4.43-5.7-11.54-9.62-14.68-16.2,3.13-6,11.57-9.38,14-15.78-8.86-5.11-12.88,9-19.8,10.79-3.85-2.78-6.66-6.72-9.79-10.24,3.31-5.45,8.28-10.07,11.62-15.65A14.92,14.92,0,0,0,383.34,289Zm-34.83,54.26c-3.7,1.74-8.33,3.11-10.47,6.69,6.28-2.63,14.29-3.27,19.87,1.17,3.29,2,2.08,7.77,6.91,7.11,1.53,7.07,4-1,6.29-3.43C368.49,345.59,357.37,341.28,348.51,343.24Zm18,21.07c-1,2.14-2.85,2.77-5.05,2.9-2.08,10.53-15.49,13.08-23.47,7.57,8,11.54,29.25,9.12,33.12-4.76C369.2,368.63,368.24,364.65,366.54,364.31Zm31.57,1.42c-.52,3,1.43,5.46,2.11,8.23-2.47-.51-4.58-2.26-7.18-2.13.58,2.87,2.5,5.23,3.25,8-2.29-1.27-4.39-3.41-7.23-3,1.95,1.94,7,6.48,9.93,3.92-.45-2.79-2.79-4.56-3.93-7,2.74,1,5.16,2.83,8.12,3.19A21.7,21.7,0,0,0,398.11,365.73Zm-16,17.13c-.33,3.13,2.85,5,3.22,8a50.09,50.09,0,0,0-7.05-3.91c-2.93,2.61,1.9,5.13,2,8-2.76-.11-4.49-2.71-7.13-3.18.71,3.75,6,4.48,9,6.22.93-3.58-2.13-6-3.16-9.09,2.67,1.47,5.13,3.57,8.24,4.05C386,389.73,386,383.38,382.07,382.86Zm-15.95,14.88c-.93,3.59,2.54,5.82,3.2,9.07A64.14,64.14,0,0,0,361,403c.13,3,2.05,5.4,3.12,8.08-2.44.23-7.33-5.8-6.94-1.25a52.89,52.89,0,0,0,9.05,4.06c1.48-3.77-1.55-5.56-3.17-8.06,2.89.57,5.23,2.65,8.14,3.18C370.22,405.15,369.4,400.2,366.12,397.74Z"/><rect class="cls-200" x="345.65" y="278.56" width="43.39" height="64.22"/><rect class="cls-200" x="383" y="303.71" width="30.4" height="54.76"/><path class="cls-200" d="M411.34,262.24c1.38.18,2.77.32,4.17.47-5.44,6.07-11.52,11.52-17.12,17.43,6.48,7.89,14.28,14.88,21.76,21.95l.12.72a36.41,36.41,0,0,1-.2,8.15c-8.79-9.58-19.06-17.88-27-28.15.62-9,11.46-12.21,15.2-19.87Z"/><path class="cls-200" d="M415.51,262.71h.72c3.88-.9,5.41,2.57,4.06,5.75,1.9-.66,2.06.48,1.62,2.13-1.14,2-.41,4.16.27,6.17-.54,5.14-3.57,9.54-4.58,14.56-3.53,4,.36,4.87,2.59,5.49,1.4,1.62.66,3.52,0,5.28-7.48-7.07-15.28-14.06-21.76-21.95C404,274.23,410.07,268.78,415.51,262.71Zm3.88,10.58c-1.95,2.16-6.56,6-4.28.53-7.3-.39-7.75,14.63-.21,14.21C411,281.82,424.75,277.2,419.39,273.29Z"/><path class="cls-183" d="M421.91,270.59c6.56,2,12.52-2.09,19.24-.9l.71.11c3.51,3.89,9.61-.81,14.34,0l.77.27c17.17.72,35-1.21,52.46,0-14,1.83-28.35.11-42.47.75,1.34,1.71,2.83,3.3,4.32,4.89-4.73-.75-9.37.49-14.06.9-1.84.49-11.86-3.35-8,1.77-3.07-.47-5.4-3.85-7.8.1-.54-2.59-1.54-4.77-4.15-2.55-5,.52-10.09-.17-15.06.75C421.5,274.75,420.77,272.59,421.91,270.59Z"/><path class="cls-201" d="M490.87,273.74c2.65-4,7.23-.77,9.48,1.88-2.09,0-3.49.76-3.4,3C494.66,275.49,489.38,279.52,490.87,273.74Z"/><path class="cls-200" d="M419.39,273.29c5.36,3.91-8.44,8.53-4.49,14.74-7.54.42-7.09-14.6.21-14.21C412.83,279.3,417.44,275.45,419.39,273.29Z"/><path class="cls-202" d="M471.28,275.79c6.31-.64,14.51,2.5,19.59-2.05-1.49,5.78,3.79,1.75,6.08,4.87-.09-2.23,1.31-3,3.4-3,2.57,3.62-2.78,7.69-3.37,11.52l-1,1.69c-5.3.89-11.24-1.69-16.21.76a37,37,0,0,1,2.37-6.85c-4.63.35-3.84,9-10.08,6.09-3.54,1.48-14.37-2.71-10.68,6,1.46,4.66-1.06,8.69-2.24,12.94.67,6,9.65,7.21,11.17,1.1-2.82.59-8.36,4.31-8.91-.36-1.56-5.07,5.57-4.28,8.7-4.1,6.34-.82,12.82.88,19-.55l-.35.73a76.63,76.63,0,0,0-5.22,12c-9.87.54-19.75.11-29.62.17l1,1.2c1.1,1.31,2.18,2.64,3.16,4.06-4.5-2.18-8.54-6.29-14.07-4.41-7.76.82-15.52-1.63-23.22,0-.13-2-.44-3.91-.7-5.86,2.9,2.76,6.41,5.26,10.79,4.1,7.52-7.5,14.72-15.34,22.55-22.54,1.89-2.07-2.73-2.14-4.11-2.14-8.11,5.29-13,14.21-21.08,19.52-2.68-2.68-5.22-5.47-8.08-7.94l-.12-.72c.7-1.76,1.44-3.66,0-5.28a70.2,70.2,0,0,1,6-15.77c3.3-2.4,7.62-2.73,11-5,2.61-2.22,3.61,0,4.15,2.55,2.4-3.95,4.73-.57,7.8-.1,3.58,2.74,6.2,7.21,10.73,8.4,2.79-3.74.18-7.54-2.7-10.17C461.91,276.28,466.55,275,471.28,275.79Zm-32.19,4.13c-5.07,3.83-9.13,8.89-13.76,13.24-.62,13.4.53-2.69,2.13,3.57,4.26-5.5,9.58-10,14.37-15C442.62,280.34,440.1,279.59,439.09,279.92Zm4.65,5.41c-3.75,5.16-16.54,10.1-12.48,17.58,5.62-4.6,10.31-10.31,15.64-15.26C448.05,285.38,445.11,285.79,443.74,285.33Z"/><path class="cls-202" d="M422.18,276.76c5-.92,10.05-.23,15.06-.75-3.39,2.3-7.71,2.63-11,5a70.2,70.2,0,0,0-6,15.77c-2.23-.62-6.12-1.45-2.59-5.49C418.61,286.3,421.64,281.9,422.18,276.76Z"/><path class="cls-202" d="M449.19,278.46c-3.83-5.12,6.19-1.28,8-1.77,2.88,2.63,5.49,6.43,2.7,10.17C455.39,285.67,452.77,281.2,449.19,278.46Z"/><path class="cls-203" d="M500.35,275.62c13.24.73,26.54,0,39.81.24-3.21,3.5-4.72,8.13-6.75,12.34-11.94-.13-25,3.3-36.43-1.06C497.57,283.31,502.92,279.24,500.35,275.62Z"/><path class="cls-204" d="M540.16,275.86c13.25,0,26.5-.07,39.76.14,5.92.67.06,6.69-1.16,9.69-2,2.49-.23,6.38-3.45,8.39.33-1.7.68-3.4.85-5.13-14.36-.19-28.71-.07-43.06,0l.31-.71C535.44,284,537,279.36,540.16,275.86Z"/><path class="cls-205" d="M579.92,276c34.42-.27,68.85,0,103.28-.13-9.64,12-14.62,27.14-21.22,40.94,32,.09,64,.18,95.94,0,3.58-12.6-.51-26.92,1.37-40.13,1.06,13.23,2.1,28.33-.38,41.09-32.83.37-65.7,0-98.55.12-32-.65-64.12-2.13-96.14.06-36.45,0-72.77-1.44-109.19.1l-1-1.2c9.87-.06,19.75.37,29.62-.17a76.63,76.63,0,0,1,5.22-12c11.72.5,23.45,0,35.18.27-.72,2.8-1.85,5.47-2.78,8.2-.65,2.53-3.72,7.19,3.88,3.8,13-.22,25.95.36,38.91-.15,2.56-3.88,3-9.26,7.11-12,23.67.29,47.35.05,71,.19,8.23.5,1-12.4,2.49-16.52-20,.77-40,.59-60,.18-3.83,1.36-6,.57-5.91-2.9C580,282.69,585.84,276.67,579.92,276Z"/><path class="cls-206" d="M683.2,275.87c25.23.56,51.49-1.07,76.09.78-1.88,13.21,2.21,27.53-1.37,40.13-32,.21-64,.12-95.94,0C668.58,303,673.56,287.83,683.2,275.87Z"/><path class="cls-202" d="M439.09,279.92c1-.33,3.53.42,2.74,1.77-4.79,5-10.11,9.54-14.37,15-1.6-6.26-2.75,9.83-2.13-3.57C430,288.81,434,283.75,439.09,279.92Z"/><path class="cls-202" d="M472.09,288.83c6.24,2.91,5.45-5.74,10.08-6.09a37,37,0,0,0-2.37,6.85c5-2.45,10.91.13,16.21-.76-2.17,5.07-4.43,10.11-6.84,15.07-6.22,1.43-12.7-.27-19,.55-3.13-.18-10.26-1-8.7,4.1.55,4.67,6.09.95,8.91.36-1.52,6.11-10.5,4.93-11.17-1.1,1.18-4.25,3.7-8.28,2.24-12.94C457.72,286.12,468.55,290.31,472.09,288.83Z"/><path class="cls-202" d="M443.74,285.33c1.37.46,4.31.05,3.16,2.32-5.33,5-10,10.66-15.64,15.26C427.2,295.43,440,290.49,443.74,285.33Z"/><path class="cls-207" d="M575.31,294.08c3.22-2,1.41-5.9,3.45-8.39-.09,3.47,2.08,4.26,5.91,2.9,20,.41,40,.59,60-.18-1.47,4.12,5.74,17-2.49,16.52-23.68-.14-47.36.1-71-.19.39-1.31.69-2.65,1-4A63.77,63.77,0,0,1,575.31,294.08Z"/><path class="cls-208" d="M496,288.83l1-1.69c11.43,4.36,24.49.93,36.43,1.06l-.31.71c-2,4-4,8-6.15,11.89s-1.63,9.53-5.73,12.3c.93-2.73,2.06-5.4,2.78-8.2-11.73-.23-23.46.23-35.18-.27l.35-.73C491.58,298.94,493.84,293.9,496,288.83Z"/><path class="cls-209" d="M533.1,288.91c14.35,0,28.7-.15,43.06,0-.17,1.73-.52,3.43-.85,5.13a63.77,63.77,0,0,0-3.18,6.68c-2,2.43-3.8,6.2-8,4.11-12.3,0-24.6.2-36.88-.07-.16-1.34-.26-2.67-.3-4C529.12,296.89,531.15,292.92,533.1,288.91Z"/><path class="cls-202" d="M449.43,291.23c1.38,0,6,.07,4.11,2.14-7.83,7.2-15,15-22.55,22.54-4.38,1.16-7.89-1.34-10.79-4.1l-.13-.85a36.41,36.41,0,0,0,.2-8.15c2.86,2.47,5.4,5.26,8.08,7.94C436.41,305.44,441.32,296.52,449.43,291.23Z"/><path class="cls-210" d="M160.21,294.79l1,.38c-1,19.84,3.44,39.13,2.05,59,6.73-8.91,2.7-22,3.9-32.36-4.44-5.44,1.13-5.92,2.82-4.25-4.11,12.62-1.33,28.29-1.22,41.67,11.86,1.35,24.26.41,36.33.58,1.49.23,1.5-1.82,2.21-2.68,2.07.63,5.23,3.16,6.7.45C215,355,212.7,353,211.33,351c4.43-10.78.29-26.65,2.1-39.41,2.64,13.5,1.25,27.35,1.85,41,.82,1.17,2.2,1.93,2.49,0,3-15.13-.05-30.72,2.15-45.94.77,28.1,0,56.19-.73,84.25,5.17,8.44-7.47.54-2.52,9.31-3.76-10.84-1.93-23.37-4.73-34.23-12.18-.29-24.39-.18-36.57,0-3.59,2.52,2.34,5,3.85,6.9l1.81,1.93c5.92,9.37,15.18,16.4,21.88,25.29,3.32,4.91,10.66,8.34,8.57,15.19-2.72,1.46-2-2.55-1.48-4.05-6.14,1.29-9-7.11-14.12-9.23-8.09-9-16.93-17.3-24.8-26.48-1.59-3.31-5-.64-4,2.29,0,2.75.49,24-1.12,10.05-3.19,2.75,2,11.34-2.74,14.3q-.07-10.36-.23-20.7c-1.11,1.29-.38,3.55-1.86,4.51-.52-16.11,1-32.31-.82-48.36C160,323.37,160.13,309.08,160.21,294.79Z"/><path class="cls-211" d="M521.22,313.1c4.1-2.77,3.67-8.25,5.73-12.3,0,1.33.14,2.66.3,4,12.28.27,24.58.06,36.88.07,4.2,2.09,6-1.68,8-4.11-.32,1.33-.62,2.67-1,4-4.1,2.75-4.55,8.13-7.11,12-13,.51-26-.07-38.91.15C517.5,320.29,520.57,315.63,521.22,313.1Z"/><path class="cls-212" d="M196.9,310.11c4.62,1.54,14-3.24,16.53,1.49-1.81,12.76,2.33,28.63-2.1,39.41-4.55-5.6-10.33-10.1-14.52-16,6.11,3,9.63,9.73,15.24,13,.16-12,.23-23.93-.05-35.89C207.34,309.83,201.86,311,196.9,310.11Z"/><path class="cls-213" d="M564.22,317.92c32-2.19,64.11-.71,96.14-.06,0,5.2-4.64,8.9-6.21,13.6,6.19,1.84-.57,0-2.24,3.32-26.51.41-53.06-.28-79.55.26-2.59,16.14-1.19,34.56-.63,51.24,18.23,1.57,37,0,55.4.73,0,7.1-6.78,12.53-9.17,17.79-4.72,1.92-19-3.84-18.3,3.13l1.44,2a54.23,54.23,0,0,0,14.76.93c-7.51,13.44-11.85,28.45-20.46,41.29-3.32,10.55-9,20.16-14,29.93-4.9,3.59-18.81-4.07-17.28,4.71,5.7.26,11.42,0,17.15.19-3.51,10.54-13.49,17.69-18.92,27.19-.75,1.36.51,2.74.9,4-31.92,1.47-63.94.42-95.89.53l-2.43-1a7.64,7.64,0,0,0,5.23-5.95c11.72-25.83,25.18-50.65,36.12-76.8,8.44-14.42,14.21-30.61,22.86-45.18,8.57-.56,17.18,1,25.72-.07,5.42-10.79-.55-24,1.56-35.58-.45-7.09,2.48-14.4.84-21.37A56.83,56.83,0,0,1,564.22,317.92Zm-36.06,88c-1.5,8.77,13,1.79,17.94,3.9C547.6,401.06,533,408,528.16,405.93Zm36,0c-2,7.52,9,2.58,13,4,2.57,2.92,8.51-1.87,4.78-3.83C576,405.41,570.05,406,564.16,405.93Zm-72,76.06,0,4.83c4.91-1.67,18.34,4.47,18-3.87A124.77,124.77,0,0,1,492.12,482Zm36,.94c-1.5,8.77,13,1.79,17.94,3.9C547.6,478.06,533,485,528.16,482.93Z"/><path class="cls-213" d="M450.07,383.78c4.83-5.7,5.41-14.47,10.94-19.22.28,7.66-.12,15.33.29,23,5.73,7.16,15.64-.44,23.15,2.23-2,6.66-7.3,11.87-8.51,18.9-1.06,3.37-.31-3.28-2.12-3.65a98.66,98.66,0,0,0-11.66-.11c1,3.12-2.14,10.49,1,12,7.19,1.81.31-12.39,10.32-7.06-.09,9.42-8.33,17-11.42,25.85l-.3.87c-3.25,9.28-9.47,17.28-12.46,26.44-2.87,4.83.67-7.49-2.24-7.15-8.06-.67-2,12.36-4,16.74.65,3.58-5.76,8.48-1.88,11.42-3.56.12-19.32-2.88-13.27,5.15,2,1.24,9.83-1.94,7.82,3.24-4.56,6.68-6.78,14.66-11.4,21.35-.42,1.91-3.82,2-2.12,4.18l-1.08.65-.74-.07c-11.66-1.79-23.61,0-35.36-.71.83-.41,1.65-.84,2.46-1.3,1.82-10.12,8-18.77,12.52-27.8a14.17,14.17,0,0,0,11.17,0c.78-3.52-3-5.51-6-4.86-11.35.87-1.82,0-1.4-3.32,11.95-25.94,26.25-50.88,36.61-77.37,2.57.38,5.33,1.22,7.65-.48C449.42,396.58,445.87,389,450.07,383.78ZM444.34,420c-3.57,4.65-.13,12.11-1.06,17.62,4.22,4.71,4.85-5.95,3.92-7.75C445.6,427.42,450.25,417.81,444.34,420Z"/><path class="cls-214" d="M168.74,359.27c-.11-13.38-2.89-29,1.22-41.67q1.71,1.92,3.29,4c-8.21-2.4-2.29,11.26-4.19,15.31,1.62,6.72-3,16.3,2.18,21.66,10.1-4,22.3,2.79,31.76-1.9-2.43-7-11-10.76-13.95-17.79,7.08,5,11.8,12.58,18.23,18.32-.71.86-.72,2.91-2.21,2.68C193,359.68,180.6,360.62,168.74,359.27Z"/><path class="cls-215" d="M173.25,321.57a159.64,159.64,0,0,1,15.8,17.28c-3.45-.74-6.62-2.58-7.72-6.12C180,327.56,171.84,328,173.25,321.57Z"/><path class="cls-183" d="M441.84,322.54c5.76-1.28,10.9,9.91,3.53,10.85-5.5-3.79-15.62-3.95-20.28.74-1.16-6.75,8.79-2.05,13-3.26C434.33,327.76,439.85,325.15,441.84,322.54Z"/><path class="cls-216" d="M425.09,334.13c4.66-4.69,14.78-4.53,20.28-.74-3.35,4.65-14.4-2.21-15.12,3.8-1.85-.65-3.67-1.42-5.49-2.12Z"/><path class="cls-216" d="M444.18,349.9c7.53-.84.6,13,2.92,17.18C439.77,366.78,446.11,354.46,444.18,349.9Z"/><path class="cls-217" d="M517.13,330.93c13.27,1.81,27.58-3.9,40.17,1.9,1.64,7-1.29,14.28-.84,21.37-2.11,11.53,3.86,24.79-1.56,35.58-8.54,1.12-17.15-.49-25.72.07-14.91-.05-29.83.2-44.73-.07-7.51-2.67-17.42,4.93-23.15-2.23-.41-7.66,0-15.33-.29-23-.3-8.92-1.1-17.79.1-26.68l.95.07c.05,4.21,0,8.46.24,12.7.78,12,.67,24,1,36A469,469,0,0,0,541.12,388c4.32-1.16,11,2.34,13.82-2.42,1.25-17.12-1.42-34.47,1.12-51.48-2.32-1.55-5.34-2.78-8-1.41l-.82.18c-24.2-1.52-48.17,3.51-72.29.3C488.92,330.64,503.15,333.85,517.13,330.93Z"/><path class="cls-218" d="M461.11,337.88c-1.19-8.51,8.61-5.79,13.81-4.76,24.12,3.21,48.09-1.82,72.29-.3-11.77,2.44-23.91.19-35.81,1.25-3.18,2.28-3.95,6.3-5.47,9.66-7,14.65-14.57,29.24-20.95,44.06,14.94.14,29.9.27,44.85-.06,1.87-1.66,2.71-4.1,3.89-6.24,6.58-15.74,15.69-30.4,21.22-46.56-2.06-1.36-4.54-1.81-6.91-2.29,2.69-1.37,5.71-.14,8,1.41-2.54,17,.13,34.36-1.12,51.48-2.84,4.76-9.5,1.26-13.82,2.42a469,469,0,0,1-77.83-1.26c-.32-12-.21-24-1-36,.67,1.21.2,3.78,1.75,4.08,4-6.58,8.18-13.22,10.23-20.73-4.09-.38-11.77-2.3-12.22,3.95Z"/><path class="cls-219" d="M462.06,338c.45-6.25,8.13-4.33,12.22-3.95-2,7.51-6.21,14.15-10.23,20.73-1.55-.3-1.08-2.87-1.75-4.08C462.1,346.41,462.11,342.16,462.06,338Z"/><path class="cls-220" d="M547.21,332.82l.82-.18c2.37.48,4.85.93,6.91,2.29-5.53,16.16-14.64,30.82-21.22,46.56-1.18,2.14-2,4.58-3.89,6.24-15,.33-29.91.2-44.85.06,6.38-14.82,14-29.41,20.95-44.06,1.52-3.36,2.29-7.38,5.47-9.66C523.3,333,535.44,335.26,547.21,332.82Zm1.33,1.47c-11,4.92-25.35-.47-36.72,1.26-8.56,16.78-16,34.37-24.64,51.32,14-.4,28.63.93,42.26-.69,7.66-16.38,16-32.33,23.13-48.95C553.75,335.34,549.87,333.7,548.54,334.29Z"/><path class="cls-221" d="M548.54,334.29c1.33-.59,5.21,1,4,2.94-7.15,16.62-15.47,32.57-23.13,48.95-13.63,1.62-28.26.29-42.26.69,8.62-16.95,16.08-34.54,24.64-51.32C523.19,333.82,537.49,339.21,548.54,334.29Z"/><path class="cls-222" d="M652.81,334.6c33.76-1.24,67.88-1.15,101.62-.05Q703.64,335.32,652.81,334.6Z"/><path class="cls-183" d="M426.82,342.06c-4.14,3-6-8.52-2.06-7,1.82.7,3.64,1.47,5.49,2.12,5.23.47,8.06,5.7,3.68,9.48C430.88,350.09,426.78,345.54,426.82,342.06Z"/><path class="cls-223" d="M572.36,335c26.49-.54,53,.15,79.55-.26-2,6.54-5.44,12.44-8,18.73-5.16,9.12-8.81,19-14.1,28.05a9.29,9.29,0,0,0-1.92,5.48l-.75,0c-18.43-.78-37.17.84-55.4-.73C571.17,369.6,569.77,351.18,572.36,335Z"/><path class="cls-224" d="M651.91,334.78l.9-.18q50.79.76,101.62-.05c-.45,17.14-.46,34.31-.17,51.45-41.67-.36-83.35.1-125-.2.11-1.43.33-2.84.54-4.24,5.29-9,8.94-18.93,14.1-28.05-1.36,10.91-10.83,19.81-10.56,31.31,39.58.05,79.19.21,118.77-.06-.29-16-1.69-31.92.76-47.85-32-.28-64.11.4-96.13-.39-6.78-.21-7.06,9.47-7.69,14.28-2.89-3.45-1.56.17-1,2.6-1.38,0-2.76,0-4.13.11C646.47,347.22,650,341.32,651.91,334.78Z"/><path class="cls-225" d="M754.43,334.55c1.41,17.21,1,35.32,0,52.57l-.17-1.12C754,368.86,754,351.69,754.43,334.55Z"/><path class="cls-200" d="M328.27,344c9.05-9.22,25.21-11.23,35-2.28-6.28,1.81-14-2.55-20.27,2-10.73,5.69-14.34,22.26-6.5,31.8,6,8.33,17.61,10.41,26.7,6.31-7.37,11.73-26.52,8.5-34.83-.94C328.52,368.61,328.65,356.29,328.27,344Z"/><path class="cls-200" d="M366.54,364.31c1.7.34,2.66,4.32,4.6,5.71-3.87,13.88-25.16,16.3-33.12,4.76,8,5.51,21.39,3,23.47-7.57C363.69,367.08,365.59,366.45,366.54,364.31Z"/><path class="cls-226" d="M656.74,336.52c32,.79,64.09.11,96.13.39-2.45,15.93-1,31.87-.76,47.85-39.58.27-79.19.11-118.77.06-.27-11.5,9.2-20.4,10.56-31.31,1.37-.07,2.75-.07,4.13-.11-.54-2.43-1.87-6,1-2.6C649.68,346,650,336.31,656.74,336.52Z"/><path class="cls-200" d="M348.51,343.24c8.86-2,20,2.35,22.6,11.54-2.32,2.42-4.76,10.5-6.29,3.43-4.83.66-3.62-5.14-6.91-7.11-5.58-4.44-13.59-3.8-19.87-1.17C340.18,346.35,344.81,345,348.51,343.24Z"/><path class="cls-227" d="M443.1,362.88c1.85-4.29-4.2-16.86,5-14-1.08,5.43,2.22,14.08-1,18.2-2.32-4.21,4.61-18-2.92-17.18,1.93,4.56-4.41,16.88,2.92,17.18C446.93,369.43,437.71,367.6,443.1,362.88Z"/><path class="cls-228" d="M420.06,415.82c.77-18.69-1.14-37.52.91-56.12q.34,28.53.1,57.06c-29.61.41-59.25-.13-88.87.18q-.19,50.42,0,100.85c17.58.25,35.18.07,52.77,0,11.75.68,23.7-1.08,35.36.71-12,.63-24,.19-36,.43-17.83,0-35.67-.34-53.49.19.61-34.39.12-68.79.26-103.18C360.77,415.17,390.4,416.2,420.06,415.82Z"/><path class="cls-200" d="M398.11,365.73a21.7,21.7,0,0,1,5.07,11.21c-3-.36-5.38-2.23-8.12-3.19,1.14,2.46,3.48,4.23,3.93,7-3,2.56-8-2-9.93-3.92,2.84-.39,4.94,1.75,7.23,3-.75-2.81-2.67-5.17-3.25-8,2.6-.13,4.71,1.62,7.18,2.13C399.54,371.19,397.59,368.73,398.11,365.73Z"/><path class="cls-229" d="M168.12,381.88c-2.65-4.05.67-5.22,3-6.31,7.87,9.18,16.71,17.49,24.8,26.48,1.27,2.06,2.7,4,4.14,5.95-9.11-6.17-14.66-16.86-23.88-23.14-1.62-1.89-4.16-8.16-6.84-4.69-1.05,11.16.94,22.34,0,33.5,10.5,3.29,22.74-.29,34,1.13-.11-2.63-2-4.59-3.21-6.8,2.32,2.26,9.44,5.31,5.92,8.78-10.26-1.14-20.53.83-30.81.1-3.11.76-7.54-.45-7.93-4.08C169,402.61,167.76,392.17,168.12,381.88Z"/><path class="cls-230" d="M627.88,387a9.29,9.29,0,0,1,1.92-5.48c-.21,1.4-.43,2.81-.54,4.24,41.65.3,83.33-.16,125,.2l.17,1.12C712.25,386.69,670.06,386.8,627.88,387Z"/><path class="cls-200" d="M382.07,382.86c3.92.52,3.9,6.87,5.13,10.09-3.11-.48-5.57-2.58-8.24-4.05,1,3.08,4.09,5.51,3.16,9.09-3-1.74-8.32-2.47-9-6.22,2.64.47,4.37,3.07,7.13,3.18-.08-2.86-4.91-5.38-2-8a50.09,50.09,0,0,1,7.05,3.91C384.92,387.89,381.74,386,382.07,382.86Z"/><path class="cls-231" d="M444.33,384c6.63,1.09,1.16,13.11,2.74,17.91C440.71,401.44,442,388.68,444.33,384Z"/><path class="cls-232" d="M215.6,439c8.32-15.16,2-37,5.32-54.34.34,26.84.25,53.85-2.4,80.57,0,4.55-7.61,12-10.38,5.59-1.93-1.61-1.86-5.48-5.07-4.92-8.14-6.34-15.15-14.43-21.87-22.29,5.19,3.13,9.58,8.21,15.75,9.32l.48-3.15c5.68,4.57,9.69,11.28,15.56,15.35.12-13.31.69-26.9-1.08-40-11.76-.22-23.55-2.08-35.3-.79a30.31,30.31,0,0,0,.25,3.8c-3.86-1.68-1.79-5.22,1.36-6.15,11.46,1.89,23.15.41,34.7,1C214.35,428.22,213.7,433.87,215.6,439Z"/><path class="cls-233" d="M627.88,387c42.18-.24,84.37-.35,126.55.08C712.63,388.37,669.92,388.46,627.88,387Z"/><path class="cls-200" d="M366.12,397.74c3.28,2.46,4.1,7.41,5.07,11.22-2.91-.53-5.25-2.61-8.14-3.18,1.62,2.5,4.65,4.29,3.17,8.06a52.89,52.89,0,0,1-9.05-4.06c-.39-4.55,4.5,1.48,6.94,1.25-1.07-2.68-3-5.1-3.12-8.08a64.14,64.14,0,0,1,8.33,3.86C368.66,403.56,365.19,401.33,366.12,397.74Z"/><path class="cls-183" d="M663.63,405.36c2.93-2.29,6.6-.2,9,1.92a6.91,6.91,0,0,0,3.5,2.65c7.53,10,17.82,17.66,25.78,27.32,2.48,10.3-6.25,5.28-8.72.81-3.59,4.45-10.45-1.51-15.18-2.05-.16,3.75,8.78,15.33.86,13.19-1.56-.18.49,2.71.31,3.74-4.91-.57-9.5-2.48-14.17-3.94-.24,4.17,8.69,14,1.06,14.13,4.34,2.8,11.38,11.38.41,9.53-10.59-9.47-20.22-19.79-30.31-29.77a6.69,6.69,0,0,1,0-10C645.4,423.79,654.25,414.34,663.63,405.36Zm-23.31,30.77c0,3.43,4.52,5.23,6.51,7.73.14-6,7.7-3.57,11.41-2.11-1.56-4-3.64-8.92.57-12.05,2.36-4.46,7.29-2.07,11.29-1.83-.38-4-1.68-8.26,1.65-11.3-.31-2.34-3.88-4.13-5.64-5.74C657,418.64,649.09,427.9,640.32,436.13Zm31.43-19.56c1.85,4.66,2.61,10,5.59,14.14,5.1.62,9.39,3.26,13.92,5.25C684.87,429.43,678.73,422.48,671.75,416.57ZM658.81,429.7c1.83,4.62,2.4,9.83,5.55,13.82,3.84,1.4,7.68,3.06,11.81,3.41,0-4.59-2.57-8.74-4.21-12.86C667.53,432.68,663,431.66,658.81,429.7Zm-12,14.16c5.15,5.63,10.6,11,16.28,16.14C664.42,449.71,656.11,443.76,646.83,443.86Z"/><path class="cls-234" d="M463.22,405.87c3.08.49,13-2.21,10.23,4-10-5.33-3.13,8.87-10.32,7.06C463.16,414.15,463.2,408.63,463.22,405.87Z"/><path class="cls-235" d="M492.16,405.93c4.87,2.09,19.44-4.87,17.94,3.9C505.2,407.72,490.66,414.7,492.16,405.93Z"/><path class="cls-235" d="M753.34,475.88c5.48-.83,4.36,7.89,2.56,10.9-3.43-.84-10.16,2.53-10.71-2.82C750.14,483.1,754.68,482.89,753.34,475.88Z"/><path class="cls-236" d="M528.16,405.93c4.87,2.09,19.44-4.87,17.94,3.9C541.2,407.72,526.66,414.7,528.16,405.93Z"/><path class="cls-237" d="M564.16,405.93c5.89.05,11.86-.52,17.75.13,3.73,2-2.21,6.75-4.78,3.83C573.14,408.51,562.18,413.45,564.16,405.93Z"/><path class="cls-237" d="M528.16,482.93c4.87,2.09,19.44-4.87,17.94,3.9C541.2,484.72,526.66,491.7,528.16,482.93Z"/><path class="cls-238" d="M599.66,407.93c4.78-5.07,13.34-.77,19.44-2,1.68,8.93-13.23,1.68-18,4Z"/><path class="cls-239" d="M637.16,405.93c4.86,2.09,19.44-4.87,17.94,3.9C650.2,407.72,635.66,414.7,637.16,405.93Z"/><path class="cls-240" d="M672.58,407.28c4.55-2.88,12.54-1.07,18.52-1.33,1.65,7.85-10,2.8-15,4A6.91,6.91,0,0,1,672.58,407.28Z"/><path class="cls-241" d="M709.16,405.93c6.31-.05,12.66-.3,19,0,1.27,6.37-7.69,3.14-11,4C713.54,409.86,707.31,411.51,709.16,405.93Z"/><path class="cls-242" d="M746.4,406l10,.51c.13,3.59,3.06,11.28-3.06,10.35C759,407.11,741.74,412.49,746.4,406Z"/><path class="cls-243" d="M640.32,436.13c8.77-8.23,16.72-17.49,25.79-25.3,1.76,1.61,5.33,3.4,5.64,5.74-3.33,3-2,7.32-1.65,11.3-4-.24-8.93-2.63-11.29,1.83-4.21,3.13-2.13,8.09-.57,12.05-3.71-1.46-11.27-3.86-11.41,2.11C644.84,441.36,640.31,439.56,640.32,436.13Z"/><path class="cls-244" d="M330.12,416h1c-.14,34.39.35,68.79-.26,103.18C329.06,485.05,330.69,450.3,330.12,416Z"/><path class="cls-245" d="M671.75,416.57c7,5.91,13.12,12.86,19.51,19.39-4.53-2-8.82-4.63-13.92-5.25C674.36,426.58,673.6,421.23,671.75,416.57Z"/><path class="cls-246" d="M350.18,419.91c8.49-1.35,2.39,12.59,3.87,18C345.72,438.23,351.84,424.81,350.18,419.91Z"/><path class="cls-247" d="M444.34,420c5.91-2.2,1.26,7.41,2.86,9.87.93,1.8.3,12.46-3.92,7.75C444.21,432.12,440.77,424.66,444.34,420Z"/><path class="cls-248" d="M658.81,429.7c4.21,2,8.72,3,13.15,4.37,1.64,4.12,4.2,8.27,4.21,12.86-4.13-.35-8-2-11.81-3.41C661.21,439.53,660.64,434.32,658.81,429.7Z"/><path class="cls-249" d="M462,435.7c10.32-1.91,3.9,16.09,4.07,20.19-2.26-4.91,4.53-19-2.91-19-.17,6.32-.12,12.66,0,19-3.23-4,.11-13.74-1.44-19.32Z"/><path class="cls-250" d="M753.17,435.9c7.47.12.68,14.78,2.92,20C748.6,455.73,755.38,441.06,753.17,435.9Z"/><path class="cls-251" d="M463.19,436.89c7.44,0,.65,14.09,2.91,19h-2.93C463.07,449.55,463,443.21,463.19,436.89Z"/><path class="cls-183" d="M621,447.78c3.09-3.31,7.82-6.74,11.87-2.65,9.43,9.55,19.07,18.91,28.44,28.54,2.39,2.35,3.59,9.59-1,9-11.14-10.82-21.73-22.63-33.27-32.79-8.59,7.41-16.51,16.24-24.75,24.28-1.11,4.45,4.49,6,6.87,8.73-2.88.59-8.78-2.73-9.4,1.9-2.94-3.39-6.84-7.95-3.1-12.3C604.42,464,612.82,455.9,621,447.78Z"/><path class="cls-252" d="M646.83,443.86c9.28-.1,17.59,5.85,16.28,16.14C657.43,454.89,652,449.49,646.83,443.86Z"/><path class="cls-252" d="M565.86,518c4.62-2.67,6.65-9.08,11.13-11.05,2.81,3,7.69,5.92,9.08,9.74C580.44,520.25,572.23,516.62,565.86,518Z"/><path class="cls-183" d="M711.42,450c3.46-2,11.66,6.78,7,6.64-2.43-1.85-3.43-6.06-7.26-4.79-1.26,4.15,3.22,5.91,5,8.9-3.25,2.37-4.78-5.48-8.75-3.78-4.12,3.3,4.46,5.24,3.82,8.91-4.13.82-4.17-6.75-8.18-5.37C703.66,455.73,709.4,454.17,711.42,450Z"/><path class="cls-253" d="M351.34,455c6.55,1,1.31,13,2.63,17.69C347.16,476.93,349.17,458.51,351.34,455Z"/><path class="cls-254" d="M443,472.6c2-4.38-4-17.41,4-16.74.21,5.89.87,11.79.92,17.71C446.86,476.19,443.82,474.51,443,472.6Z"/><path class="cls-183" d="M616.35,472.08c5.59-3.2,9-12.36,16.83-11.19.29,3.35-1.85,6.16-2.88,9.19,4.16-.79,13.34-6.83,13.71.47a131.14,131.14,0,0,0-16.5,6.67c-1.77,5.22-3.8,10.35-5.61,15.56-4.59.35-1.78-9.87-7.79-4.78,4.42,6.8,11.38,11.46,16.26,17.8,7.23-5.09,12.28-12.69,18.83-18.56a6.28,6.28,0,0,0,6.43-3c.67,7-10.18,14.51-16,21.05-3,2.92-6.52,7.55-11.17,6.3-9.85-7-17-17-26.33-24.66,3.08-1.06,21.34,1.89,13.84-4.84-2,.31-3.76,1.59-5.81.89,4.26-3.34-.12-11.59,5.16-14C618.07,467.86,616.61,470.54,616.35,472.08Z"/><path class="cls-183" d="M694.41,467.11c6.07-2.44,11.68,8.06,5.65,10.73C693.78,481.63,687.16,470.24,694.41,467.11Z"/><path class="cls-183" d="M627.33,488.17c5.38-4,9-12,15.74-13.28,6.37,1.53-7.26,6.3-.61,8.07-2,1.38-4.72-2.14-6.18.16-.53,3.46,4.7,3.45,7.08,4.38-1.8,4.85-7.18,6.7-9.5,11.18-5.56-.59,1.43-9.21,3.84-11.08C635.24,481.46,625.92,501.77,627.33,488.17Z"/><path class="cls-255" d="M463.16,475.86c3.81-1.12,4.12,3.32,3.09,5.86,2,2.22,5.88-.06,7.8,2.36.56,5.48-8.2,1.58-10.89,2.8Z"/><path class="cls-256" d="M681.6,480.3c2.29-1.78.58,1.34.51,2.51,2.2,1.53,10.78-2.58,9,3-2.51,5.72-10.49.78-15,1.08-4.37.92-4.46-8.78,2-4.05C680,483.32,680.65,481.47,681.6,480.3Z"/><path class="cls-257" d="M642.46,483c3.93-3.61,9.84-.82,13.17,1.31a6.28,6.28,0,0,1-6.43,3,14.72,14.72,0,0,0-5.84.26c-2.38-.93-7.61-.92-7.08-4.38C637.74,480.82,640.51,484.34,642.46,483Z"/><path class="cls-258" d="M492.12,482a124.77,124.77,0,0,0,18,1c.32,8.34-13.11,2.2-18,3.87Z"/><path class="cls-259" d="M599.83,484.82c.62-4.63,6.52-1.31,9.4-1.9l.88.09c2,.7,3.85-.58,5.81-.89,7.5,6.73-10.76,3.78-13.84,4.84A3.26,3.26,0,0,1,599.83,484.82Z"/><path class="cls-260" d="M709.16,482.93c6.31-.05,12.66-.3,19,0,1.27,6.37-7.69,3.13-11,4C713.54,486.85,707.31,488.51,709.16,482.93Z"/><path class="cls-261" d="M356.16,484.93c4.87,2.09,19.44-4.87,17.94,3.9C369.21,486.71,354.66,493.7,356.16,484.93Z"/><path class="cls-262" d="M392.16,488.87c-1.91-7.32,7.83-3.12,12.42-3.41,11.48.68-1.65,4.1-4.64,3.25Q396,488.91,392.16,488.87Z"/><path class="cls-263" d="M428.13,484.88c6,.5,12,.16,18,0,1.1,6.06-6.68,3.8-10.45,3.6C433.42,487.15,426.54,489.8,428.13,484.88Z"/><path class="cls-183" d="M664.37,497.07c5.34-.28-4,4.59-.57,7.11,2.21,3.54,5.67.6,8.37-.4-.07,5.07-7.5,6.18-9.73,1.8C659.84,502.78,661.89,499.09,664.37,497.07Z"/><path class="cls-264" d="M421.06,518.59l1.08-.65c14.27-.15,28.55,0,42.83-.16l2.43,1-1,0c-14.79.08-29.57.31-44.35-.07Z"/><path class="cls-265" d="M563.29,518.21l2.57-.25,1.58,1.23c-1.4.28-2.81.54-4.21.78-32.34-.28-64.67.12-97-.22l.16-1,1,0C499.35,518.63,531.37,519.68,563.29,518.21Z"/><path class="cls-266" d="M330.86,519.14c17.82-.53,35.66-.21,53.49-.19l-.32.9C366.34,519.44,348.33,520.87,330.86,519.14Z"/><path class="cls-267" d="M384.35,519c12-.24,24,.2,36-.43l.74.07,1,.12-.21.92a129.43,129.43,0,0,0-8.95,18.19c-12.28.1-24.56.06-36.84.06,2.78-6,6.07-11.71,8-18Z"/><path class="cls-268" d="M422,518.71c14.78.38,29.56.15,44.35.07l-.16,1c-.17.28-.51.84-.69,1.12-14.46-2.24-29.16-.22-43.71-1.24Z"/><path class="cls-269" d="M596.92,519c15.5-.14,31-.29,46.51.2-13.85,1.78-27.94.15-41.87.65C602.7,524.22,598.67,519.81,596.92,519Z"/><path class="cls-270" d="M646.86,519.07c39.51-.25,79-.47,118.55.12-38.36,1.91-77-.37-115.49,1.16C648.78,520.29,647.86,519.47,646.86,519.07Z"/><path class="cls-271" d="M412.88,537.82a129.43,129.43,0,0,1,8.95-18.19c14.55,1,29.25-1,43.71,1.24-3.21,5.47-5.32,11.51-8.48,17C442.33,537.87,427.6,537.94,412.88,537.82Z"/><path class="cls-272" d="M314.33,528.6a36.62,36.62,0,0,1,4.23,5C316.36,533.31,313.77,531,314.33,528.6Z"/><path class="cls-273" d="M532.84,537.71c6.85-6.17,16.3-7.22,25.11-6.69,4.38,1.89-1.41,2.06-2.84,4,.88,3.83,10.2.69,8,4.14a26.84,26.84,0,0,0-14.71-.18A95.38,95.38,0,0,0,532.84,537.71Z"/><path class="cls-274" d="M511.15,538.9c4.84-3,15.18.1,21.69-1.19A95.38,95.38,0,0,1,548.38,539c-2.33,1.19-9.65,5.28-3.21,5.06A112.37,112.37,0,0,0,536,551c.08-5.48,5.19-8.37,8.42-12-4.94.57-11.24-2.12-15.11,2.09-1.93,2.09-.52-1.14-.46-2.23C522.92,538.75,517,538.84,511.15,538.9Z"/><path class="cls-275" d="M548.38,539a26.84,26.84,0,0,1,14.71.18,19.71,19.71,0,0,1,11,12.9c3.17-4.83-1.76-9.88-6.14-11.54,8.33-4.13,18.11-1.31,27.13-2.21.25,7.14.09,14.31,0,21.47-8.14-.36-18.76,1.24-25.44-.6,1.7-8.57-3.45,5.74-8.17.56-4.19-3.47,2.43-7.64,6-5.25-.49-2.53-5-.59-3.86-3.86-3.54,1.9-4.79,5.44-5.6,9.18-8,.56-16.08-.58-24.1-.14-3.35.06-6.6.21-9.91.24-4.29-.06-8.57-.07-12.83-.06q0-4,0-8c0-4.33-.1-8.67,0-13,5.89-.06,11.77-.15,17.68-.11-.06,1.09-1.47,4.32.46,2.23,3.87-4.21,10.17-1.52,15.11-2.09-3.23,3.66-8.34,6.55-8.42,12a112.37,112.37,0,0,1,9.19-6.9C538.73,544.28,546.05,540.19,548.38,539Z"/><path class="cls-276" d="M510.14,551.88h1q0,4,0,8c0,12.29-.17,24.59,0,36.89,27.94.29,55.9.1,83.85.06.41-7.78-.65-15.67,1.24-23.3.94,7.69-.95,15.54-.11,23.3,21.64.2,43.28,0,64.92.08.09,4.28.09,8.6.09,12.92l-.08,3.06q-107.48,0-215,0c-.15-5.34-.06-10.64,0-16,21.28-.15,42.58.17,63.86-.09l.08-.92C510.33,581.22,510,566.54,510.14,551.88Z"/><path class="cls-89" d="M524,559.93c3.31,0,6.56-.18,9.91-.24.41,3.2.91,6.66,3.16,9.17a22,22,0,0,0,26.16,8.71c1.16,3.22-4.85,4.41-7.44,5.27C541.2,587.5,524.4,575.22,524,559.93Z"/><path class="cls-89" d="M557.83,571.57c4.1-3.1,5.76-9,11.12-10.44,5,3.29,3.77,7.56-.39,11.5a19.78,19.78,0,0,1-25.88.12C547.67,571.72,553,573.69,557.83,571.57Z"/><path class="cls-89" d="M537.05,568.86c-.3-6.7,4.16,1.73,5.63,3.89a19.78,19.78,0,0,0,25.88-.12c0,2.91-3.21,3.9-5.35,4.94A22,22,0,0,1,537.05,568.86Z"/></g></g></svg>