<svg width="120" height="120" viewBox="0 0 120 120" fill="none" xmlns="http://www.w3.org/2000/svg">
<path fill-rule="evenodd" clip-rule="evenodd" d="M77.6977 23.4462C77.7489 25.4472 69.1265 27.2874 58.44 27.556C47.7529 27.8246 39.0485 26.4205 38.9973 24.4196C38.9466 22.4186 47.5685 20.5784 58.2551 20.3098C68.9416 20.0412 77.6465 21.4452 77.6977 23.4462Z" stroke="#01142A" stroke-width="2.41943"/>
<path fill-rule="evenodd" clip-rule="evenodd" d="M75.2793 98.5333C75.3186 100.09 68.3112 101.532 59.6284 101.753C50.9455 101.975 43.875 100.894 43.8356 99.3371C43.7973 97.7803 50.8042 96.3388 59.487 96.1172C68.1704 95.8946 75.2404 96.9765 75.2793 98.5333Z" stroke="#01142A" stroke-width="2.41943"/>
<path d="M77.866 23.5127L78.347 106.614" stroke="#01142A" stroke-width="2.41943"/>
<path d="M39.0168 24.9564L39.5554 107.451C39.6052 109.409 48.3398 111.678 59.0268 111.406C69.7132 111.136 78.3198 108.843 78.2701 106.884" stroke="#01142A" stroke-width="2.41943"/>
<path d="M72.9093 26.6981L69.3223 39.5229L73.6355 47.4918L69.8946 55.911L73.0908 70.2681" stroke="#01142A" stroke-width="2.41943" stroke-linecap="round"/>
<path d="M78.5525 17.9258L80.886 15.4234" stroke="#01142A" stroke-width="2.41943" stroke-linecap="round"/>
<path d="M80.1296 20.132L83.3413 19.6688" stroke="#01142A" stroke-width="2.41943" stroke-linecap="round"/>
<path d="M45.4436 5.3042L65.6061 97.4015" stroke="#01142A" stroke-width="2.41943" stroke-linecap="round"/>
<path opacity="0.500255" fill-rule="evenodd" clip-rule="evenodd" d="M40.8846 92.351C40.8311 90.8183 41.2907 89.3769 42.1036 88.6014C43.8771 86.9088 47.4438 84.2863 52.6496 84.1045C60.3812 83.8345 62.6687 87.9348 67.1583 87.778C69.9181 87.6816 72.8712 86.3179 74.736 85.2803C75.6588 84.7679 76.6458 85.9131 76.6451 87.4872L76.6422 96.3136C76.6422 96.3136 76.049 101.185 58.9922 101.78C41.9353 102.376 41.0478 97.0239 41.0478 97.0239L40.8846 92.351Z" fill="#18BB97"/>
</svg>
