<svg width="255" height="93" viewBox="0 0 255 93" fill="none" xmlns="http://www.w3.org/2000/svg">
<mask id="path-1-outside-1" maskUnits="userSpaceOnUse" x="0" y="0" width="255" height="93" fill="black">
<rect fill="white" width="255" height="93"/>
<path fill-rule="evenodd" clip-rule="evenodd" d="M6 12.275V84H17.5304V36.5654H17.7567L28.1648 67.4283C28.6996 69.0132 30.2266 70.0874 31.9488 70.0874C33.6665 70.0874 35.1903 69.0192 35.7282 67.4388L46.2433 36.5654H46.4696V84H58V12.3321C58 8.83481 55.0763 6 51.4674 6C48.6802 6 46.1999 7.7141 45.2899 10.268L32.1132 47.2992H31.8884L18.5907 10.2154C17.6854 7.69157 15.2315 6 12.4736 6C8.89888 6 6 8.80927 6 12.275ZM79.9701 73.6307C78.4109 72.3266 77.6306 70.2937 77.6306 67.5336V25.4664C77.6306 22.7078 78.4109 20.675 79.9701 19.3693C81.5262 18.0652 83.3716 17.4101 85.5 17.4101C87.6269 17.4101 89.4723 18.0652 91.0314 19.3693C92.5875 20.675 93.3679 22.7078 93.3679 25.4664V67.5336C93.3679 70.2937 92.5875 72.3266 91.0314 73.6307C89.4723 74.9363 87.6269 75.5883 85.5 75.5883C83.3716 75.5883 81.5262 74.9363 79.9701 73.6307ZM67.7093 16.9621C66.5693 19.4246 66 22.2598 66 25.4664V67.5336C66 70.8905 66.5693 73.7611 67.7093 76.1468C68.8494 78.5356 70.3695 80.5117 72.2711 82.0782C74.0962 83.7198 76.1668 84.9503 78.486 85.7711C80.8052 86.5904 83.1417 87 85.5 87C87.8568 87 90.1932 86.5904 92.5124 85.7711C94.8332 84.9503 96.9429 83.7198 98.843 82.0782C100.668 80.5117 102.149 78.5356 103.291 76.1468C104.431 73.7611 105 70.8905 105 67.5336V25.4664C105 22.2598 104.431 19.4246 103.291 16.9621C102.149 14.5012 100.668 12.453 98.843 10.8098C96.9429 9.24338 94.8332 8.05127 92.5124 7.22892C90.1932 6.40964 87.8568 6 85.5 6C83.1417 6 80.8052 6.40964 78.486 7.22892C76.1668 8.05127 74.0962 9.24338 72.2711 10.8098C70.3695 12.453 68.8494 14.5012 67.7093 16.9621ZM142 6V67.3711C142 72.8631 140.301 77.4501 136.905 81.1336C135.205 82.939 133.195 84.3685 130.87 85.422C128.543 86.474 125.831 87 122.73 87C119.111 87 116.102 86.1924 113.704 84.5742C111.305 82.9576 109.403 81.3595 108 79.78L116.86 72.5599C117.671 73.3891 118.614 74.0837 119.685 74.6469C120.754 75.2115 121.879 75.4931 123.061 75.4931C123.726 75.4931 124.502 75.3632 125.389 75.0986C126.274 74.8356 127.122 74.3266 127.934 73.5748C128.745 72.8987 129.412 71.9395 129.927 70.6973C130.443 69.4581 130.703 67.8213 130.703 65.7901V6H142ZM163 84H153V6H163V84ZM182.916 84V16.516H175.254C172.351 16.516 170 14.1634 170 11.258C170 8.35408 172.351 6 175.254 6H201.746C204.648 6 207 8.35408 207 11.258C207 14.1634 204.648 16.516 201.746 16.516H194.081V84H182.916ZM223.968 73.6307C222.41 72.3266 221.632 70.2937 221.632 67.5336V25.4664C221.632 22.7078 222.41 20.675 223.968 19.3693C225.526 18.0652 227.371 17.4101 229.501 17.4101C231.628 17.4101 233.471 18.0652 235.03 19.3693C236.588 20.675 237.368 22.7078 237.368 25.4664V67.5336C237.368 70.2937 236.588 72.3266 235.03 73.6307C233.471 74.9363 231.628 75.5883 229.501 75.5883C227.371 75.5883 225.526 74.9363 223.968 73.6307ZM211.711 16.9621C210.571 19.4246 210 22.2598 210 25.4664V67.5336C210 70.8905 210.571 73.7611 211.711 76.1468C212.851 78.5356 214.371 80.5117 216.271 82.0782C218.096 83.7198 220.166 84.9503 222.489 85.7711C224.805 86.5904 227.143 87 229.501 87C231.854 87 234.194 86.5904 236.514 85.7711C238.831 84.9503 240.942 83.7198 242.842 82.0782C244.667 80.5117 246.151 78.5356 247.289 76.1468C248.431 73.7611 249 70.8905 249 67.5336V25.4664C249 22.2598 248.431 19.4246 247.289 16.9621C246.151 14.5012 244.667 12.453 242.842 10.8098C240.942 9.24338 238.831 8.05127 236.514 7.22892C234.194 6.40964 231.854 6 229.501 6C227.143 6 224.805 6.40964 222.489 7.22892C220.166 8.05127 218.096 9.24338 216.271 10.8098C214.371 12.453 212.851 14.5012 211.711 16.9621Z"/>
</mask>
<path fill-rule="evenodd" clip-rule="evenodd" d="M6 12.275V84H17.5304V36.5654H17.7567L28.1648 67.4283C28.6996 69.0132 30.2266 70.0874 31.9488 70.0874C33.6665 70.0874 35.1903 69.0192 35.7282 67.4388L46.2433 36.5654H46.4696V84H58V12.3321C58 8.83481 55.0763 6 51.4674 6C48.6802 6 46.1999 7.7141 45.2899 10.268L32.1132 47.2992H31.8884L18.5907 10.2154C17.6854 7.69157 15.2315 6 12.4736 6C8.89888 6 6 8.80927 6 12.275ZM79.9701 73.6307C78.4109 72.3266 77.6306 70.2937 77.6306 67.5336V25.4664C77.6306 22.7078 78.4109 20.675 79.9701 19.3693C81.5262 18.0652 83.3716 17.4101 85.5 17.4101C87.6269 17.4101 89.4723 18.0652 91.0314 19.3693C92.5875 20.675 93.3679 22.7078 93.3679 25.4664V67.5336C93.3679 70.2937 92.5875 72.3266 91.0314 73.6307C89.4723 74.9363 87.6269 75.5883 85.5 75.5883C83.3716 75.5883 81.5262 74.9363 79.9701 73.6307ZM67.7093 16.9621C66.5693 19.4246 66 22.2598 66 25.4664V67.5336C66 70.8905 66.5693 73.7611 67.7093 76.1468C68.8494 78.5356 70.3695 80.5117 72.2711 82.0782C74.0962 83.7198 76.1668 84.9503 78.486 85.7711C80.8052 86.5904 83.1417 87 85.5 87C87.8568 87 90.1932 86.5904 92.5124 85.7711C94.8332 84.9503 96.9429 83.7198 98.843 82.0782C100.668 80.5117 102.149 78.5356 103.291 76.1468C104.431 73.7611 105 70.8905 105 67.5336V25.4664C105 22.2598 104.431 19.4246 103.291 16.9621C102.149 14.5012 100.668 12.453 98.843 10.8098C96.9429 9.24338 94.8332 8.05127 92.5124 7.22892C90.1932 6.40964 87.8568 6 85.5 6C83.1417 6 80.8052 6.40964 78.486 7.22892C76.1668 8.05127 74.0962 9.24338 72.2711 10.8098C70.3695 12.453 68.8494 14.5012 67.7093 16.9621ZM142 6V67.3711C142 72.8631 140.301 77.4501 136.905 81.1336C135.205 82.939 133.195 84.3685 130.87 85.422C128.543 86.474 125.831 87 122.73 87C119.111 87 116.102 86.1924 113.704 84.5742C111.305 82.9576 109.403 81.3595 108 79.78L116.86 72.5599C117.671 73.3891 118.614 74.0837 119.685 74.6469C120.754 75.2115 121.879 75.4931 123.061 75.4931C123.726 75.4931 124.502 75.3632 125.389 75.0986C126.274 74.8356 127.122 74.3266 127.934 73.5748C128.745 72.8987 129.412 71.9395 129.927 70.6973C130.443 69.4581 130.703 67.8213 130.703 65.7901V6H142ZM163 84H153V6H163V84ZM182.916 84V16.516H175.254C172.351 16.516 170 14.1634 170 11.258C170 8.35408 172.351 6 175.254 6H201.746C204.648 6 207 8.35408 207 11.258C207 14.1634 204.648 16.516 201.746 16.516H194.081V84H182.916ZM223.968 73.6307C222.41 72.3266 221.632 70.2937 221.632 67.5336V25.4664C221.632 22.7078 222.41 20.675 223.968 19.3693C225.526 18.0652 227.371 17.4101 229.501 17.4101C231.628 17.4101 233.471 18.0652 235.03 19.3693C236.588 20.675 237.368 22.7078 237.368 25.4664V67.5336C237.368 70.2937 236.588 72.3266 235.03 73.6307C233.471 74.9363 231.628 75.5883 229.501 75.5883C227.371 75.5883 225.526 74.9363 223.968 73.6307ZM211.711 16.9621C210.571 19.4246 210 22.2598 210 25.4664V67.5336C210 70.8905 210.571 73.7611 211.711 76.1468C212.851 78.5356 214.371 80.5117 216.271 82.0782C218.096 83.7198 220.166 84.9503 222.489 85.7711C224.805 86.5904 227.143 87 229.501 87C231.854 87 234.194 86.5904 236.514 85.7711C238.831 84.9503 240.942 83.7198 242.842 82.0782C244.667 80.5117 246.151 78.5356 247.289 76.1468C248.431 73.7611 249 70.8905 249 67.5336V25.4664C249 22.2598 248.431 19.4246 247.289 16.9621C246.151 14.5012 244.667 12.453 242.842 10.8098C240.942 9.24338 238.831 8.05127 236.514 7.22892C234.194 6.40964 231.854 6 229.501 6C227.143 6 224.805 6.40964 222.489 7.22892C220.166 8.05127 218.096 9.24338 216.271 10.8098C214.371 12.453 212.851 14.5012 211.711 16.9621Z" fill="#01142A"/>
<path d="M6 84H0V90H6V84ZM17.5304 84V90H23.5304V84H17.5304ZM17.5304 36.5654V30.5654H11.5304V36.5654H17.5304ZM17.7567 36.5654L23.4421 34.6481L22.0653 30.5654H17.7567V36.5654ZM28.1648 67.4283L22.4794 69.3456L22.4798 69.3467L28.1648 67.4283ZM35.7282 67.4388L30.0486 65.5044L30.0482 65.5055L35.7282 67.4388ZM46.2433 36.5654V30.5654H41.9483L40.5636 34.631L46.2433 36.5654ZM46.4696 36.5654H52.4696V30.5654H46.4696V36.5654ZM46.4696 84H40.4696V90H46.4696V84ZM58 84V90H64V84H58ZM45.2899 10.268L39.6379 8.25415L39.6371 8.25656L45.2899 10.268ZM32.1132 47.2992V53.2992H36.3467L37.766 49.3107L32.1132 47.2992ZM31.8884 47.2992L26.2405 49.3245L27.6658 53.2992H31.8884V47.2992ZM18.5907 10.2154L24.2386 8.19017L24.2384 8.18955L18.5907 10.2154ZM79.9701 73.6307L83.8268 69.0343L83.8196 69.0283L79.9701 73.6307ZM79.9701 19.3693L83.8222 23.9695L83.8241 23.9679L79.9701 19.3693ZM91.0314 19.3693L94.8881 14.773L94.8809 14.7669L91.0314 19.3693ZM91.0314 73.6307L94.8835 78.2308L94.8854 78.2292L91.0314 73.6307ZM67.7093 16.9621L62.2652 14.44L62.2646 14.4413L67.7093 16.9621ZM67.7093 76.1468L73.1242 73.5625L73.1229 73.5598L67.7093 76.1468ZM72.2711 82.0782L76.2837 77.6173L76.1867 77.53L76.0859 77.447L72.2711 82.0782ZM78.486 85.7711L76.4842 91.4273L76.4875 91.4285L78.486 85.7711ZM92.5124 85.7711L94.5109 91.4285L94.5131 91.4277L92.5124 85.7711ZM98.843 82.0782L94.9352 77.5253L94.9278 77.5316L94.9204 77.538L98.843 82.0782ZM103.291 76.1468L108.704 78.734L108.704 78.7338L103.291 76.1468ZM103.291 16.9621L108.735 14.4413L108.734 14.4372L103.291 16.9621ZM98.843 10.8098L102.858 6.35083L102.761 6.26337L102.66 6.18023L98.843 10.8098ZM92.5124 7.22892L94.5164 1.57346L94.5109 1.57154L92.5124 7.22892ZM78.486 7.22892L76.4875 1.57154L76.4809 1.57389L78.486 7.22892ZM72.2711 10.8098L68.3633 6.25691L68.3558 6.26337L68.3483 6.26985L72.2711 10.8098ZM142 6H148V0H142V6ZM136.905 81.1336L141.274 85.2461L141.295 85.2234L141.316 85.2005L136.905 81.1336ZM130.87 85.422L133.342 90.8891L133.346 90.8872L130.87 85.422ZM113.704 84.5742L117.06 79.6007L117.057 79.5983L113.704 84.5742ZM108 79.78L104.21 75.1288L99.356 79.0841L103.514 83.7649L108 79.78ZM116.86 72.5599L121.149 68.3647L117.318 64.4468L113.07 67.9087L116.86 72.5599ZM119.685 74.6469L122.487 69.3414L122.478 69.3366L119.685 74.6469ZM125.389 75.0986L123.68 69.347L123.674 69.3489L125.389 75.0986ZM127.934 73.5748L124.092 68.9661L123.973 69.0656L123.859 69.171L127.934 73.5748ZM129.927 70.6973L124.388 68.3895L124.384 68.4002L129.927 70.6973ZM130.703 6V0H124.703V6H130.703ZM153 84H147V90H153V84ZM163 84V90H169V84H163ZM153 6V0H147V6H153ZM163 6H169V0H163V6ZM182.916 16.516H188.916V10.516H182.916V16.516ZM182.916 84H176.916V90H182.916V84ZM194.081 16.516V10.516H188.081V16.516H194.081ZM194.081 84V90H200.081V84H194.081ZM223.968 73.6307L227.822 69.0325L227.82 69.0303L223.968 73.6307ZM223.968 19.3693L220.116 14.7689L220.114 14.7712L223.968 19.3693ZM235.03 19.3693L238.885 14.7712L238.88 14.767L235.03 19.3693ZM235.03 73.6307L231.179 69.0303L231.178 69.0306L235.03 73.6307ZM211.711 16.9621L206.267 14.4401L206.266 14.4414L211.711 16.9621ZM211.711 76.1468L217.126 73.5626L217.124 73.5599L211.711 76.1468ZM216.271 82.0782L220.284 77.6174L220.187 77.5309L220.088 77.4486L216.271 82.0782ZM222.489 85.7711L224.49 80.1146L224.488 80.1141L222.489 85.7711ZM236.514 85.7711L238.512 91.4289L238.519 91.4264L236.514 85.7711ZM242.842 82.0782L238.934 77.5253L238.926 77.5317L238.919 77.538L242.842 82.0782ZM247.289 76.1468L241.877 73.557L241.873 73.5655L247.289 76.1468ZM247.289 16.9621L241.844 19.4813L241.846 19.4857L247.289 16.9621ZM242.842 10.8098L246.856 6.3509L246.759 6.26344L246.658 6.1803L242.842 10.8098ZM236.514 7.22892L238.522 1.57476L238.512 1.57114L236.514 7.22892ZM222.489 7.22892L220.488 1.57241L220.486 1.57307L222.489 7.22892ZM216.271 10.8098L212.363 6.257L212.355 6.26425L212.346 6.27152L216.271 10.8098ZM12 84V12.275H0V84H12ZM17.5304 78H6V90H17.5304V78ZM11.5304 36.5654V84H23.5304V36.5654H11.5304ZM17.7567 30.5654H17.5304V42.5654H17.7567V30.5654ZM33.8502 65.511L23.4421 34.6481L12.0713 38.4828L22.4794 69.3456L33.8502 65.511ZM31.9488 64.0874C32.7019 64.0874 33.5303 64.5629 33.8498 65.5099L22.4798 69.3467C23.869 73.4635 27.7513 76.0874 31.9488 76.0874V64.0874ZM30.0482 65.5055C30.3697 64.561 31.1977 64.0874 31.9488 64.0874V76.0874C36.1352 76.0874 40.0109 73.4774 41.4082 69.3721L30.0482 65.5055ZM40.5636 34.631L30.0486 65.5044L41.4079 69.3732L51.9229 38.4998L40.5636 34.631ZM46.4696 30.5654H46.2433V42.5654H46.4696V30.5654ZM52.4696 84V36.5654H40.4696V84H52.4696ZM58 78H46.4696V90H58V78ZM52 12.3321V84H64V12.3321H52ZM51.4674 12C51.6775 12 51.8225 12.077 51.9108 12.1626C51.9959 12.245 52 12.3004 52 12.3321H64C64 5.34673 58.2129 0 51.4674 0V12ZM50.9418 12.2818C50.9687 12.2063 51.1225 12 51.4674 12V0C46.2378 0 41.431 3.22189 39.6379 8.25415L50.9418 12.2818ZM37.766 49.3107L50.9427 12.2794L39.6371 8.25656L26.4604 45.2878L37.766 49.3107ZM31.8884 53.2992H32.1132V41.2992H31.8884V53.2992ZM12.9429 12.2406L26.2405 49.3245L37.5363 45.274L24.2386 8.19017L12.9429 12.2406ZM12.4736 12C12.6205 12 12.7388 12.0442 12.8221 12.1016C12.9043 12.1583 12.9327 12.2122 12.9431 12.2413L24.2384 8.18955C22.4459 3.1925 17.6679 0 12.4736 0V12ZM12 12.275C12 12.2534 12.003 12.2436 12.008 12.2323C12.0149 12.2163 12.0329 12.1843 12.0722 12.1462C12.1505 12.0703 12.2811 12 12.4736 12V0C5.76321 0 0 5.32028 0 12.275H12ZM71.6306 67.5336C71.6306 71.3996 72.7563 75.419 76.1207 78.233L83.8196 69.0283C83.8786 69.0777 83.8682 69.1111 83.8173 68.9784C83.7506 68.8045 83.6306 68.367 83.6306 67.5336H71.6306ZM71.6306 25.4664V67.5336H83.6306V25.4664H71.6306ZM76.118 14.7692C72.7572 17.5835 71.6306 21.6001 71.6306 25.4664H83.6306C83.6306 24.6343 83.7504 24.197 83.8173 24.0227C83.8684 23.8896 83.8795 23.9215 83.8222 23.9695L76.118 14.7692ZM85.5 11.4101C82.032 11.4101 78.8047 12.5175 76.1162 14.7708L83.8241 23.9679C84.2476 23.6129 84.7111 23.4101 85.5 23.4101V11.4101ZM94.8809 14.7669C92.1925 12.5184 88.9681 11.4101 85.5 11.4101V23.4101C86.2856 23.4101 86.752 23.612 87.182 23.9717L94.8809 14.7669ZM99.3679 25.4664C99.3679 21.6005 98.2417 17.5869 94.8881 14.773L87.1748 23.9657C87.1174 23.9175 87.1292 23.8862 87.1808 24.0208C87.248 24.1963 87.3679 24.6344 87.3679 25.4664H99.3679ZM99.3679 67.5336V25.4664H87.3679V67.5336H99.3679ZM94.8854 78.2292C98.2426 75.4157 99.3679 71.3993 99.3679 67.5336H87.3679C87.3679 68.3668 87.2479 68.8052 87.1808 68.9803C87.1294 69.1144 87.1183 69.0817 87.1775 69.0321L94.8854 78.2292ZM85.5 81.5883C88.962 81.5883 92.1894 80.4868 94.8835 78.2308L87.1793 69.0305C86.7551 69.3858 86.2918 69.5883 85.5 69.5883V81.5883ZM76.1135 78.227C78.8078 80.4877 82.0382 81.5883 85.5 81.5883V69.5883C84.705 69.5883 84.2446 69.3849 83.8268 69.0343L76.1135 78.227ZM72 25.4664C72 22.9725 72.4408 21.0236 73.1541 19.4829L62.2646 14.4413C60.6977 17.8255 60 21.5471 60 25.4664H72ZM72 67.5336V25.4664H60V67.5336H72ZM73.1229 73.5598C72.4588 72.1699 72 70.2301 72 67.5336H60C60 71.551 60.6797 75.3523 62.2957 78.7338L73.1229 73.5598ZM76.0859 77.447C74.9097 76.4781 73.9151 75.2197 73.1242 73.5625L62.2944 78.7311C63.7836 81.8515 65.8292 84.5453 68.4564 86.7093L76.0859 77.447ZM80.4878 80.1149C78.9093 79.5562 77.5223 78.7314 76.2837 77.6173L68.2586 86.539C70.6701 88.7082 73.4242 90.3443 76.4842 91.4273L80.4878 80.1149ZM85.5 81C83.8521 81 82.1904 80.7163 80.4845 80.1137L76.4875 91.4285C79.4201 92.4644 82.4313 93 85.5 93V81ZM90.5139 80.1137C88.8078 80.7164 87.1461 81 85.5 81V93C88.5674 93 91.5786 92.4643 94.5109 91.4285L90.5139 80.1137ZM94.9204 77.538C93.5746 78.7007 92.1141 79.5477 90.5118 80.1144L94.5131 91.4277C97.5523 90.3528 100.311 88.7389 102.766 86.6184L94.9204 77.538ZM97.8771 73.5596C97.058 75.2736 96.0647 76.5558 94.9352 77.5253L102.751 86.6311C105.271 84.4676 107.24 81.7977 108.704 78.734L97.8771 73.5596ZM99 67.5336C99 70.2301 98.5412 72.1699 97.8771 73.5598L108.704 78.7338C110.32 75.3523 111 71.551 111 67.5336H99ZM99 25.4664V67.5336H111V25.4664H99ZM97.8459 19.4829C98.5592 21.0236 99 22.9725 99 25.4664H111C111 21.5471 110.302 17.8255 108.735 14.4413L97.8459 19.4829ZM94.8284 15.2688C95.992 16.3165 97.0113 17.6839 97.8478 19.4871L108.734 14.4372C107.287 11.3185 105.344 8.58954 102.858 6.35083L94.8284 15.2688ZM90.5085 12.8844C92.1723 13.4739 93.6681 14.3196 95.0264 15.4394L102.66 6.18023C100.218 4.16711 97.4941 2.62861 94.5164 1.57347L90.5085 12.8844ZM85.5 12C87.1461 12 88.8078 12.2836 90.5139 12.8863L94.5109 1.57154C91.5786 0.535668 88.5674 0 85.5 0V12ZM80.4845 12.8863C82.1904 12.2837 83.8521 12 85.5 12V0C82.4312 0 79.4201 0.535589 76.4875 1.57154L80.4845 12.8863ZM76.179 15.3627C77.4285 14.2903 78.8502 13.4658 80.4912 12.884L76.4809 1.57389C73.4833 2.63675 70.7639 4.19647 68.3633 6.25691L76.179 15.3627ZM73.1535 19.4842C73.963 17.7368 74.9848 16.3946 76.194 15.3498L68.3483 6.26985C65.7542 8.51138 63.7357 11.2656 62.2652 14.44L73.1535 19.4842ZM148 67.3711V6H136V67.3711H148ZM141.316 85.2005C145.835 80.2994 148 74.2142 148 67.3711H136C136 71.5121 134.767 74.6009 132.493 77.0668L141.316 85.2005ZM133.346 90.8872C136.364 89.5197 139.023 87.6374 141.274 85.2461L132.536 77.0212C131.388 78.2406 130.025 79.2173 128.393 79.9569L133.346 90.8872ZM122.73 93C126.505 93 130.09 92.3592 133.342 90.8891L128.398 79.9549C126.996 80.5888 125.157 81 122.73 81V93ZM110.348 89.5478C113.962 91.9866 118.218 93 122.73 93V81C120.003 81 118.242 80.3983 117.06 79.6007L110.348 89.5478ZM103.514 83.7649C105.35 85.8306 107.676 87.7478 110.352 89.5502L117.057 79.5983C114.933 78.1674 113.457 76.8884 112.486 75.795L103.514 83.7649ZM113.07 67.9087L104.21 75.1288L111.79 84.4312L120.65 77.2111L113.07 67.9087ZM122.478 69.3366C121.929 69.0479 121.498 68.7212 121.149 68.3647L112.57 76.7551C113.844 78.0571 115.299 79.1196 116.892 79.9572L122.478 69.3366ZM123.061 69.4931C122.877 69.4931 122.711 69.4598 122.487 69.3414L116.883 79.9524C118.797 80.9633 120.882 81.4931 123.061 81.4931V69.4931ZM123.674 69.3489C123.428 69.4222 123.253 69.4601 123.142 69.4789C123.03 69.4979 123.007 69.4931 123.061 69.4931V81.4931C124.474 81.4931 125.847 81.223 127.104 80.8483L123.674 69.3489ZM123.859 69.171C123.719 69.3001 123.633 69.3564 123.605 69.3732C123.58 69.3881 123.606 69.369 123.68 69.347L127.097 80.8502C129.03 80.276 130.661 79.226 132.009 77.9785L123.859 69.171ZM124.384 68.4002C124.146 68.9734 123.989 69.0524 124.092 68.9661L131.776 78.1834C133.501 76.7451 134.677 74.9057 135.469 72.9944L124.384 68.4002ZM124.703 65.7901C124.703 67.3923 124.486 68.1552 124.388 68.3895L135.465 73.0051C136.4 70.761 136.703 68.2504 136.703 65.7901H124.703ZM124.703 6V65.7901H136.703V6H124.703ZM142 0H130.703V12H142V0ZM153 90H163V78H153V90ZM147 6V84H159V6H147ZM163 0H153V12H163V0ZM169 84V6H157V84H169ZM176.916 16.516V84H188.916V16.516H176.916ZM175.254 22.516H182.916V10.516H175.254V22.516ZM164 11.258C164 17.473 169.033 22.516 175.254 22.516V10.516C175.669 10.516 176 10.8538 176 11.258H164ZM175.254 0C169.032 0 164 5.04557 164 11.258H176C176 11.6626 175.67 12 175.254 12V0ZM201.746 0H175.254V12H201.746V0ZM213 11.258C213 5.04447 207.965 0 201.746 0V12C201.33 12 201 11.6637 201 11.258H213ZM201.746 22.516C207.964 22.516 213 17.4741 213 11.258H201C201 10.8527 201.331 10.516 201.746 10.516V22.516ZM194.081 22.516H201.746V10.516H194.081V22.516ZM200.081 84V16.516H188.081V84H200.081ZM182.916 90H194.081V78H182.916V90ZM215.632 67.5336C215.632 71.396 216.754 75.4156 220.116 78.2311L227.82 69.0303C227.88 69.0806 227.87 69.1145 227.819 68.9813C227.752 68.8067 227.632 68.3682 227.632 67.5336H215.632ZM215.632 25.4664V67.5336H227.632V25.4664H215.632ZM220.114 14.7712C216.755 17.5869 215.632 21.6038 215.632 25.4664H227.632C227.632 24.633 227.752 24.1948 227.819 24.0198C227.87 23.8861 227.881 23.9186 227.822 23.9675L220.114 14.7712ZM229.501 11.4101C226.031 11.4101 222.805 12.5175 220.116 14.7689L227.82 23.9697C228.246 23.613 228.71 23.4101 229.501 23.4101V11.4101ZM238.88 14.767C236.193 12.5192 232.97 11.4101 229.501 11.4101V23.4101C230.285 23.4101 230.75 23.6113 231.181 23.9716L238.88 14.767ZM243.368 25.4664C243.368 21.6004 242.242 17.5853 238.885 14.7712L231.176 23.9675C231.119 23.9194 231.13 23.8878 231.181 24.0217C231.248 24.1966 231.368 24.6343 231.368 25.4664H243.368ZM243.368 67.5336V25.4664H231.368V67.5336H243.368ZM238.882 78.2311C242.243 75.4172 243.368 71.3993 243.368 67.5336H231.368C231.368 68.3669 231.248 68.8049 231.181 68.9795C231.13 69.1129 231.12 69.0798 231.179 69.0303L238.882 78.2311ZM229.501 81.5883C232.964 81.5883 236.189 80.4861 238.883 78.2307L231.178 69.0306C230.753 69.3865 230.291 69.5883 229.501 69.5883V81.5883ZM220.114 78.2288C222.808 80.4878 226.037 81.5883 229.501 81.5883V69.5883C228.704 69.5883 228.243 69.3848 227.822 69.0325L220.114 78.2288ZM216 25.4664C216 22.9749 216.441 21.0254 217.156 19.4829L206.266 14.4414C204.7 17.8238 204 21.5448 204 25.4664H216ZM216 67.5336V25.4664H204V67.5336H216ZM217.124 73.5599C216.459 72.1683 216 70.2277 216 67.5336H204C204 71.5533 204.682 75.3539 206.297 78.7337L217.124 73.5599ZM220.088 77.4486C218.912 76.4792 217.917 75.2199 217.126 73.5626L206.296 78.731C207.785 81.8513 209.83 84.5443 212.454 86.7077L220.088 77.4486ZM224.488 80.1141C222.908 79.5555 221.522 78.7311 220.284 77.6174L212.258 86.539C214.67 88.7085 217.425 90.345 220.489 91.4281L224.488 80.1141ZM229.501 81C227.852 81 226.19 80.716 224.49 80.1146L220.488 91.4276C223.419 92.4647 226.433 93 229.501 93V81ZM234.517 80.1133C232.809 80.7163 231.144 81 229.501 81V93C232.565 93 235.579 92.4644 238.512 91.4289L234.517 80.1133ZM238.919 77.538C237.574 78.7004 236.111 79.5484 234.51 80.1157L238.519 91.4264C241.55 90.3521 244.31 88.7393 246.764 86.6183L238.919 77.538ZM241.873 73.5655C241.06 75.2711 240.066 76.5533 238.934 77.5253L246.75 86.631C249.267 84.4701 251.241 81.8002 252.706 78.7281L241.873 73.5655ZM243 67.5336C243 70.2303 242.541 72.1687 241.877 73.557L252.701 78.7366C254.32 75.3534 255 71.5508 255 67.5336H243ZM243 25.4664V67.5336H255V25.4664H243ZM241.846 19.4857C242.559 21.0248 243 22.9724 243 25.4664H255C255 21.5472 254.302 17.8244 252.733 14.4385L241.846 19.4857ZM238.827 15.2688C239.993 16.319 241.013 17.6864 241.844 19.4813L252.735 14.4429C251.288 11.316 249.34 8.58703 246.856 6.3509L238.827 15.2688ZM234.507 12.8831C236.169 13.4733 237.667 14.32 239.025 15.4394L246.658 6.1803C244.216 4.16675 241.492 2.62927 238.522 1.57477L234.507 12.8831ZM229.501 12C231.144 12 232.809 12.2837 234.517 12.8867L238.512 1.57114C235.579 0.535584 232.565 0 229.501 0V12ZM224.49 12.8854C226.19 12.284 227.852 12 229.501 12V0C226.433 0 223.419 0.535317 220.488 1.57241L224.49 12.8854ZM220.179 15.3627C221.428 14.2905 222.849 13.4665 224.491 12.8848L220.486 1.57307C217.484 2.63608 214.764 4.19623 212.363 6.257L220.179 15.3627ZM217.155 19.4841C217.965 17.7365 218.987 16.3936 220.196 15.3481L212.346 6.27152C209.755 8.51239 207.737 11.2659 206.267 14.4401L217.155 19.4841Z" fill="white" mask="url(#path-1-outside-1)"/>
</svg>
