<svg width="40" height="41" viewBox="0 0 40 41" fill="none" xmlns="http://www.w3.org/2000/svg">
<path d="M30.0464 28.5058C29.991 28.505 29.938 28.4828 29.8989 28.4439C29.8597 28.4051 29.8373 28.3526 29.8364 28.2977V11.2635C29.8379 10.9962 29.7726 10.7328 29.6464 10.4966C29.5202 10.2604 29.337 10.0588 29.1132 9.90983C28.8894 9.76085 28.6318 9.66907 28.3635 9.64268C28.0953 9.61629 27.8246 9.65612 27.5756 9.75859C25.3337 10.6745 23.2193 11.8711 21.2839 13.3191C17.3564 16.2713 15.7383 19.9695 15.7383 23.4948C15.7383 27.0201 18.096 28.4385 20.0113 28.4385C21.9266 28.4385 24.3199 26.7767 24.3199 23.4948C24.3199 20.2128 23.4608 18.868 22.34 16.9501C23.385 16.398 24.5074 16.0041 25.67 15.7814C25.7507 15.7652 25.8341 15.7671 25.914 15.7868C25.9939 15.8066 26.0685 15.8437 26.1321 15.8955C26.1958 15.9473 26.2471 16.0124 26.2822 16.0863C26.3174 16.1602 26.3355 16.2409 26.3353 16.3225V28.5058C26.3353 28.6881 26.3716 28.8687 26.4421 29.0371C26.5126 29.2055 26.6159 29.3585 26.7461 29.4873C26.8763 29.6161 27.0308 29.7181 27.2009 29.7876C27.3709 29.8571 27.5531 29.8926 27.7371 29.8922H31.235V28.5058H30.0464ZM20.0339 27.6989C19.2039 27.6989 17.857 26.6134 17.857 23.7541C17.857 20.8948 19.6076 18.9865 20.0501 18.6887C20.428 18.9545 22.2464 20.866 22.2464 23.7541C22.2464 26.6423 20.8478 27.6989 20.021 27.6989H20.0339ZM16.536 16.3769C15.8491 16.0775 15.1278 15.8625 14.3882 15.7366C14.3083 15.7235 14.2265 15.7279 14.1485 15.7494C14.0706 15.771 13.9983 15.8092 13.9367 15.8614C13.8752 15.9135 13.8259 15.9784 13.7923 16.0514C13.7587 16.1244 13.7416 16.2038 13.7422 16.2841V28.5026C13.7422 28.8703 13.5949 29.2229 13.3326 29.4829C13.0703 29.7429 12.7146 29.889 12.3437 29.889H8.75861V28.5026H10.0311C10.0866 28.5018 10.1395 28.4796 10.1787 28.4407C10.2179 28.4019 10.2403 28.3494 10.2411 28.2945V11.2859C10.241 11.0192 10.3072 10.7566 10.4338 10.5212C10.5605 10.2859 10.7436 10.0852 10.9671 9.93671C11.1907 9.78825 11.4476 9.69668 11.7153 9.67008C11.983 9.64348 12.2532 9.68266 12.502 9.78419C14.8362 10.7185 17.0278 11.9708 19.0133 13.5048C18.0585 14.3486 17.2211 15.3144 16.5231 16.3769H16.536Z" fill="url(#paint0_linear)"/>
<path d="M20 2.54311C23.4528 2.54249 26.8283 3.56588 29.6995 5.48386C32.5707 7.40184 34.8087 10.1283 36.1305 13.3183C37.4523 16.5084 37.7984 20.0188 37.1252 23.4056C36.452 26.7924 34.7896 29.9036 32.3483 32.3455C29.907 34.7874 26.7965 36.4505 23.4101 37.1244C20.0236 37.7983 16.5134 37.4527 13.3234 36.1314C10.1333 34.8101 7.40672 32.5724 5.48837 29.7013C3.57002 26.8302 2.54609 23.4547 2.54609 20.0016C2.55282 15.3739 4.39377 10.9377 7.66546 7.66514C10.9372 4.39259 15.3727 2.55068 20 2.54311V2.54311ZM20 0C16.0444 0 12.1776 1.17308 8.8886 3.37088C5.59962 5.56868 3.03617 8.69252 1.52242 12.3473C0.00866476 16.0021 -0.387401 20.0238 0.384304 23.9037C1.15601 27.7837 3.06082 31.3476 5.85787 34.1449C8.65492 36.9421 12.2186 38.8471 16.0982 39.6189C19.9778 40.3906 23.9992 39.9945 27.6537 38.4807C31.3082 36.9668 34.4318 34.4031 36.6294 31.1139C38.827 27.8246 40 23.9575 40 20.0016C40 14.6969 37.8929 9.60937 34.1421 5.85835C30.3914 2.10732 25.3043 0 20 0V0Z" fill="url(#paint1_linear)"/>
<defs>
<linearGradient id="paint0_linear" x1="9.88582" y1="31.0097" x2="36.3038" y2="4.3614" gradientUnits="userSpaceOnUse">
<stop offset="0.08" stop-color="#18D995"/>
<stop offset="0.73" stop-color="#07CDDF"/>
<stop offset="1" stop-color="#00C8FF"/>
</linearGradient>
<linearGradient id="paint1_linear" x1="2.00604" y1="42.2099" x2="53.9404" y2="-5.00171" gradientUnits="userSpaceOnUse">
<stop offset="0.08" stop-color="#18D995"/>
<stop offset="0.73" stop-color="#07CDDF"/>
<stop offset="1" stop-color="#00C8FF"/>
</linearGradient>
</defs>
</svg>
