<svg width="36" height="36" viewBox="0 0 36 36" fill="none" xmlns="http://www.w3.org/2000/svg">
<circle cx="18" cy="18" r="18" fill="#18BB97"/>
<path fill-rule="evenodd" clip-rule="evenodd" d="M20.1508 10.1505C20.7001 9.87268 21.3426 9.98555 21.7914 10.4388L25.4906 14.1745C26.1192 14.8093 26.1735 15.9 25.6118 16.6106C25.0501 17.3212 24.0852 17.3826 23.4565 16.7477L22.3008 15.5806V24.2746C22.3008 25.2275 21.6174 26 20.7744 26C19.9313 26 19.2479 25.2275 19.2479 24.2746V11.7254C19.2479 11.0451 19.6015 10.4284 20.1508 10.1505ZM15.2256 10C16.0687 10 16.7521 10.7725 16.7521 11.7254V24.2746C16.7521 24.9549 16.3985 25.5716 15.8492 25.8495C15.2999 26.1273 14.6574 26.0144 14.2086 25.5612L10.5094 21.8255C9.88078 21.1907 9.82648 20.1 10.3882 19.3894C10.9499 18.6788 11.9148 18.6175 12.5435 19.2523L13.6992 20.4194V11.7254C13.6992 10.7725 14.3826 10 15.2256 10Z" fill="white"/>
</svg>
