<?xml version="1.0" encoding="UTF-8"?>
<svg width="39px" height="39px" viewBox="0 0 39 39" version="1.1" xmlns="http://www.w3.org/2000/svg" xmlns:xlink="http://www.w3.org/1999/xlink">
    <title>编组 5</title>
    <g id="页面-1" stroke="none" stroke-width="1" fill="none" fill-rule="evenodd">
        <g id="Swap---Home-——1920" transform="translate(-1185.000000, -690.000000)">
            <g id="编组-5" transform="translate(1185.000000, 690.000000)">
                <circle id="椭圆形" fill="#5DDA98" cx="19.5" cy="19.5" r="19.5"></circle>
                <path d="M21.0837851,5.89988909 L16.7288498,12.4103808 C16.4398163,12.8424769 16.5557914,13.427068 16.9878875,13.7161016 C17.1427623,13.8196989 17.3248998,13.875 17.5112291,13.875 L18.2733073,13.875 C18.825592,13.875 19.2733073,14.3227153 19.2733073,14.875 L19.2733073,20.5603345 C19.2733073,21.1126192 19.7210225,21.5603345 20.2733073,21.5603345 L23.1421749,21.5603345 C23.6944597,21.5603345 24.1421749,21.1126192 24.1421749,20.5603345 L24.1421749,14.875 C24.1421749,14.3227153 24.5898902,13.875 25.1421749,13.875 L25.9839937,13.875 C26.5362785,13.875 26.9839937,13.4272847 26.9839937,12.875 C26.9839937,12.6854153 26.9301014,12.4997365 26.8286,12.339612 L22.7595799,5.92049174 C22.4638933,5.45402859 21.8460488,5.31558685 21.3795857,5.61127347 C21.2619646,5.68583237 21.1612131,5.78413657 21.0837851,5.89988909 Z" id="路径-2" fill="#FFFFFF" transform="translate(21.775509, 13.091973) rotate(50.000000) translate(-21.775509, -13.091973) "></path>
                <path d="M16.9587851,19.0248891 L12.6038498,25.5353808 C12.3148163,25.9674769 12.4307914,26.552068 12.8628875,26.8411016 C13.0177623,26.9446989 13.1998998,27 13.3862291,27 L14.1483073,27 C14.700592,27 15.1483073,27.4477153 15.1483073,28 L15.1483073,33.6853345 C15.1483073,34.2376192 15.5960225,34.6853345 16.1483073,34.6853345 L19.0171749,34.6853345 C19.5694597,34.6853345 20.0171749,34.2376192 20.0171749,33.6853345 L20.0171749,28 C20.0171749,27.4477153 20.4648902,27 21.0171749,27 L21.8589937,27 C22.4112785,27 22.8589937,26.5522847 22.8589937,26 C22.8589937,25.8104153 22.8051014,25.6247365 22.7036,25.464612 L18.6345799,19.0454917 C18.3388933,18.5790286 17.7210488,18.4405869 17.2545857,18.7362735 C17.1369646,18.8108324 17.0362131,18.9091366 16.9587851,19.0248891 Z" id="路径-2备份" fill="#FFFFFF" transform="translate(17.650509, 26.216973) scale(-1, -1) rotate(50.000000) translate(-17.650509, -26.216973) "></path>
            </g>
        </g>
    </g>
</svg>