<?xml version="1.0" encoding="UTF-8"?>
<svg width="141px" height="239px" viewBox="0 0 141 239" version="1.1" xmlns="http://www.w3.org/2000/svg" xmlns:xlink="http://www.w3.org/1999/xlink">
    <title>编组</title>
    <defs>
        <polygon id="path-1" points="0.243900944 0.132927641 108.998873 0.132927641 108.998873 109.882274 0.243900944 109.882274"></polygon>
    </defs>
    <g id="页面-1" stroke="none" stroke-width="1" fill="none" fill-rule="evenodd" opacity="0.2">
        <g id="Swap---Home-——1920" transform="translate(-1480.000000, -660.000000)">
            <g id="编组" transform="translate(1153.000000, 660.000000)">
                <g transform="translate(396.775813, 119.247828) rotate(-2.000000) translate(-396.775813, -119.247828) translate(331.122630, 2.436321)">
                    <g transform="translate(8.526387, 102.316648)">
                        <path d="M10.0297497,70.5194552 L3.98332888,74.1034355 C3.83577101,74.1911117 3.72661271,74.3295026 3.67613238,74.4932508 L2.86844723,77.1226778 L9.20221757,73.4389873 L10.0297497,70.5194552 Z M0.498892278,79.8561128 C0.158042239,79.5165823 0.0303313389,79.0193206 0.174437558,78.5508546 C0.174006102,78.5504248 0.174437558,78.5504248 0.174437558,78.5504248 L1.61291101,73.8653344 C1.82000977,73.1901416 2.27001811,72.618527 2.88052799,72.2566477 L10.5522426,67.7095184 C11.0479852,67.4151154 11.6653984,67.4512174 12.1240359,67.8019223 C12.5822419,68.1513378 12.7772599,68.7367055 12.6206414,69.2906988 L11.1597323,74.4399574 C11.0837961,74.7077137 10.9064678,74.9355 10.6657155,75.0760398 L2.0926898,80.0628395 C1.62240304,80.3366128 1.04209506,80.2957832 0.615385329,79.9588315 C0.573965578,79.9270274 0.535566016,79.8926445 0.498892278,79.8561128 L0.498892278,79.8561128 Z" id="Fill-1" fill="#091D36"></path>
                        <path d="M6.41712759,86.4949645 C6.42489379,86.5069985 6.44085765,86.5121559 6.45380133,86.5048496 L13.6263216,82.3324931 C13.6448742,82.3221783 13.6509146,82.2981103 13.6401282,82.2800593 L9.7337279,75.6175264 L2.5055498,79.8229763 L6.41712759,86.4949645 Z M4.89581463,88.0198431 C4.76637791,87.8909074 4.65117922,87.7439208 4.55453314,87.5788833 L0.436288049,80.554471 C-0.0495311195,79.7249853 0.232209482,78.6565388 1.06405616,78.1726005 L9.57754092,73.2201836 C10.0926991,72.9210529 10.7536893,73.0955458 11.0526881,73.6061308 L15.5031541,81.1965704 C16.1140955,82.2383701 15.7594388,83.5805899 14.7140216,84.1887362 L7.54150126,88.3606629 C6.66737192,88.869099 5.5805349,88.7023422 4.89581463,88.0198431 L4.89581463,88.0198431 Z" id="Fill-3" fill="#091D36"></path>
                        <path d="M11.2845093,74.0005449 L14.7404698,79.8959109 L15.4722187,77.042136 C15.5218362,76.8465836 15.4937915,76.6428654 15.391968,76.4692321 L12.1517353,70.9421921 L11.2845093,74.0005449 Z M13.9008569,82.6263374 C13.8102512,82.5356527 13.729569,82.4325042 13.6622619,82.3177515 L9.1902231,74.6899206 C9.04266523,74.4380664 9.00383422,74.136357 9.08322207,73.856137 L10.522127,68.7829504 L10.522127,68.7820908 C10.6821971,68.2207911 11.1611129,67.8103461 11.7422838,67.7368528 C12.3234547,67.6629297 12.8899561,67.9401412 13.1859348,68.4451391 L17.2545624,75.3857431 C17.644167,76.0506211 17.7533253,76.8272433 17.5626218,77.5737805 L16.4455829,81.9287957 C16.2924161,82.5261974 15.7975364,82.9671572 15.1848692,83.0526845 C14.7042275,83.1201608 14.2326464,82.9568424 13.9008569,82.6263374 L13.9008569,82.6263374 Z" id="Fill-5" fill="#091D36"></path>
                        <path d="M30.0138737,54.6650164 C27.5256685,55.3195796 25.6790379,56.3716942 24.3738842,57.8776621 C22.7270177,59.7781731 22.3400019,63.0522781 22.5587499,64.6115394 C23.8923796,64.3072514 26.6187485,63.4339275 28.4489838,61.1504778 C30.1821415,58.9877978 30.1950852,56.2440479 30.0138737,54.6650164 M21.0063722,66.2571877 C20.7561278,66.0083419 20.5731906,65.687722 20.4942342,65.319396 C20.0610526,63.2976855 20.4752501,59.0879378 22.7408242,56.4735533 C24.3829448,54.5781998 26.6605997,53.2866947 29.70452,52.5259746 C30.2477228,52.3901624 30.8237162,52.491162 31.2853738,52.8027564 C31.7470315,53.113921 32.0507763,53.6068848 32.1245552,54.1557208 C32.3765254,56.0265765 32.4533245,59.5985228 30.1351128,62.4909784 C27.8147438,65.3851531 24.4916717,66.4183572 22.7166627,66.7763684 C22.0759509,66.9057338 21.4399852,66.6899815 21.0063722,66.2571877" id="Fill-7" fill="#15A689"></path>
                        <path d="M20.5309079,91.259952 C20.5041577,93.7720476 21.0352797,95.7632432 22.1527501,97.3427045 C23.5756911,99.3579681 26.7080598,100.477129 28.2746756,100.613371 C28.334648,99.2904918 28.2155662,96.4990358 26.4785254,94.2387945 C24.8200095,92.0817017 22.1143505,91.4456193 20.5309079,91.259952 M21.2380639,99.5793076 C20.9269843,99.2698621 20.6409291,98.9367785 20.3893904,98.5809162 C18.9673123,96.5699504 18.3093423,94.0948164 18.3775123,91.0132552 C18.3895931,90.4712959 18.6329341,89.9529747 19.0441114,89.5902358 C19.4608977,89.2240587 20.0161812,89.0461276 20.5680131,89.1019997 L20.5684446,89.1019997 C22.4642611,89.2954031 25.9745851,90.0483871 28.1914047,92.9326767 C30.4125388,95.8229834 30.5363666,99.2367687 30.4125388,101.013931 C30.3422116,102.029084 29.4758484,102.802268 28.4412175,102.774332 C26.6196114,102.726196 23.3448623,101.678379 21.2380639,99.5793076" id="Fill-9" fill="#15A689"></path>
                        <path d="M15.089086,43.3443406 L17.2088281,48.2447535 L18.8953886,48.964644 L16.7993766,44.2241113 C16.7614085,44.138584 16.6945329,44.0702481 16.6125563,44.0337164 L15.089086,43.3443406 Z M15.6253855,49.8229254 C15.5300338,49.7279429 15.4523718,49.6144795 15.3980084,49.4885524 L12.1974696,42.0889375 C11.9882136,41.6041396 12.096509,41.0535846 12.4736013,40.6852585 C12.8493993,40.3182218 13.4020941,40.2206605 13.8818729,40.4372723 C13.8818729,40.4372723 13.8823043,40.4377021 13.8827358,40.4381319 L17.5048068,42.0773333 C18.0708767,42.3339152 18.5221794,42.7890579 18.7737181,43.357664 L21.7050284,49.9888226 C21.9293854,50.4963991 21.8215215,51.0774689 21.4314855,51.4694332 C21.0423124,51.8601081 20.4628673,51.9727119 19.9550439,51.7552405 L15.9636468,50.0502819 C15.8363674,49.9965587 15.7220316,49.9187676 15.6253855,49.8229254 L15.6253855,49.8229254 Z" id="Fill-11" fill="#091D36"></path>
                        <path d="M7.09045742,44.9199338 L9.63086885,50.7933808 L14.9714281,48.5017652 L12.4305852,42.6278884 L7.09045742,44.9199338 Z M8.13716906,52.4162504 C7.96372385,52.2439065 7.81918618,52.0358903 7.71606825,51.7977892 L5.03888536,45.6075904 C4.60742961,44.609199 5.06563561,43.4496381 6.0601411,43.0220016 L12.0746342,40.4407106 C12.4737308,40.269656 12.9159729,40.2653582 13.3198155,40.4291064 C13.7171862,40.5907057 14.0299916,40.8962831 14.2004166,41.2899665 L17.3789511,48.6380071 C17.4919925,48.8997464 17.4963071,49.1954388 17.3906004,49.4601866 C17.2853252,49.7253641 17.077795,49.9376781 16.8154699,50.0502819 L10.3168835,52.8391592 C9.55406973,53.1662259 8.69460988,52.9715331 8.13716906,52.4162504 L8.13716906,52.4162504 Z" id="Fill-13" fill="#091D36"></path>
                        <path d="M16.3896231,50.2324249 L11.881342,52.1668889 L13.6602341,52.8743157 C13.758606,52.9134261 13.8643126,52.9125666 13.95837,52.8721667 L18.2535119,51.0288172 L16.3896231,50.2324249 Z M8.98756833,53.2052504 C8.72783198,52.9465196 8.57293936,52.5923765 8.56733044,52.2094377 C8.55913278,51.6296572 8.89825699,51.1078978 9.43110484,50.8788221 L15.961619,48.0766215 C16.2334361,47.9597199 16.5414955,47.9592901 16.8137441,48.0757619 L20.7460318,49.7553632 C21.2564439,49.971975 21.5882334,50.472675 21.5886648,51.0279577 C21.5886648,51.5802319 21.2616214,52.0779234 20.753798,52.2958245 L14.8122209,54.8457412 C14.187473,55.1139273 13.494555,55.1220932 12.8603151,54.870239 L9.47295605,53.5237214 C9.28743008,53.4497983 9.12347689,53.3406328 8.98756833,53.2052504 L8.98756833,53.2052504 Z" id="Fill-15" fill="#091D36"></path>
                        <path d="M4.91126075,102.672774 C5.11706514,103.436502 4.66144787,104.22172 3.89475101,104.426728 C3.12719124,104.631736 2.33892159,104.178312 2.13354866,103.414154 C1.92774427,102.649565 2.38336154,101.864348 3.15005839,101.65977 C3.91718671,101.454762 4.70545636,101.908615 4.91126075,102.672774" id="Fill-17" fill="#A4C8C3"></path>
                        <path d="M13.4813956,98.6871591 C13.6867686,99.4508877 13.2315828,100.236535 12.4644545,100.441113 C11.6973261,100.646121 10.908625,100.192697 10.7036836,99.4285389 C10.4978792,98.6643805 10.953065,97.8787328 11.7201933,97.674155 C12.4868902,97.4695771 13.2755913,97.9230007 13.4813956,98.6871591" id="Fill-19" fill="#A4C8C3"></path>
                        <path d="M7.83834281,93.4915267 C8.0441472,94.2556851 7.58852994,95.0409029 6.82183308,95.2459106 C6.05427331,95.4509182 5.26600366,94.9970648 5.06063072,94.2333362 C4.85482633,93.468748 5.31001215,92.6835301 6.07714046,92.4789523 C6.84426877,92.2739447 7.63253842,92.7273683 7.83834281,93.4915267" id="Fill-21" fill="#A4C8C3"></path>
                        <path d="M25.7972567,82.6969511 C26.0026297,83.4611095 25.5474439,84.2463274 24.7803156,84.4513351 C24.0131872,84.6563427 23.2244861,84.2029191 23.0195447,83.4387607 C22.8137403,82.6741725 23.2689261,81.8889546 24.0360544,81.6843768 C24.8027513,81.4793692 25.5914524,81.9332225 25.7972567,82.6969511" id="Fill-23" fill="#A4C8C3"></path>
                        <path d="M31.4790975,73.8754343 C31.6849018,74.639163 31.2292846,75.4248106 30.4625877,75.6298183 C29.6950279,75.8343961 28.9067583,75.3809725 28.7013854,74.6168141 C28.495581,73.8526557 28.9507668,73.067008 29.7178951,72.86286 C30.4850234,72.6578524 31.2732931,73.1112759 31.4790975,73.8754343" id="Fill-25" fill="#A4C8C3"></path>
                        <path d="M3.79849323,69.1918912 C4.00429762,69.9560496 3.54868036,70.7412674 2.7819835,70.9462751 C2.01442373,71.1512827 1.22615408,70.6974293 1.02078115,69.9337007 C0.814976757,69.1691125 1.27016257,68.3838946 2.03729088,68.1793168 C2.8044192,67.9743092 3.59268884,68.4277328 3.79849323,69.1918912" id="Fill-27" fill="#A4C8C3"></path>
                        <path d="M7.04114203,61.6597305 C7.24694642,62.4238889 6.79132916,63.2091068 6.0246323,63.4141144 C5.25707253,63.619122 4.46880288,63.1652687 4.26342994,62.4015401 C4.05762555,61.6369519 4.51281137,60.851734 5.27993968,60.6471561 C6.04706799,60.4421485 6.83533764,60.8955721 7.04114203,61.6597305" id="Fill-29" fill="#A4C8C3"></path>
                        <path d="M28.6999184,45.8638715 C28.9057228,46.6276001 28.450537,47.4132477 27.6834087,47.6178256 C26.9162804,47.8228332 26.1275793,47.3694096 25.9222063,46.6052512 C25.7168334,45.8410928 26.1720192,45.0554452 26.9391475,44.8508673 C27.7058444,44.6462895 28.4945455,45.0997131 28.6999184,45.8638715" id="Fill-31" fill="#A4C8C3"></path>
                        <path d="M3.46562513,56.7398483 C3.67142952,57.5040067 3.21581225,58.2892246 2.44911539,58.4942322 C1.68155562,58.6992399 0.893285975,58.2453865 0.68791304,57.4816579 C0.48210865,56.7170697 0.937725916,55.9318518 1.70442278,55.727274 C2.47155109,55.5222664 3.25982074,55.9761197 3.46562513,56.7398483" id="Fill-33" fill="#A4C8C3"></path>
                        <path d="M24.5420657,73.8536442 C24.7474386,74.6178026 24.2922528,75.4030205 23.5251245,75.6080281 C22.7579962,75.8130358 21.9692951,75.3591824 21.7643536,74.5954538 C21.5585492,73.8308656 22.013735,73.0456477 22.7808633,72.8410699 C23.5475602,72.6360622 24.3362613,73.0894858 24.5420657,73.8536442" id="Fill-35" fill="#A4C8C3"></path>
                        <path d="M33.6355133,86.1377699 C33.8413177,86.9014985 33.3861318,87.6871462 32.6190035,87.891724 C31.8514438,88.0967317 31.0631741,87.6433081 30.8578012,86.8791497 C30.6519968,86.1149913 31.1076141,85.3293436 31.8743109,85.1247658 C32.6414392,84.9201879 33.4297089,85.3736115 33.6355133,86.1377699" id="Fill-37" fill="#A4C8C3"></path>
                        <path d="M31.1807889,0.0419900315 C31.1807889,0.0419900315 26.9857447,4.92650086 27.3110624,8.45718774 C27.63638,11.9878746 29.7949531,15.5181317 29.2370808,19.0488186 C28.6787771,22.5790757 25.1123639,31.9251885 25.1235553,35.040273 C25.1343681,38.1557872 25.1235553,40.3017056 25.1235553,40.3017056 C27.4258296,40.1478424 29.7138394,39.8310906 31.9707844,39.3540288 L32.1041042,39.325663 C32.1041042,39.325663 35.026354,35.2478593 35.3969745,30.0560519 C35.767595,24.8638148 33.2353812,22.7870918 32.1041042,17.802441 C30.9723958,12.8186498 34.3563032,6.72429309 34.3563032,6.72429309 L33.9606583,3.78413132 L31.1807889,0.0419900315 Z" id="Fill-39" fill="#5F9AA5"></path>
                    </g>
                    <g>
                        <path d="M24.0018595,90.1655611 C23.8988741,91.2421096 26.2623887,95.4528863 31.728338,100.714111 C37.1942872,105.975335 41.4883487,108.178922 42.573128,108.041573 C42.6761134,106.964596 40.3121698,102.754675 34.8466496,97.4930228 C29.3811294,92.2322262 25.0874971,90.0217931 24.0018595,90.1655611 L24.0018595,90.1655611 Z M42.5499563,110.173703 C41.477621,110.173703 40.0508443,109.640992 38.2430217,108.571717 C35.8331637,107.146446 32.990338,104.902638 30.2380536,102.253627 C27.4857692,99.6041875 25.1368443,96.8503456 23.6229591,94.4991396 C21.780808,91.6370438 21.3903218,89.7244158 22.4291869,88.6517182 C23.4680519,87.5777369 25.3985988,87.9003592 28.3319658,89.6349887 C30.7413947,91.0606881 33.5842204,93.3044959 36.3365048,95.9535071 C39.0887892,98.6029461 41.4381433,101.356788 42.9515993,103.707994 C44.7937504,106.57009 45.1842366,108.482718 44.1458007,109.555415 C43.7471614,109.967037 43.2172158,110.173703 42.5499563,110.173703 L42.5499563,110.173703 Z" id="Fill-41" fill="#050101"></path>
                        <path d="M54.1709129,98.72977 C53.9027218,98.72977 53.6341016,98.6300737 53.4259853,98.4298254 C53.0144729,98.0336076 52.9887265,97.3883631 53.3581866,96.9617658 C53.5851836,96.0144373 51.2409787,91.7287814 45.643294,86.3404763 C40.0456093,80.9521712 35.675167,78.7682667 34.7264141,79.0267068 C34.311898,79.4100881 33.6639483,79.4066651 33.2528649,79.0113031 C32.8267629,78.6005373 32.8143188,77.9236296 33.2258313,77.4987438 C34.2651254,76.4260462 36.1956723,76.7482406 39.1286102,78.4828701 C41.5384682,79.9081416 44.3812939,82.1519494 47.1335783,84.8009606 C49.8858627,87.4503996 52.2347877,90.2042415 53.7486729,92.5554475 C55.5908239,95.4175433 55.9813102,97.3301713 54.9428742,98.4028689 C54.7326124,98.6202325 54.4515481,98.72977 54.1709129,98.72977" id="Fill-43" fill="#050101"></path>
                        <path d="M80.1263623,91.8122182 C79.8581712,91.8122182 79.5895509,91.7129498 79.3814347,91.5122737 C79.0291388,91.1733919 78.9596237,90.6522329 79.1780385,90.2414672 C79.1012286,89.8640762 78.5412456,88.2188738 74.4866252,83.3641362 C71.2945073,79.5423034 66.8927404,74.8929487 62.0923341,70.2718341 C57.2914988,65.6507196 52.476503,61.4279622 48.5338792,58.3818775 C43.5262149,54.5129777 41.8565643,54.0127849 41.4759475,53.9494585 C41.0717299,54.1817979 40.5473626,54.1304522 40.1950668,53.7919983 C39.7689648,53.3816604 39.7569498,52.7043249 40.1684622,52.2790112 C40.9490056,51.4724555 42.3358755,51.0283151 48.9544028,56.0092775 C53.1235945,59.1473566 58.318778,63.6657797 63.5821894,68.7327462 C68.8460298,73.7992849 73.5576112,78.8170451 76.8497106,82.8613761 C82.0745025,89.2804465 81.6788669,90.6787615 80.8983235,91.4853172 C80.6880617,91.7026807 80.4069974,91.8122182 80.1263623,91.8122182" id="Fill-45" fill="#050101"></path>
                        <g transform="translate(21.884394, 0.000000)">
                            <mask id="mask-2" fill="white">
                                <use xlink:href="#path-1"></use>
                            </mask>
                            <g id="Clip-48"></g>
                            <path d="M21.4893165,109.882274 C21.2211254,109.882274 20.9525052,109.782577 20.7443889,109.582329 C20.3182869,109.171991 20.3058428,108.494656 20.7173552,108.06977 L31.5145146,96.9170522 C31.7728362,96.6509103 32.1508784,96.5358103 32.5139019,96.6145404 C32.5941447,96.6320835 40.5304559,98.3102327 45.6303779,96.3415523 C50.5045903,94.4601597 56.5339555,90.5797071 57.5110293,89.9413087 L106.835879,28.6892911 C106.70586,26.7398654 105.657555,17.358575 97.4002724,9.87365305 C89.170882,2.41397611 80.94707,2.23683338 79.2336506,2.28432817 L19.795636,53.7986305 C19.3879856,54.224372 14.52965,59.4025876 13.4646095,65.1259236 C12.3283375,71.2313572 13.1689557,78.0393714 13.1779669,78.1069766 C13.2187319,78.4287431 13.1110264,78.7513654 12.8853167,78.9845605 L2.08858651,90.1372782 C1.67750318,90.5625918 0.998228749,90.5750004 0.571697615,90.1642347 C0.145595587,89.7538968 0.13315152,89.0765612 0.544663952,88.6516754 L10.9908148,77.8609451 C10.8084448,76.1070609 10.3287046,70.250654 11.3551256,64.7356961 C12.5827972,58.1399108 18.0573286,52.509853 18.2899039,52.2732348 C18.3100719,52.2526965 18.3306689,52.2338697 18.3521242,52.215043 L78.1046733,0.428608374 C78.2724537,0.283128842 78.4814282,0.193273837 78.7024177,0.171879788 C79.1143592,0.130803215 88.9005454,-0.722391453 98.8437842,8.29049344 C108.780157,17.297388 108.99471,28.5587874 108.999027,29.0341632 C109.000718,29.2810505 108.917471,29.5210917 108.762564,29.7136382 L59.0785527,91.4123635 C59.0094667,91.4975118 58.9279366,91.5719631 58.836537,91.63315 C58.5567601,91.8184225 51.9202103,96.2080534 46.4044847,98.3367613 C41.5058133,100.228423 34.6993376,99.1985136 32.6525031,98.8219783 L22.2612778,109.555373 C22.0505868,109.772736 21.7699517,109.882274 21.4893165,109.882274" id="Fill-47" fill="#050101" mask="url(#mask-2)"></path>
                        </g>
                        <path d="M59.4551359,95.0748107 C58.4398717,95.0748107 57.8404109,94.972975 57.7490114,94.9558598 C57.1662857,94.8484616 56.781807,94.2905049 56.8895125,93.7098704 C56.996789,93.1300916 57.55291,92.7458545 58.1343484,92.8515411 C58.2175949,92.8652333 66.5379557,94.1916643 76.9030056,84.7966817 C87.6503886,75.0559713 123.371298,26.8440544 123.730889,26.3579816 C124.082327,25.8830337 124.754735,25.7824817 125.231043,26.1324883 C125.707779,26.4833507 125.809048,27.1529845 125.457181,27.6283602 C123.984061,29.6188625 89.2500949,76.4970744 78.3460883,86.3794135 C69.8519396,94.0782759 62.6257984,95.0748107 59.4551359,95.0748107" id="Fill-49" fill="#050101"></path>
                        <path d="M43.8086952,103.37506 C43.5246272,103.37506 43.2414174,103.262955 43.0302973,103.041313 C42.6222177,102.612576 42.6406693,101.935668 43.0706333,101.529181 L48.7095122,96.1982122 C49.1394762,95.792581 49.8178924,95.8096963 50.225972,96.238433 C50.6336224,96.6671697 50.6151709,97.3440774 50.1852069,97.7505644 L44.5467571,103.081533 C44.3390699,103.277503 44.0738826,103.37506 43.8086952,103.37506" id="Fill-51" fill="#050101"></path>
                        <path d="M26.2123979,122.288298 C11.4996484,122.288298 4.78500133,124.620677 4.59447837,125.589827 C4.77169905,126.582939 11.8485114,129.164773 27.5104428,129.314531 C43.1294637,129.474986 50.2757911,127.02494 50.4929187,126.023698 C50.2946718,125.019034 43.2157139,122.444474 27.5778124,122.295144 C27.1160946,122.290437 26.6595261,122.288298 26.2123979,122.288298 M28.7655772,131.032045 C28.3437662,131.032045 27.9198097,131.030334 27.4937077,131.026055 C21.0841548,130.96444 15.0552188,130.44756 10.5169962,129.570832 C3.64872926,128.243545 2.86818587,126.650972 2.87838524,125.568861 C2.88878294,124.48675 3.69979284,122.909581 10.5925188,121.713653 C15.1470474,120.923785 21.1824201,120.520293 27.5945475,120.58362 C34.0041004,120.644807 40.0330365,121.161687 44.5712591,122.038843 C51.439526,123.36613 52.2200694,124.958275 52.20987,126.040814 C52.1994723,127.122497 51.3884624,128.699666 44.4957364,129.895166 C40.2441565,130.63326 34.6992518,131.032045 28.7655772,131.032045" id="Fill-53" fill="#050101"></path>
                        <path d="M5.12253593,217.356433 C5.67264952,218.42528 12.5606553,220.334485 24.7421099,220.450441 C36.9205607,220.563401 43.8463278,218.790262 44.4170384,217.732113 C43.8669248,216.663266 36.9789191,214.754061 24.7978936,214.637678 C12.6061405,214.515731 5.6928175,216.298711 5.12253593,217.356433 M25.2669062,222.164104 C24.9798345,222.164104 24.7936026,222.162392 24.7253747,222.161965 C23.8525736,222.153835 3.35075821,221.905664 3.39402928,217.340174 C3.43786668,212.775112 23.9401112,212.920591 24.8146287,212.926154 C25.6870008,212.934711 46.1888162,213.182882 46.1459728,217.748372 L46.1459728,217.7488 C46.1051405,221.958293 28.6671403,222.164104 25.2669062,222.164104" id="Fill-55" fill="#050101"></path>
                        <polygon id="Fill-57" fill="#050101" points="49.3304711 228.050933 47.6149063 228.002583 50.4937769 126.008166 52.2093417 126.056517"></polygon>
                        <path d="M25.5989054,233.623013 C25.2714977,233.623013 24.9440899,233.621302 24.6149658,233.618307 C18.4628764,233.559687 12.4154888,232.84213 7.58676162,231.597853 C2.53618673,230.296666 -0.0165634827,228.76742 8.98926037e-05,227.053329 L2.87904224,125.553115 L4.5946071,125.601465 L1.71616561,227.086276 C1.74191196,227.34386 2.91251249,228.645902 8.16648352,229.978751 C12.8411618,231.165693 18.6885861,231.849874 24.631701,231.906783 C39.1749536,232.052262 47.4459673,229.207282 47.6146059,228.016061 L49.331029,228.034888 C49.3065699,230.588909 43.5402466,231.789115 41.6457447,232.183622 C37.1624476,233.116402 31.4973932,233.623013 25.5989054,233.623013" id="Fill-59" fill="#050101"></path>
                        <path d="M6.4312227,141.00809 C6.4312227,141.00809 11.1312182,137.148176 18.0428248,137.148176 C24.9544314,137.148176 25.0870251,142.920718 33.9978355,142.386723 C35.8923374,142.272906 39.3994189,141.735488 40.9403377,141.415005 C46.6577429,140.225496 48.0055642,137.872151 48.0055642,137.872151 L45.2876082,217.740414 C45.2876082,217.740414 44.4182399,221.306374 24.7334419,221.306374 C5.04864392,221.306374 4.25222361,217.348047 4.25222361,217.348047 L6.4312227,141.00809 Z" id="Fill-61" fill-opacity="0.5" fill="#A4C8C3"></path>
                        <path d="M29.238795,216.373633 C28.7208644,216.373633 28.2647249,215.99881 28.1806202,215.472944 L8.06714553,89.9690354 C7.97360047,89.3858336 8.37223973,88.8372902 8.9571109,88.7440121 C9.54284027,88.6490225 10.0925248,89.0482355 10.1860698,89.6314373 L30.2995445,215.134918 C30.3926604,215.718548 29.9944503,216.267091 29.40915,216.360369 C29.352079,216.369355 29.2950079,216.373633 29.238795,216.373633" id="Fill-63" fill="#231916"></path>
                    </g>
                </g>
            </g>
        </g>
    </g>
</svg>