<?xml version="1.0" encoding="utf-8"?>
<!-- Generator: Adobe Illustrator 25.3.1, SVG Export Plug-In . SVG Version: 6.00 Build 0)  -->
<svg version="1.1" id="图层_1" xmlns="http://www.w3.org/2000/svg" xmlns:xlink="http://www.w3.org/1999/xlink" x="0px" y="0px"
	 viewBox="0 0 21 39" style="enable-background:new 0 0 21 39;" xml:space="preserve">
<style type="text/css">
	.st0{fill:#fff;}
</style>
<g id="页面-1">
	<g id="Swap---Home-_x2014__x2014_1920" transform="translate(-702.000000, -480.000000)">
		<g id="bar" transform="translate(669.000000, 447.000000)">
			<g transform="translate(33.000000, 33.000000)">
				<path id="形状" class="st0" d="M19.6,0H1.4C0.6,0,0,0.7,0,1.5v13c0,2.9,1,5.6,2.9,7.7c1.7,1.9,4,3,6.4,3.2v10.9H5.9
					c-0.7,0-1.3,0.6-1.3,1.4S5.1,39,5.9,39h9.5c0.7,0,1.3-0.6,1.3-1.4s-0.6-1.4-1.3-1.4h-3.5V25.4c2.4-0.2,4.5-1.3,6.2-3.1
					c1.9-2.1,2.9-4.8,2.9-7.7v-13C21,0.7,20.4,0,19.6,0L19.6,0z M18.5,14.5c0,4.5-3.3,8.1-7.4,8.1H9.9c-4.1,0-7.4-3.6-7.4-8.1V2.8
					h15.9V14.5L18.5,14.5z"/>
			</g>
		</g>
	</g>
</g>
</svg>
