<?xml version="1.0" encoding="UTF-8"?>
<svg width="50px" height="50px" viewBox="0 0 50 50" version="1.1" xmlns="http://www.w3.org/2000/svg" xmlns:xlink="http://www.w3.org/1999/xlink">
    <title>画板备份 8</title>
    <g id="画板备份-8" stroke="none" stroke-width="1" fill="none" fill-rule="evenodd">
        <path d="M31.0893112,14 L18.9107192,14 C18.4085486,14 18,14.3945797 18,14.8795804 L18,22.5652069 C18,24.2763132 18.6899305,25.885007 19.9426854,27.0949284 C21.0925291,28.2054572 22.5902371,28.8575781 24.1984153,28.9573225 L24.1984153,35.3581167 L21.900762,35.3581167 C21.4313166,35.3581167 21.0507574,35.725664 21.0507574,36.1790583 C21.0507574,36.6324527 21.4313166,37 21.900762,37 L28.2444674,37 C28.7139128,37 29.0944719,36.6324527 29.0944719,36.1790583 C29.0944719,35.725664 28.7139128,35.3581167 28.2444674,35.3581167 L25.8984245,35.3581167 L25.8984245,28.950755 C27.46984,28.8312786 28.9306032,28.1831159 30.0572842,27.0949284 C31.3100999,25.8849777 32,24.2763132 32,22.5652069 L32,14.8795804 C32,14.3945797 31.5914817,14 31.0893112,14 L31.0893112,14 Z M25.3464309,27 L24.6535405,27 C22.0875492,27 20,24.9885281 20,22.5161116 L20,16 L30,16 L30,22.5161116 C30,24.9885281 27.9123935,27 25.3464309,27 Z" id="形状" fill="#18BB97" fill-rule="nonzero"></path>
    </g>
</svg>