<?xml version="1.0" encoding="UTF-8"?>
<svg width="50px" height="50px" viewBox="0 0 50 50" version="1.1" xmlns="http://www.w3.org/2000/svg" xmlns:xlink="http://www.w3.org/1999/xlink">
    <title>画板备份 11</title>
    <defs>
        <filter color-interpolation-filters="auto" id="filter-1">
            <feColorMatrix in="SourceGraphic" type="matrix" values="0 0 0 0 0.364706 0 0 0 0 0.854902 0 0 0 0 0.596078 0 0 0 1.000000 0"></feColorMatrix>
        </filter>
    </defs>
    <g id="画板备份-11" stroke="none" stroke-width="1" fill="#18BB97" fill-rule="evenodd">
        <g filter="url(#filter-1)" id="编组">
            <g transform="translate(14.000000, 14.000000)">
                <path d="M11.5,2 C8.10597696,2 4.96977025,3.81068971 3.27275868,6.74999996 C1.57574711,9.68931021 1.57574711,13.3106898 3.27275868,16.25 C4.96977025,19.1893103 8.10597696,21 11.5,21 C16.7467052,21 21,16.7467051 21,11.5 C21,6.25329488 16.7467052,2 11.5,2 Z M0,11.5 C0,5.14886363 5.14886363,0 11.5,0 C17.8511364,0 23,5.14886363 23,11.5 C23,17.8511364 17.8511364,23 11.5,23 C5.14886363,23 0,17.8511364 0,11.5 Z" id="形状" fill="#DBDBDB" fill-rule="nonzero"></path>
                <path d="M12.3873409,8.27704952 C12.6838006,8.51736801 12.831945,8.87623315 12.7833207,9.23627141 L11.7993709,16.443636 L12.5001351,16.2830323 C12.9172043,16.1843421 13.359978,16.2981552 13.6602767,16.5812418 C13.9605753,16.8643284 14.0723217,17.2732523 13.953071,17.6526909 C13.8338202,18.0321296 13.5018698,18.3238629 13.0833054,18.417081 L10.6834279,18.9670936 C10.2994578,19.0551587 9.89281404,18.9639761 9.59653644,18.7233777 C9.30025884,18.4827793 9.1524633,18.1237179 9.20150346,17.7636661 L10.1842533,10.5563016 L9.48348908,10.7169052 C8.84276192,10.859602 8.1964756,10.5016274 8.03624611,9.91528478 C7.87601663,9.32894221 8.26188022,8.73392797 8.90031884,8.58285649 L11.3001964,8.03284394 C11.6843335,7.94482819 12.0911054,8.03620147 12.3873409,8.27704952 L12.3873409,8.27704952 Z M10,6 C10,5.44771524 10.4477381,5 11.000051,5 L12.0001021,5 C12.5523552,5.00008454 13,5.44777503 13,6 C13,6.55222497 12.5523552,6.99991546 12.0001021,7 L11.000051,7 C10.734821,7 10.4804541,6.89464316 10.2929082,6.70710678 C10.1053622,6.5195704 10,6.26521648 10,6 L10,6 Z" id="形状" fill="#DBDBDB" fill-rule="nonzero"></path>
            </g>
        </g>
    </g>
</svg>