<?xml version="1.0" encoding="UTF-8"?>
<svg width="50px" height="50px" viewBox="0 0 50 50" version="1.1" xmlns="http://www.w3.org/2000/svg" xmlns:xlink="http://www.w3.org/1999/xlink">
    <title>画板备份 10</title>
    <g id="画板备份-10" stroke="none" stroke-width="1" fill="none" fill-rule="evenodd">
        <path d="M35.7142857,14 L24.4107143,14 C23.9285714,14 23.4464286,14.1642857 23.0178571,14.4928571 L22,15.3690476 C21.0892857,16.1357143 19.75,16.1357143 18.7857143,15.3690476 L17.7678571,14.4928571 C17.4464286,14.1642857 16.9642857,14 16.4821429,14 L14.2857143,14 C11.9285714,14 10,15.9714286 10,18.3809524 L10,32.6190476 C10,35.0285714 11.9285714,37 14.2857143,37 L16.0535714,37 C16.75,37 17.3928571,36.6714286 17.7678571,36.1238095 C19.5357143,33.6595238 21.25,33.6595238 23.0178571,36.1238095 C23.4464286,36.6714286 24.0892857,37 24.7321429,37 L35.7142857,37 C38.0714286,37 40,35.0285714 40,32.6190476 L40,18.3809524 C40,15.9714286 38.0714286,14 35.7142857,14 Z M38,32.7647059 C38,33.9941176 37.025,35 35.8333333,35 L24.7833333,35 C23.4833333,33.1558824 21.9666667,32.2058824 20.3958333,32.2058824 C18.825,32.2058824 17.3083333,33.1558824 16.0083333,35 L14.1666667,35 C12.975,35 12,33.9941176 12,32.7647059 L12,18.2352941 C12,17.0058824 12.975,16 14.1666667,16 L16.3875,16 L17.4166667,16.8941176 C19.15,18.4029412 21.6958333,18.4029412 23.4291667,16.8941176 L24.4583333,16 L35.8333333,16 C37.025,16 38,17.0058824 38,18.2352941 L38,32.7647059 Z" id="形状" fill="#5DDA98" fill-rule="nonzero"></path>
        <path d="M18,20 C17.45,20 17,20.5625 17,21.25 L17,23.75 C17,24.4375 17.45,25 18,25 C18.55,25 19,24.4375 19,23.75 L19,21.25 C19,20.5625 18.55,20 18,20 Z M30.875,21 L24.125,21 C23.50625,21 23,21.45 23,22 C23,22.55 23.50625,23 24.125,23 L30.875,23 C31.49375,23 32,22.55 32,22 C32,21.45 31.49375,21 30.875,21 Z M30.875,28 L24.125,28 C23.50625,28 23,28.45 23,29 C23,29.55 23.50625,30 24.125,30 L30.875,30 C31.49375,30 32,29.55 32,29 C32,28.45 31.49375,28 30.875,28 Z M18,26 C17.45,26 17,26.5625 17,27.25 L17,29.75 C17,30.4375 17.45,31 18,31 C18.55,31 19,30.4375 19,29.75 L19,27.25 C19,26.5625 18.55,26 18,26 Z" id="形状" fill="#5DDA98" fill-rule="nonzero"></path>
    </g>
</svg>