<?xml version="1.0" encoding="UTF-8"?>
<svg width="50px" height="50px" viewBox="0 0 50 50" version="1.1" xmlns="http://www.w3.org/2000/svg" xmlns:xlink="http://www.w3.org/1999/xlink">
    <title>画板备份 9</title>
    <defs>
        <filter color-interpolation-filters="auto" id="filter-1">
            <feColorMatrix in="SourceGraphic" type="matrix" values="0 0 0 0 0.364706 0 0 0 0 0.854902 0 0 0 0 0.596078 0 0 0 1.000000 0"></feColorMatrix>
        </filter>
    </defs>
    <g id="画板备份-9" stroke="none" stroke-width="1" fill="none" fill-rule="evenodd">
        <g filter="url(#filter-1)" id="编组-6">
            <g transform="translate(14.000000, 14.000000)">
                <path d="M14.5230137,21.1904762 L9.36043055,21.1904762 L9.36043055,15.9428572 C9.53251666,15.7619048 9.70460277,15.7619048 9.87668885,15.5809524 L16.588047,7.07619047 C17.1043054,6.35238094 17.1043054,5.62857143 16.7601331,5.08571428 C16.4159609,4.36190474 15.8997026,4 15.2113582,4 L1.78864182,4 C1.10029738,4 0.584039077,4.36190477 0.239866856,5.08571428 C-0.104305364,5.62857143 -0.104305364,6.35238094 0.411952967,6.89523809 L7.12331115,15.4 C7.29539726,15.5809524 7.46748337,15.5809524 7.63956948,15.7619048 L7.63956948,21.1904762 L2.47698626,21.1904762 C1.96072793,21.1904762 1.61655574,21.552381 1.61655574,22.0952381 C1.61655574,22.6380953 1.96072796,23 2.47698626,23 L14.5230137,23 C15.0392721,23 15.3834443,22.6380952 15.3834443,22.0952381 C15.3834443,21.552381 15.0392721,21.1904762 14.5230137,21.1904762 L14.5230137,21.1904762 Z M1.78864182,5.80952381 L15.3834443,5.80952381 L8.5,14.3142857 L1.78864182,5.80952381 Z" id="形状" fill="#DBDBDB" fill-rule="nonzero"></path>
                <path d="M17.7839922,0 C15.8055065,0 14.0068831,1 13.1075714,2.5 C12.927709,2.83333333 12.927709,3.33333331 13.4672961,3.66666665 C13.8270208,3.83333332 14.3666077,3.83333332 14.7263324,3.33333334 C15.4457818,2.33333335 16.5249558,1.66666667 17.7839922,1.66666667 C19.7624779,1.66666667 21.381239,3.16666667 21.381239,5 C21.3812389,6.8333333 19.7624779,8.33333333 17.7839922,8.33333333 L17.0645428,8.33333333 C16.5249558,8.33333333 16.1652312,8.5 15.9853688,9 C15.9853688,9.5 16.1652312,9.83333333 16.7048182,10 L17.6041299,10 C20.6617896,10 23,7.83333332 23,5 C23,2.16666665 20.841652,0 17.7839922,0 Z" id="路径" fill="#DBDBDB" fill-rule="nonzero"></path>
            </g>
        </g>
    </g>
</svg>