<svg width="24" height="24" viewBox="0 0 24 24" fill="none" xmlns="http://www.w3.org/2000/svg">
<path d="M12.75 9.5H16.5C17.0523 9.5 17.5 9.9477 17.5 10.5V20C17.5 20.5523 17.0523 21 16.5 21H7.5C6.94771 21 6.5 20.5523 6.5 20V10.5C6.5 9.9477 6.9477 9.5 7.5 9.5H8.75" stroke="#18BB97" stroke-width="1.7" stroke-linecap="round" stroke-linejoin="round"/>
<path d="M8.5 4H7.25C5.7312 4 4.5 5.2312 4.5 6.75C4.5 8.2688 5.7312 9.5 7.25 9.5H9.5V13.75C9.5 14.4403 10.0597 15 10.75 15C11.4403 15 12 14.4403 12 13.75V9.5H16.75C18.2688 9.5 19.5 8.2688 19.5 6.75C19.5 5.2312 18.2688 4 16.75 4H14.5C14.5 4 14 2 11.5 2C9 2 8.5 4 8.5 4Z" stroke="#18BB97" stroke-width="1.7" stroke-linecap="round" stroke-linejoin="round"/>
<path d="M17.5 10.5H20C20.5523 10.5 21 10.9477 21 11.5V14C21 15.1046 20.1046 16 19 16H17.5" stroke="#18BB97" stroke-width="1.7" stroke-linecap="round"/>
</svg>
