<svg width="24" height="24" viewBox="0 0 24 24" fill="none" xmlns="http://www.w3.org/2000/svg">
<path fill-rule="evenodd" clip-rule="evenodd" d="M3 9.33327C3 8.99925 3.16678 8.68728 3.44453 8.50174L11.4285 3.16846C11.7642 2.94422 12.2018 2.94382 12.5379 3.16744L20.5539 8.50083C20.8326 8.68622 21 8.99871 21 9.33339V19.9798C21 20.5321 20.5523 20.9798 20 20.9798H4C3.44772 20.9798 3 20.5321 3 19.9798V9.33327ZM4.80002 9.76046V19.1793H8.99997V14.2024C8.99997 13.6502 9.44768 13.2024 9.99997 13.2024H14C14.5523 13.2024 15 13.6502 15 14.2024V19.1793H19.2V9.76152L11.9848 4.96099L4.80002 9.76046ZM13 19.1793V15.2024H11V19.1793H13Z" fill="#18BB97"/>
<rect x="11" y="17.2021" width="2" height="4" fill="white"/>
</svg>
