<svg width="24" height="24" viewBox="0 0 24 24" fill="none" xmlns="http://www.w3.org/2000/svg">
<path d="M23 1H1V23H23V1Z" fill="white" fill-opacity="0.01"/>
<path d="M12 21.1663C14.5313 21.1663 16.823 20.1403 18.4818 18.4815C20.1407 16.8226 21.1667 14.531 21.1667 11.9997C21.1667 9.46839 20.1407 7.17672 18.4818 5.51786C16.823 3.85902 14.5313 2.83301 12 2.83301C9.46876 2.83301 7.17709 3.85902 5.51823 5.51786C3.85939 7.17672 2.83337 9.46839 2.83337 11.9997C2.83337 14.531 3.85939 16.8226 5.51823 18.4815C7.17709 20.1403 9.46876 21.1663 12 21.1663Z" stroke="#18BB97" stroke-width="1.7" stroke-linejoin="round"/>
<path fill-rule="evenodd" clip-rule="evenodd" d="M12 6.04199C12.6328 6.04199 13.1458 6.555 13.1458 7.18783C13.1458 7.82065 12.6328 8.33366 12 8.33366C11.3671 8.33366 10.8541 7.82065 10.8541 7.18783C10.8541 6.555 11.3671 6.04199 12 6.04199Z" fill="#18BB97"/>
<path d="M12.2292 16.5837V10.167H11.7708H11.3125" stroke="#18BB97" stroke-width="1.7" stroke-linecap="round" stroke-linejoin="round"/>
<path d="M10.625 16.583H13.8333" stroke="#18BB97" stroke-width="1.7" stroke-linecap="round" stroke-linejoin="round"/>
</svg>
