<svg width="24" height="24" viewBox="0 0 24 24" fill="none" xmlns="http://www.w3.org/2000/svg">
<path d="M23 1.16699H1V23.167H23V1.16699Z" fill="white" fill-opacity="0.01"/>
<path d="M12 21.3333C14.5313 21.3333 16.823 20.3073 18.4818 18.6485C20.1407 16.9896 21.1667 14.698 21.1667 12.1667C21.1667 9.63538 20.1407 7.34372 18.4818 5.68485C16.823 4.02602 14.5313 3 12 3C9.46876 3 7.17709 4.02602 5.51823 5.68485C3.85939 7.34372 2.83337 9.63538 2.83337 12.1667C2.83337 14.698 3.85939 16.9896 5.51823 18.6485C7.17709 20.3073 9.46876 21.3333 12 21.3333Z" stroke="#01142A" stroke-width="1.7" stroke-linejoin="round"/>
<path fill-rule="evenodd" clip-rule="evenodd" d="M12 6.20898C12.6328 6.20898 13.1458 6.722 13.1458 7.35482C13.1458 7.98764 12.6328 8.50065 12 8.50065C11.3671 8.50065 10.8541 7.98764 10.8541 7.35482C10.8541 6.722 11.3671 6.20898 12 6.20898Z" fill="#01142A"/>
<path d="M12.2292 16.7507V10.334H11.7708H11.3125" stroke="#01142A" stroke-width="1.7" stroke-linecap="round" stroke-linejoin="round"/>
<path d="M10.625 16.75H13.8333" stroke="#01142A" stroke-width="1.7" stroke-linecap="round" stroke-linejoin="round"/>
</svg>
