<svg width="24" height="24" viewBox="0 0 24 24" fill="none" xmlns="http://www.w3.org/2000/svg">
<path d="M12 2.00002C8.64834 2.00002 5.68777 3.64917 3.87498 6.176V4.49511C3.87498 3.97833 3.45524 3.55946 2.93749 3.55946C2.41974 3.55946 2 3.97835 2 4.49511V8.23774C2 8.7544 2.41974 9.17339 2.93749 9.17339H6.99996C7.51771 9.17339 7.93746 8.75442 7.93746 8.23774C7.93746 7.72095 7.51771 7.30208 6.99996 7.30208H5.36924C6.84006 5.22737 9.25972 3.87135 12 3.87135C16.4872 3.87135 20.1249 7.50192 20.1249 11.9804C20.1249 16.4588 16.4872 20.0894 12 20.0894C8.21794 20.0894 5.0488 17.5066 4.14311 14.0146L4.12684 14.0196C4.00053 13.6521 3.66122 13.3838 3.24998 13.3838C2.73223 13.3838 2.31248 13.8027 2.31248 14.3193C2.31248 14.4116 2.34021 14.4951 2.36505 14.5792L2.35529 14.5822C2.36144 14.6049 2.37273 14.6252 2.37901 14.6477C2.3859 14.6659 2.39049 14.684 2.39847 14.7017C3.58801 18.8868 7.42557 21.9607 12.0001 21.9607C17.5229 21.9607 22 17.4923 22 11.9804C22 6.46832 17.5228 2 12 2V2.00002Z" fill="black"/>
<path fill-rule="evenodd" clip-rule="evenodd" d="M12 6.21039C11.4823 6.21039 11.0625 6.62928 11.0625 7.14604V12.76C11.0625 13.2768 11.4823 13.6956 12 13.6956H16.0625C16.5802 13.6956 17 13.2767 17 12.7601C17 12.2432 16.5802 11.8244 16.0625 11.8244H12.9375V7.14604C12.9375 6.62926 12.5177 6.21039 12 6.21039H12Z" fill="black"/>
</svg>
