<svg width="24" height="24" viewBox="0 0 24 24" fill="none" xmlns="http://www.w3.org/2000/svg">
<path d="M1.04624 4.98021C1.04624 4.43886 1.43818 4 1.92168 4L15.0533 4C15.5367 4.00008 15.9286 4.43892 15.9286 4.98021C15.9286 5.52151 15.5367 5.96034 15.0533 5.96043L1.92168 5.96043C1.43818 5.96043 1.04624 5.52157 1.04624 4.98021Z" fill="black"/>
<path d="M1.04624 12.0378C1.04624 11.4964 1.43818 11.0576 1.92167 11.0576H15.0532C15.5366 11.0576 15.9286 11.4964 15.9286 12.0378C15.9286 12.5791 15.5366 13.018 15.0532 13.018H1.92167C1.43818 13.018 1.04624 12.5791 1.04624 12.0378Z" fill="black"/>
<path d="M0.99997 19.0953C0.99997 18.5539 1.39192 18.1151 1.87541 18.1151H15.007C15.4905 18.1151 15.8823 18.554 15.8823 19.0953C15.8823 19.6366 15.4905 20.0754 15.007 20.0755H1.87541C1.39192 20.0755 0.99997 19.6366 0.99997 19.0953Z" fill="black"/>
<path d="M18.4706 19.0953C18.4706 18.5539 18.8762 18.1151 19.3765 18.1151H22.0942C22.5945 18.1151 23 18.554 23 19.0953C23 19.6366 22.5945 20.0754 22.0942 20.0755H19.3765C18.8762 20.0755 18.4706 19.6366 18.4706 19.0953Z" fill="black"/>
<path d="M18.4706 12.0378C18.4706 11.4964 18.8762 11.0576 19.3765 11.0576H22.0942C22.5945 11.0576 23 11.4965 23 12.0378C23 12.5791 22.5945 13.0179 22.0942 13.018H19.3765C18.8762 13.018 18.4706 12.5791 18.4706 12.0378Z" fill="black"/>
<path d="M18.4706 4.98021C18.4706 4.43886 18.8762 4 19.3765 4H22.0942C22.5945 4.00008 23 4.43892 23 4.98021C23 5.52151 22.5945 5.96034 22.0942 5.96043H19.3765C18.8762 5.96043 18.4706 5.52157 18.4706 4.98021Z" fill="black"/>
</svg>
