<svg width="24" height="24" viewBox="0 0 24 24" fill="none" xmlns="http://www.w3.org/2000/svg">
<line x1="10.8687" y1="9.82878" x2="7.33316" y2="13.3643" stroke="#18BB97" stroke-width="1.8"/>
<path d="M13.7678 12.7275L10.2323 16.2631" stroke="#18BB97" stroke-width="1.8"/>
<path d="M15.8891 10.6067L13.0607 7.77832" stroke="#18BB97" stroke-width="1.8"/>
<path d="M19.4247 14.1418L17.3033 12.0205" stroke="#18BB97" stroke-width="1.8"/>
<path d="M11.6465 6.36351L9.52515 4.24219" stroke="#18BB97" stroke-width="1.8"/>
<mask id="path-6-inside-1" fill="white">
<path fill-rule="evenodd" clip-rule="evenodd" d="M14.4749 0.707107L17.1712 3.40342C16.7303 4.25875 16.8744 5.34257 17.5995 6.06769C18.3246 6.79281 19.4084 6.93685 20.2638 6.49595L22.9602 9.19239C23.3507 9.58291 23.3507 10.2161 22.9602 10.6066L10.9394 22.6274C10.5489 23.0179 9.91571 23.0179 9.52518 22.6274L6.82806 19.9303C7.26718 19.0754 7.12267 17.9932 6.39835 17.2688C5.67402 16.5445 4.59179 16.4 3.7369 16.8391L1.0399 14.1421C0.649376 13.7516 0.649376 13.1184 1.0399 12.7279L13.0607 0.707106C13.4512 0.316582 14.0844 0.316583 14.4749 0.707107Z"/>
</mask>
<path d="M17.1712 3.40342L18.6823 4.18232L19.251 3.07903L18.3733 2.20134L17.1712 3.40342ZM20.2638 6.49595L21.4659 5.29387L20.5882 4.41618L19.4849 4.98489L20.2638 6.49595ZM6.82806 19.9303L5.31589 19.1536L4.7496 20.256L5.62598 21.1324L6.82806 19.9303ZM3.7369 16.8391L2.53481 18.0412L3.41119 18.9176L4.51364 18.3513L3.7369 16.8391ZM18.3733 2.20134L15.677 -0.494975L13.2728 1.90919L15.9692 4.6055L18.3733 2.20134ZM18.8016 4.86561C18.6057 4.6697 18.5761 4.38841 18.6823 4.18232L15.6602 2.62452C14.8846 4.12908 15.1431 6.01544 16.3974 7.26977L18.8016 4.86561ZM19.4849 4.98489C19.2788 5.09112 18.9975 5.06152 18.8016 4.86561L16.3974 7.26977C17.6518 8.5241 19.5381 8.78257 21.0427 8.00702L19.4849 4.98489ZM24.1623 7.99031L21.4659 5.29387L19.0617 7.69803L21.7581 10.3945L24.1623 7.99031ZM24.1623 11.8087C25.2167 10.7543 25.2167 9.04472 24.1623 7.99031L21.7581 10.3945C21.4848 10.1211 21.4848 9.67789 21.7581 9.40452L24.1623 11.8087ZM12.1415 23.8295L24.1623 11.8087L21.7581 9.40452L9.73731 21.4253L12.1415 23.8295ZM8.3231 23.8295C9.37751 24.8839 11.0871 24.8839 12.1415 23.8295L9.73731 21.4253C10.0107 21.152 10.4539 21.152 10.7273 21.4253L8.3231 23.8295ZM5.62598 21.1324L8.3231 23.8295L10.7273 21.4253L8.03014 18.7282L5.62598 21.1324ZM5.19627 18.4709C5.39195 18.6666 5.42173 18.9475 5.31589 19.1536L8.34024 20.707C9.11264 19.2033 8.85339 17.3197 7.60043 16.0668L5.19627 18.4709ZM4.51364 18.3513C4.7197 18.2455 5.00058 18.2752 5.19627 18.4709L7.60043 16.0668C6.34746 14.8138 4.46388 14.5546 2.96015 15.327L4.51364 18.3513ZM-0.162181 15.3442L2.53481 18.0412L4.93898 15.637L2.24198 12.9401L-0.162181 15.3442ZM-0.162181 11.5258C-1.2166 12.5803 -1.2166 14.2898 -0.162181 15.3442L2.24198 12.9401C2.51535 13.2134 2.51535 13.6566 2.24198 13.93L-0.162181 11.5258ZM11.8586 -0.494975L-0.162181 11.5258L2.24198 13.93L14.2628 1.90919L11.8586 -0.494975ZM15.677 -0.494975C14.6226 -1.54939 12.9131 -1.54939 11.8586 -0.494975L14.2628 1.90919C13.9894 2.18256 13.5462 2.18255 13.2728 1.90919L15.677 -0.494975Z" fill="#18BB97" mask="url(#path-6-inside-1)"/>
</svg>
