<svg width="24" height="24" viewBox="0 0 24 24" fill="none" xmlns="http://www.w3.org/2000/svg">
<path fill-rule="evenodd" clip-rule="evenodd" d="M4.5508 9.33333H5.89907C5.93689 9.33333 5.97316 9.34902 5.9999 9.37694C6.05559 9.43509 6.05559 9.52935 5.9999 9.5875L3.67208 12.0179C3.58855 12.1051 3.45312 12.1051 3.36958 12.0179L1.04177 9.5875C1.01502 9.55958 1 9.52171 1 9.48222C1 9.39999 1.06384 9.33333 1.1426 9.33333H2.64949C3.67759 5.12399 7.47397 2 12 2C16.526 2 20.3224 5.12399 21.3505 9.33333H19.4492C18.4706 6.14853 15.5057 3.83333 12 3.83333C8.49433 3.83333 5.52941 6.14853 4.5508 9.33333ZM19.4492 13.9163H18.1009C18.0221 13.9163 17.9583 13.8497 17.9583 13.7674C17.9583 13.7279 17.9733 13.6901 18.0001 13.6621L20.3279 11.2317C20.4114 11.1445 20.5469 11.1445 20.6304 11.2317L22.9582 13.6621C23.0139 13.7203 23.0139 13.8146 22.9582 13.8727C22.9315 13.9006 22.8952 13.9163 22.8574 13.9163H21.3505C20.3224 18.1257 16.526 21.2496 12 21.2496C7.47394 21.2496 3.67756 18.1257 2.64946 13.9163H4.55077C5.52938 17.1011 8.4943 19.4163 12 19.4163C15.5056 19.4163 18.4706 17.1011 19.4492 13.9163Z" fill="#18BB97"/>
<path d="M9.27849 14.0092L8 15.079C8.50903 15.4732 9.08612 15.7993 9.73128 16.0574C10.3705 16.3061 11.0423 16.4351 11.7467 16.4445V18H12.6789V16.4445C13.697 16.3225 14.5019 15.987 15.0938 15.438C15.6857 14.9078 15.9876 14.2391 15.9994 13.4321C16.029 11.8789 14.9222 10.8888 12.6789 10.4618V7.39307C13.4306 7.43999 14.1024 7.66522 14.6943 8.06876L15.7508 6.9778C14.8393 6.34434 13.8153 6.02292 12.6789 6.01354V5H11.7467V6.01354C9.67505 6.25284 8.62149 7.23588 8.58597 8.96264C8.53862 10.4548 9.59219 11.4167 11.7467 11.8484V15.065C11.1903 15.0134 10.7197 14.8914 10.335 14.699C9.93253 14.5207 9.58035 14.2907 9.27849 14.0092ZM11.7467 10.2929C11.2613 10.1662 10.9239 9.98791 10.7345 9.75799C10.5392 9.53745 10.4416 9.26295 10.4416 8.93449C10.4416 8.67641 10.483 8.45587 10.5659 8.27287C10.6369 8.08988 10.7286 7.93738 10.8411 7.81538C11.0956 7.57138 11.3975 7.43061 11.7467 7.39307V10.2929ZM12.6789 12.0244C13.259 12.1182 13.6526 12.2895 13.8597 12.5382C14.0551 12.7916 14.1527 13.0848 14.1527 13.418C14.1527 13.8309 14.0491 14.1781 13.842 14.4597C13.623 14.7459 13.2353 14.9477 12.6789 15.065V12.0244Z" fill="#18BB97"/>
</svg>
