<svg width="160" height="160" viewBox="0 0 160 160" fill="none" xmlns="http://www.w3.org/2000/svg">
<mask id="mask0" style="mask-type:alpha" maskUnits="userSpaceOnUse" x="0" y="0" width="160" height="160">
<circle cx="80" cy="80" r="80" fill="#6C6C6C"/>
</mask>
<g mask="url(#mask0)">
<circle cx="80" cy="80" r="80" fill="#F4C449"/>
<path d="M23.75 129C23.75 122.787 28.7868 117.75 35 117.75H125C131.213 117.75 136.25 122.787 136.25 129V196.25H23.75V129Z" fill="#2B61EE" stroke="black" strokeWidth="1.5"/>
<line x1="46.75" y1="142" x2="46.75" y2="180" stroke="black" strokeWidth="1.5"/>
<line x1="114.75" y1="142" x2="114.75" y2="180" stroke="black" strokeWidth="1.5"/>
<path d="M61.777 119.25C62.1611 113.939 66.5913 109.75 72 109.75H88C93.4087 109.75 97.8389 113.939 98.223 119.25H61.777Z" fill="#2B61EE" stroke="black" strokeWidth="1.5"/>
<path fill-rule="evenodd" clip-rule="evenodd" d="M80.5 134.927C90.165 134.927 98 127.092 98 117.427C98 117.284 97.9983 117.142 97.9949 117H63.0051C63.0017 117.142 63 117.284 63 117.427C63 127.092 70.835 134.927 80.5 134.927Z" fill="#C28262"/>
<path d="M92.4822 110.991C93.1371 114.801 92.3985 119.629 90.4383 124.16C88.3922 128.89 84.9722 133.399 80.2544 136.163L90.8538 146.321C90.9879 146.106 91.146 145.852 91.3235 145.566C91.9082 144.623 92.7031 143.329 93.5445 141.927C95.2391 139.102 97.0848 135.898 97.8108 134.205C99.2825 130.77 101.07 124.52 99.2991 118.772C97.3526 114.653 95.3205 112.659 93.8396 111.69C93.314 111.347 92.8529 111.129 92.4822 110.991Z" fill="#2B61EE" stroke="black" strokeWidth="1.5"/>
<path d="M67.3045 110.991C66.6497 114.801 67.3882 119.629 69.3484 124.16C71.3946 128.89 74.8145 133.399 79.5323 136.163L68.9329 146.321C68.7988 146.106 68.6407 145.852 68.4632 145.566C67.8785 144.623 67.0836 143.329 66.2423 141.927C64.5477 139.102 62.7019 135.898 61.976 134.205C60.5042 130.77 58.7171 124.52 60.4876 118.772C62.4342 114.653 64.4663 112.659 65.9472 111.69C66.4727 111.347 66.9339 111.129 67.3045 110.991Z" fill="#2B61EE" stroke="black" strokeWidth="1.5"/>
<path d="M70 100H90V116C90 121.523 85.5228 126 80 126C74.4772 126 70 121.523 70 116V100Z" fill="#C28262"/>
<path d="M52.25 77.1992C50.4076 76.9467 48.8766 75.771 47.7441 74.0912C46.4576 72.1829 45.75 69.7053 45.75 67.5C45.75 65.3249 46.4331 63.9503 47.5744 63.088C48.633 62.2881 50.1889 61.8486 52.25 61.7648V77.1992Z" fill="#C28262" stroke="black" strokeWidth="1.5"/>
<path d="M106.75 77.1992C108.592 76.9467 110.123 75.771 111.256 74.0912C112.542 72.1829 113.25 69.7053 113.25 67.5C113.25 65.3249 112.567 63.9503 111.426 63.088C110.367 62.2881 108.811 61.8486 106.75 61.7648V77.1992Z" fill="#C28262" stroke="black" strokeWidth="1.5"/>
<path d="M51.75 45.75L107.25 45.75V80.4704C107.25 94.0803 94.9057 105.25 79.5 105.25C64.0943 105.25 51.75 94.0803 51.75 80.4704V45.75Z" fill="#DF9875" stroke="black" strokeWidth="1.5"/>
<path fill-rule="evenodd" clip-rule="evenodd" d="M107 87.1574V81.1423C100 77.8932 94.0769 82.226 90.3077 86.0176C82.2307 81.6845 72.5384 81.1423 67.1538 86.0176C58.4842 80.6187 53.7382 82.4172 51.3042 84.1656C53.3255 96.5178 65.1793 106 79.5001 106C92.6406 106 103.704 98.0164 107 87.1574Z" fill="#151515"/>
<path d="M80.437 67C79.2648 68.623 76.7641 72.518 76.1389 75.1148C75.3575 78.3607 78.0927 78.3607 78.8741 77.5492C79.6556 76.7377 80.8278 76.7377 82 76.7377" stroke="black" strokeWidth="1.5"/>
<path d="M79.9929 52.3271C66.4104 44.6989 53.7982 51.8503 50.8875 59C45.0665 47.5594 46.8591 31.175 67.3799 23.7212C89.6934 15.6162 101.336 25.1515 109.583 18C105.217 25.1515 118.8 49.9432 107.158 58.9999C104.732 50.8967 91.1498 45.1756 79.9929 52.3271Z" fill="#151515"/>
<circle cx="66" cy="65" r="8" stroke="black" strokeWidth="1.5"/>
<path d="M69 67C69 65.3431 67.6569 64 66 64C64.3431 64 63 65.3431 63 67" stroke="black" strokeWidth="1.5"/>
<path d="M96 67C96 65.3431 94.6569 64 93 64C91.3431 64 90 65.3431 90 67" stroke="black" strokeWidth="1.5"/>
<circle cx="93" cy="65" r="8" stroke="black" strokeWidth="1.5"/>
<path d="M74.0001 63.4747C75.9125 61.5622 80.8849 58.8848 85.4748 63.4747" stroke="black" strokeWidth="1.5"/>
<path d="M84.8687 94.1313C83.2458 95.7542 78.9737 97.9737 74.8686 93.8686" stroke="white" strokeWidth="1.5"/>
<path d="M58 65L51 66" stroke="black" strokeWidth="1.5"/>
<path d="M101 65L108 66" stroke="black" strokeWidth="1.5"/>
<path d="M55 45.5C58.1667 41.6667 67.3 33.9 78.5 33.5C92.5 33 98.5 32 101 28" stroke="#5A2C1E" strokeWidth="1.5"/>
<path d="M80.5 43C86.6667 44 100.3 43.9 105.5 35.5" stroke="#5A2C1E" strokeWidth="1.5"/>
<circle cx="85" cy="150" r="1.25" fill="#3085E8" stroke="black" strokeWidth="1.5"/>
<line x1="79.75" y1="136" x2="79.75" y2="196" stroke="black" strokeWidth="1.5"/>
</g>
</svg>
