<svg width="160" height="160" viewBox="0 0 160 160" fill="none" xmlns="http://www.w3.org/2000/svg">
<mask id="mask0" style="mask-type:alpha" maskUnits="userSpaceOnUse" x="0" y="0" width="160" height="160">
<circle cx="80" cy="80" r="80" fill="#FFBF52"/>
</mask>
<g mask="url(#mask0)">
<circle cx="80" cy="80" r="80" fill="#29CD97"/>
<mask id="mask1" style="mask-type:alpha" maskUnits="userSpaceOnUse" x="23" y="117" width="114" height="80">
<path d="M23.75 129C23.75 122.787 28.7868 117.75 35 117.75H125C131.213 117.75 136.25 122.787 136.25 129V196.25H23.75V129Z" fill="#F19036" stroke="black" strokeWidth="1.5"/>
</mask>
<g mask="url(#mask1)">
<path d="M23.75 129C23.75 122.787 28.7868 117.75 35 117.75H125C131.213 117.75 136.25 122.787 136.25 129V196.25H23.75V129Z" fill="#E3E3E3" stroke="black" strokeWidth="1.5"/>
<circle cx="80.5" cy="116.5" r="23.75" fill="#F19036" stroke="black" strokeWidth="1.5"/>
<mask id="path-6-inside-1" fill="white">
<path d="M98 117.427C98 127.092 90.165 134.927 80.5 134.927C70.835 134.927 63 127.092 63 117.427C63 107.762 70.835 99.9268 80.5 99.9268C90.165 99.9268 98 107.762 98 117.427Z"/>
</mask>
<path d="M98 117.427C98 127.092 90.165 134.927 80.5 134.927C70.835 134.927 63 127.092 63 117.427C63 107.762 70.835 99.9268 80.5 99.9268C90.165 99.9268 98 107.762 98 117.427Z" fill="#E9AA96"/>
<path d="M96.5 117.427C96.5 126.263 89.3366 133.427 80.5 133.427V136.427C90.9934 136.427 99.5 127.92 99.5 117.427H96.5ZM80.5 133.427C71.6634 133.427 64.5 126.263 64.5 117.427H61.5C61.5 127.92 70.0066 136.427 80.5 136.427V133.427ZM64.5 117.427C64.5 108.59 71.6634 101.427 80.5 101.427V98.4268C70.0066 98.4268 61.5 106.933 61.5 117.427H64.5ZM80.5 101.427C89.3366 101.427 96.5 108.59 96.5 117.427H99.5C99.5 106.933 90.9934 98.4268 80.5 98.4268V101.427Z" fill="black" mask="url(#path-6-inside-1)"/>
</g>
<path d="M70 100H90V116C90 121.523 85.5228 126 80 126C74.4772 126 70 121.523 70 116V100Z" fill="#E9AA96"/>
<path d="M113 67.1667C113 72.5975 108.597 77 103.167 77L56.8333 77C51.4025 77 47 72.5975 47 67.1667L47 51C47 32.7746 61.7746 18 80 18C98.2254 18 113 32.7746 113 51L113 67.1667Z" fill="#151515"/>
<circle cx="53" cy="74" r="8.25" fill="#E9AA96" stroke="black" strokeWidth="1.5"/>
<circle cx="107" cy="74" r="8.25" fill="#E9AA96" stroke="black" strokeWidth="1.5"/>
<path d="M53.75 56.1667C53.75 50.966 57.966 46.75 63.1667 46.75H96.8333C102.034 46.75 106.25 50.966 106.25 56.1667V80C106.25 94.4975 94.4975 106.25 80 106.25C65.5025 106.25 53.75 94.4975 53.75 80V56.1667Z" fill="#F8C6AE" stroke="black" strokeWidth="1.5"/>
<path d="M68.3529 66C78.9049 66 88.3331 61.1423 94.5638 53.521C98.2364 60.2808 105.038 65.0618 113 65.8765V50.32C113 31.9179 98.2254 17 80 17C61.7746 17 47 31.9179 47 50.32L47 58.3784C52.8342 63.145 60.2634 66 68.3529 66Z" fill="#151515"/>
<path d="M93 32C99 29.2 102 20 100 13C103.333 14.6667 108 18.5 107.5 23.5C107 28.5 104 32 93 32Z" fill="#151515"/>
<path d="M81.7548 70C81.7548 70 74.906 78.2174 76.1512 82.913C77.3965 87.6087 83 82.913 83 82.913" stroke="black" strokeWidth="1.5"/>
<path d="M66 68V74" stroke="black" strokeWidth="1.5"/>
<path d="M95 68V74" stroke="black" strokeWidth="1.5"/>
<path d="M75 92C75.197 94.5893 77.3603 96.6289 80 96.6289C82.6397 96.6289 84.803 94.5893 85 92H75Z" fill="#D84848" stroke="black" strokeWidth="1.5"/>
<path d="M81 30C79.1132 32.625 72.5094 48.9 56 51" stroke="#6B3322" strokeWidth="1.5"/>
<line x1="46.75" y1="142" x2="46.75" y2="180" stroke="black" strokeWidth="1.5"/>
<line x1="116.75" y1="142" x2="116.75" y2="180" stroke="black" strokeWidth="1.5"/>
</g>
</svg>
